Preview_RobotoExtremo-wght_700.00_wdth_75.00_opsz_144.00_GRAD_0.00_XTRA_468.00_XOPQ_96.00_YOPQ_79.00.ufo
<glyph name="exclam" format="2">
  <advance width="415"/>
  <unicode hex="0021"/>
  <outline>
    <contour>
      <point x="-4.3999999999999915" y="181.4" type="qcurve" smooth="yes"/>
      <point x="-4.3999999999999915" y="260.8"/>
      <point x="104.6" y="372.59999999999997"/>
      <point x="205.20000000000005" y="372.59999999999997" type="qcurve" smooth="yes"/>
      <point x="309.4" y="372.59999999999997"/>
      <point x="419.5999999999999" y="260.8"/>
      <point x="419.5999999999999" y="181.4" type="qcurve" smooth="yes"/>
      <point x="419.5999999999999" y="102.19999999999999"/>
      <point x="310.6" y="-9.6"/>
      <point x="207.6" y="-9.6" type="qcurve" smooth="yes"/>
      <point x="104.6" y="-9.6"/>
      <point x="-4.3999999999999915" y="102.6"/>
    </contour>
    <contour>
      <point x="39.79999999999998" y="462.8" type="line"/>
      <point x="34.000000000000014" y="1456.0" type="line"/>
      <point x="381.59999999999997" y="1456.0" type="line"/>
      <point x="374.8" y="462.8" type="line"/>
    </contour>
  </outline>
</glyph>
<glyph name="quotedbl" format="2">
  <advance width="649"/>
  <unicode hex="0022"/>
  <outline>
    <contour>
      <point x="64.0" y="998.4" type="line"/>
      <point x="49.4" y="1314.8" type="line"/>
      <point x="49.4" y="1456.0" type="line"/>
      <point x="296.20000000000005" y="1456.0" type="line"/>
      <point x="296.20000000000005" y="1314.8" type="line"/>
      <point x="282.6" y="998.4" type="line"/>
    </contour>
    <contour>
      <point x="366.5999999999999" y="998.4" type="line"/>
      <point x="352.0" y="1314.8" type="line"/>
      <point x="352.0" y="1456.0" type="line"/>
      <point x="598.5999999999999" y="1456.0" type="line"/>
      <point x="598.5999999999999" y="1314.8" type="line"/>
      <point x="584.9999999999999" y="998.4" type="line"/>
    </contour>
  </outline>
</glyph>
<glyph name="numbersign" format="2">
  <advance width="866"/>
  <unicode hex="0023"/>
  <outline>
    <contour>
      <point x="68.39999999999999" y="-11.8" type="line"/>
      <point x="271.20000000000005" y="1467.8" type="line"/>
      <point x="488.5999999999999" y="1467.4" type="line"/>
      <point x="287.0" y="-12.2" type="line"/>
    </contour>
    <contour>
      <point x="379.79999999999995" y="-11.8" type="line"/>
      <point x="582.4000000000001" y="1467.8" type="line"/>
      <point x="799.5999999999999" y="1467.8" type="line"/>
      <point x="597.8" y="-11.8" type="line"/>
    </contour>
    <contour>
      <point x="21.59999999999998" y="391.0" type="line"/>
      <point x="21.59999999999998" y="566.4" type="line"/>
      <point x="818.8000000000002" y="566.4" type="line"/>
      <point x="818.8000000000002" y="391.0" type="line"/>
    </contour>
    <contour>
      <point x="47.00000000000002" y="888.2" type="line"/>
      <point x="47.00000000000002" y="1063.6" type="line"/>
      <point x="844.2" y="1063.6" type="line"/>
      <point x="844.2" y="888.2" type="line"/>
    </contour>
  </outline>
</glyph>
<glyph name="dollar" format="2">
  <advance width="743"/>
  <unicode hex="0024"/>
  <outline>
    <contour>
      <point x="17.000000000000004" y="398.0" type="qcurve" smooth="yes"/>
      <point x="17.000000000000004" y="448.8" type="line"/>
      <point x="268.4" y="448.8" type="line"/>
      <point x="268.4" y="420.2" type="line" smooth="yes"/>
      <point x="267.8" y="297.0"/>
      <point x="311.00000000000006" y="185.39999999999998"/>
      <point x="371.79999999999995" y="185.39999999999998" type="qcurve" smooth="yes"/>
      <point x="430.0" y="185.39999999999998"/>
      <point x="468.6" y="293.6"/>
      <point x="468.6" y="384.79999999999995" type="qcurve" smooth="yes"/>
      <point x="468.6" y="467.4"/>
      <point x="428.79999999999995" y="579.0"/>
      <point x="320.19999999999993" y="628.4000000000001" type="qcurve" smooth="yes"/>
      <point x="169.2" y="694.8000000000001"/>
      <point x="28.199999999999992" y="892.0"/>
      <point x="28.199999999999992" y="1063.0" type="qcurve" smooth="yes"/>
      <point x="28.199999999999992" y="1260.8"/>
      <point x="212.19999999999996" y="1462.6000000000001"/>
      <point x="362.79999999999995" y="1462.6000000000001" type="qcurve" smooth="yes"/>
      <point x="515.8" y="1462.6000000000001"/>
      <point x="702.5999999999999" y="1290.4"/>
      <point x="702.5999999999999" y="1067.6" type="qcurve" smooth="yes"/>
      <point x="702.5999999999999" y="1022.8000000000001" type="line"/>
      <point x="454.79999999999995" y="1022.8000000000001" type="line"/>
      <point x="454.79999999999995" y="1047.2" type="line" smooth="yes"/>
      <point x="454.79999999999995" y="1150.8000000000002"/>
      <point x="422.3999999999999" y="1264.6000000000001"/>
      <point x="367.6" y="1264.6000000000001" type="qcurve" smooth="yes"/>
      <point x="319.79999999999995" y="1264.6000000000001"/>
      <point x="285.2" y="1169.0"/>
      <point x="285.2" y="1080.4" type="qcurve" smooth="yes"/>
      <point x="285.2" y="1002.8000000000001"/>
      <point x="332.99999999999994" y="902.0"/>
      <point x="451.6000000000001" y="852.5999999999999" type="qcurve" smooth="yes"/>
      <point x="589.4" y="793.4000000000001"/>
      <point x="724.9999999999999" y="586.2"/>
      <point x="724.9999999999999" y="410.0" type="qcurve" smooth="yes"/>
      <point x="724.9999999999999" y="212.2"/>
      <point x="531.8" y="-7.199999999999999"/>
      <point x="375.40000000000003" y="-7.199999999999999" type="qcurve" smooth="yes"/>
      <point x="218.6" y="-7.199999999999999"/>
      <point x="17.000000000000004" y="162.0"/>
    </contour>
    <contour>
      <point x="273.2" y="-150.6" type="line"/>
      <point x="273.2" y="104.0" type="line"/>
      <point x="475.99999999999994" y="104.0" type="line"/>
      <point x="475.99999999999994" y="67.39999999999999" type="line"/>
      <point x="481.4" y="57.400000000000006" type="line"/>
      <point x="481.4" y="-150.6" type="line"/>
    </contour>
    <contour>
      <point x="276.80000000000007" y="1348.0" type="line"/>
      <point x="276.79999999999995" y="1381.6" type="line"/>
      <point x="271.4" y="1391.6" type="line"/>
      <point x="271.4" y="1606.0" type="line"/>
      <point x="479.59999999999997" y="1606.0" type="line"/>
      <point x="479.59999999999997" y="1348.0" type="line"/>
    </contour>
  </outline>
</glyph>
<glyph name="ampersand" format="2">
  <advance width="858"/>
  <unicode hex="0026"/>
  <outline>
    <contour>
      <point x="24.800000000000004" y="349.0" type="qcurve" smooth="yes"/>
      <point x="24.800000000000004" y="511.19999999999993"/>
      <point x="131.99999999999997" y="706.1999999999999"/>
      <point x="227.8" y="803.4" type="qcurve" smooth="yes"/>
      <point x="309.0" y="877.0" type="line" smooth="yes"/>
      <point x="371.20000000000005" y="946.4"/>
      <point x="413.19999999999993" y="1116.6000000000001"/>
      <point x="413.19999999999993" y="1189.3999999999999" type="qcurve" smooth="yes"/>
      <point x="413.19999999999993" y="1270.4"/>
      <point x="401.4000000000001" y="1321.8000000000002"/>
      <point x="377.2" y="1321.8000000000002" type="qcurve" smooth="yes"/>
      <point x="354.4000000000001" y="1321.8000000000002"/>
      <point x="340.59999999999997" y="1270.0"/>
      <point x="340.59999999999997" y="1185.2" type="qcurve" smooth="yes"/>
      <point x="340.59999999999997" y="1105.0"/>
      <point x="400.3999999999999" y="896.4"/>
      <point x="448.4" y="804.5999999999999" type="qcurve" smooth="yes"/>
      <point x="849.2" y="0.0" type="line"/>
      <point x="566.0" y="0.0" type="line"/>
      <point x="214.2" y="725.6" type="line" smooth="yes"/>
      <point x="156.99999999999997" y="836.4000000000001"/>
      <point x="97.6" y="1056.0"/>
      <point x="97.6" y="1176.0" type="qcurve" smooth="yes"/>
      <point x="97.6" y="1328.4"/>
      <point x="232.99999999999997" y="1478.4"/>
      <point x="380.40000000000003" y="1478.4" type="qcurve" smooth="yes"/>
      <point x="527.0" y="1478.4"/>
      <point x="652.9999999999999" y="1338.3999999999999"/>
      <point x="652.9999999999999" y="1193.6" type="qcurve" smooth="yes"/>
      <point x="652.9999999999999" y="1066.2"/>
      <point x="550.4000000000001" y="850.4"/>
      <point x="465.19999999999993" y="747.4" type="qcurve" smooth="yes"/>
      <point x="396.20000000000005" y="674.0" type="line" smooth="yes"/>
      <point x="312.2" y="589.5999999999999"/>
      <point x="273.8" y="476.0"/>
      <point x="273.8" y="364.0" type="qcurve" smooth="yes"/>
      <point x="273.8" y="258.59999999999997"/>
      <point x="314.79999999999995" y="173.8"/>
      <point x="374.2" y="173.8" type="qcurve" smooth="yes"/>
      <point x="490.6" y="173.8"/>
      <point x="584.8" y="418.79999999999995"/>
      <point x="594.1999999999999" y="733.0" type="qcurve"/>
      <point x="835.8" y="733.0" type="line"/>
      <point x="839.4" y="398.4"/>
      <point x="566.6" y="-16.0"/>
      <point x="361.79999999999995" y="-16.0" type="qcurve" smooth="yes"/>
      <point x="190.80000000000004" y="-16.0"/>
      <point x="24.800000000000004" y="148.8"/>
    </contour>
  </outline>
</glyph>
<glyph name="quotesingle" format="2">
  <advance width="360"/>
  <unicode hex="0027"/>
  <outline>
    <contour>
      <point x="68.8" y="998.4" type="line"/>
      <point x="57.4" y="1314.8" type="line"/>
      <point x="57.4" y="1456.0" type="line"/>
      <point x="302.4" y="1456.0" type="line"/>
      <point x="302.4" y="1314.1999999999998" type="line"/>
      <point x="291.4" y="998.4" type="line"/>
    </contour>
  </outline>
</glyph>
<glyph name="parenleft" format="2">
  <advance width="484"/>
  <unicode hex="0028"/>
  <outline>
    <contour>
      <point x="449.99999999999994" y="-420.0" type="line"/>
      <point x="273.79999999999995" y="-359.59999999999997"/>
      <point x="51.0" y="61.39999999999999"/>
      <point x="51.0" y="478.4" type="qcurve" smooth="yes"/>
      <point x="51.0" y="563.4" type="line" smooth="yes"/>
      <point x="51.0" y="976.5999999999999"/>
      <point x="274.6" y="1419.1999999999998"/>
      <point x="449.99999999999994" y="1476.0" type="qcurve"/>
      <point x="470.3999999999999" y="1314.6" type="line"/>
      <point x="396.59999999999997" y="1265.2"/>
      <point x="327.79999999999995" y="932.8"/>
      <point x="327.79999999999995" y="554.4" type="qcurve" smooth="yes"/>
      <point x="327.79999999999995" y="480.4" type="line" smooth="yes"/>
      <point x="327.79999999999995" y="128.39999999999998"/>
      <point x="390.59999999999997" y="-198.0"/>
      <point x="471.19999999999993" y="-259.8" type="qcurve"/>
    </contour>
  </outline>
</glyph>
<glyph name="parenright" format="2">
  <advance width="484"/>
  <unicode hex="0029"/>
  <outline>
    <contour>
      <point x="34.00000000000002" y="-420.0" type="qcurve"/>
      <point x="12.800000000000018" y="-259.8" type="line"/>
      <point x="93.4" y="-197.99999999999997"/>
      <point x="156.19999999999996" y="128.39999999999998"/>
      <point x="156.19999999999996" y="480.4" type="qcurve" smooth="yes"/>
      <point x="156.19999999999996" y="554.4" type="line" smooth="yes"/>
      <point x="156.19999999999996" y="932.8"/>
      <point x="87.40000000000002" y="1265.2"/>
      <point x="13.60000000000002" y="1314.6" type="qcurve"/>
      <point x="34.00000000000002" y="1476.0" type="line"/>
      <point x="209.39999999999998" y="1419.1999999999998"/>
      <point x="433.0" y="976.6"/>
      <point x="433.0" y="564.0" type="qcurve" smooth="yes"/>
      <point x="433.0" y="479.0" type="line" smooth="yes"/>
      <point x="433.0" y="61.400000000000006"/>
      <point x="210.2" y="-359.59999999999997"/>
    </contour>
  </outline>
</glyph>
<glyph name="asterisk" format="2">
  <advance width="633"/>
  <unicode hex="002A"/>
  <outline>
    <contour>
      <point x="9.200000000000003" y="1144.0000000000002" type="line"/>
      <point x="82.39999999999999" y="1352.6" type="line"/>
      <point x="231.0" y="1265.8" type="line"/>
      <point x="207.4" y="1472.0" type="line"/>
      <point x="424.8" y="1472.0" type="line"/>
      <point x="401.7999999999999" y="1265.8" type="line"/>
      <point x="550.0" y="1352.6" type="line"/>
      <point x="623.6" y="1144.6000000000001" type="line"/>
      <point x="450.4" y="1102.0" type="line"/>
      <point x="583.1999999999999" y="939.8" type="line"/>
      <point x="409.80000000000007" y="814.8" type="line"/>
      <point x="317.0" y="999.3999999999999" type="line"/>
      <point x="223.2" y="814.8" type="line"/>
      <point x="49.8" y="939.8" type="line"/>
      <point x="182.4" y="1102.0" type="line"/>
    </contour>
  </outline>
</glyph>
<glyph name="plus" format="2">
  <advance width="599"/>
  <unicode hex="002B"/>
  <outline>
    <contour>
      <point x="16.80000000000001" y="554.0" type="line"/>
      <point x="16.80000000000001" y="793.9999999999999" type="line"/>
      <point x="582.2000000000002" y="793.9999999999999" type="line"/>
      <point x="582.2000000000002" y="554.0" type="line"/>
    </contour>
    <contour>
      <point x="180.20000000000002" y="314.0" type="line"/>
      <point x="180.20000000000002" y="1034.0" type="line"/>
      <point x="418.8" y="1034.0" type="line"/>
      <point x="418.8" y="314.0" type="line"/>
    </contour>
  </outline>
</glyph>
<glyph name="comma" format="2">
  <advance width="440"/>
  <unicode hex="002C"/>
  <outline>
    <contour>
      <point x="1.5999999999999943" y="-145.0" type="line"/>
      <point x="35.80000000000001" y="-93.19999999999999"/>
      <point x="70.6" y="19.0"/>
      <point x="70.6" y="80.0" type="qcurve" smooth="yes"/>
      <point x="70.6" y="354.8" type="line"/>
      <point x="412.0" y="354.8" type="line"/>
      <point x="412.0" y="82.39999999999999" type="line" smooth="yes"/>
      <point x="412.4" y="7.399999999999995"/>
      <point x="355.6" y="-139.19999999999996"/>
      <point x="311.4" y="-182.6" type="qcurve"/>
    </contour>
  </outline>
</glyph>
<glyph name="hyphen" format="2">
  <advance width="583"/>
  <unicode hex="002D"/>
  <outline>
    <contour>
      <point x="46.4" y="449.0" type="line"/>
      <point x="46.4" y="776.0" type="line"/>
      <point x="536.4" y="776.0" type="line"/>
      <point x="536.4" y="449.0" type="line"/>
    </contour>
  </outline>
</glyph>
<glyph name="period" format="2">
  <advance width="456"/>
  <unicode hex="002E"/>
  <outline>
    <contour>
      <point x="17.6" y="186.2" type="qcurve" smooth="yes"/>
      <point x="17.6" y="269.8"/>
      <point x="126.0" y="382.8"/>
      <point x="227.80000000000004" y="382.8" type="qcurve" smooth="yes"/>
      <point x="329.59999999999997" y="382.8"/>
      <point x="438.00000000000006" y="269.8"/>
      <point x="438.00000000000006" y="185.6" type="qcurve" smooth="yes"/>
      <point x="438.00000000000006" y="100.99999999999999"/>
      <point x="329.59999999999997" y="-12.0"/>
      <point x="227.80000000000004" y="-12.0" type="qcurve" smooth="yes"/>
      <point x="126.0" y="-12.0"/>
      <point x="17.6" y="103.79999999999998"/>
    </contour>
  </outline>
</glyph>
<glyph name="slash" format="2">
  <advance width="578"/>
  <unicode hex="002F"/>
  <outline>
    <contour>
      <point x="-53.599999999999994" y="-47.0" type="line"/>
      <point x="253.8" y="1456.0" type="line"/>
      <point x="589.2" y="1456.0" type="line"/>
      <point x="280.79999999999995" y="-47.0" type="line"/>
    </contour>
  </outline>
</glyph>
<glyph name="zero" format="2">
  <advance width="746"/>
  <unicode hex="0030"/>
  <outline>
    <contour>
      <point x="21.200000000000003" y="393.99999999999994" type="qcurve" smooth="yes"/>
      <point x="21.200000000000003" y="1058.9999999999998" type="line" smooth="yes"/>
      <point x="21.200000000000003" y="1281.8"/>
      <point x="209.00000000000003" y="1472.0"/>
      <point x="372.3999999999999" y="1472.0" type="qcurve" smooth="yes"/>
      <point x="535.1999999999999" y="1472.0"/>
      <point x="724.4" y="1287.8"/>
      <point x="724.4" y="1058.9999999999998" type="qcurve" smooth="yes"/>
      <point x="724.4" y="393.99999999999994" type="line" smooth="yes"/>
      <point x="724.4" y="172.79999999999998"/>
      <point x="519.0" y="-15.999999999999996"/>
      <point x="372.3999999999999" y="-16.0" type="qcurve" smooth="yes"/>
      <point x="206.6" y="-16.0"/>
      <point x="21.200000000000003" y="174.59999999999997"/>
    </contour>
    <contour>
      <point x="347.59999999999997" y="317.6" type="line" smooth="yes"/>
      <point x="347.59999999999997" y="272.6"/>
      <point x="357.6" y="249.79999999999998"/>
      <point x="370.00000000000006" y="249.79999999999998" type="qcurve" smooth="yes"/>
      <point x="382.40000000000003" y="249.79999999999998"/>
      <point x="393.79999999999995" y="272.6"/>
      <point x="393.79999999999995" y="317.6" type="qcurve" smooth="yes"/>
      <point x="393.79999999999995" y="1127.4" type="line" smooth="yes"/>
      <point x="393.79999999999995" y="1174.8"/>
      <point x="382.40000000000003" y="1194.8"/>
      <point x="370.00000000000006" y="1194.8" type="qcurve" smooth="yes"/>
      <point x="358.6" y="1194.8"/>
      <point x="347.59999999999997" y="1174.8"/>
      <point x="347.59999999999997" y="1127.4" type="qcurve" smooth="yes"/>
    </contour>
  </outline>
</glyph>
<glyph name="one" format="2">
  <advance width="746"/>
  <unicode hex="0031"/>
  <outline>
    <contour>
      <point x="271.4" y="0.0" type="line"/>
      <point x="271.4" y="1111.2" type="line"/>
      <point x="23.39999999999999" y="985.8" type="line"/>
      <point x="23.39999999999999" y="1314.8" type="line"/>
      <point x="308.3999999999999" y="1450.6" type="line"/>
      <point x="654.4000000000001" y="1450.6" type="line"/>
      <point x="654.4000000000001" y="0.0" type="line"/>
    </contour>
  </outline>
</glyph>
<glyph name="two" format="2">
  <advance width="746"/>
  <unicode hex="0032"/>
  <outline>
    <contour>
      <point x="14.200000000000006" y="0.0" type="line"/>
      <point x="14.200000000000006" y="264.0" type="line"/>
      <point x="345.19999999999993" y="797.4" type="line" smooth="yes"/>
      <point x="367.79999999999995" y="858.4"/>
      <point x="398.4" y="990.9999999999999"/>
      <point x="398.4" y="1076.1999999999998" type="qcurve" smooth="yes"/>
      <point x="398.4" y="1141.0"/>
      <point x="385.2" y="1188.8"/>
      <point x="362.20000000000005" y="1188.8" type="qcurve" smooth="yes"/>
      <point x="341.2" y="1188.8"/>
      <point x="330.2" y="1151.0"/>
      <point x="330.20000000000005" y="1089.6" type="qcurve" smooth="yes"/>
      <point x="330.20000000000005" y="924.6" type="line"/>
      <point x="14.199999999999998" y="924.6" type="line"/>
      <point x="14.199999999999998" y="1084.2" type="line" smooth="yes"/>
      <point x="14.999999999999996" y="1286.8"/>
      <point x="206.4" y="1472.0"/>
      <point x="375.59999999999997" y="1472.0" type="qcurve" smooth="yes"/>
      <point x="554.4" y="1472.0"/>
      <point x="718.8" y="1288.8000000000002"/>
      <point x="718.8" y="1109.0" type="qcurve" smooth="yes"/>
      <point x="718.7999999999998" y="943.8000000000001"/>
      <point x="642.4" y="722.1999999999999"/>
      <point x="584.0" y="620.4000000000001" type="qcurve" smooth="yes"/>
      <point x="460.0" y="317.4" type="line"/>
      <point x="736.5999999999999" y="317.4" type="line"/>
      <point x="736.5999999999999" y="0.0" type="line"/>
    </contour>
  </outline>
</glyph>
<glyph name="three" format="2">
  <advance width="746"/>
  <unicode hex="0033"/>
  <outline>
    <contour>
      <point x="12.999999999999996" y="356.6" type="qcurve" smooth="yes"/>
      <point x="12.999999999999996" y="524.6" type="line"/>
      <point x="336.40000000000003" y="524.6" type="line"/>
      <point x="336.40000000000003" y="321.79999999999995" type="line" smooth="yes"/>
      <point x="336.4" y="276.20000000000005"/>
      <point x="346.59999999999997" y="249.8"/>
      <point x="362.8" y="249.8" type="qcurve" smooth="yes"/>
      <point x="380.59999999999997" y="249.8"/>
      <point x="391.19999999999993" y="290.8"/>
      <point x="391.19999999999993" y="423.2" type="qcurve" smooth="yes"/>
      <point x="391.19999999999993" y="595.0"/>
      <point x="364.80000000000007" y="649.6"/>
      <point x="335.40000000000003" y="649.6" type="qcurve" smooth="yes"/>
      <point x="237.0" y="649.6" type="line"/>
      <point x="237.0" y="868.6" type="line"/>
      <point x="322.7999999999999" y="868.6" type="line" smooth="yes"/>
      <point x="367.00000000000006" y="867.8"/>
      <point x="390.4000000000001" y="939.0"/>
      <point x="390.4000000000001" y="1041.8" type="qcurve" smooth="yes"/>
      <point x="390.4000000000001" y="1159.4"/>
      <point x="378.4" y="1194.8"/>
      <point x="362.0" y="1194.8" type="qcurve" smooth="yes"/>
      <point x="345.59999999999997" y="1194.8"/>
      <point x="338.4" y="1159.6"/>
      <point x="338.4" y="1098.6000000000001" type="qcurve" smooth="yes"/>
      <point x="338.4" y="950.9999999999999" type="line"/>
      <point x="26.000000000000007" y="950.9999999999999" type="line"/>
      <point x="26.000000000000007" y="1104.2" type="line" smooth="yes"/>
      <point x="26.00000000000001" y="1284.2"/>
      <point x="208.2" y="1472.0"/>
      <point x="370.0" y="1472.0" type="qcurve" smooth="yes"/>
      <point x="539.8000000000001" y="1472.0"/>
      <point x="718.5999999999999" y="1289.0"/>
      <point x="718.5999999999999" y="1089.2" type="qcurve" smooth="yes"/>
      <point x="718.5999999999999" y="953.0"/>
      <point x="641.4000000000001" y="803.8"/>
      <point x="581.5999999999999" y="775.4" type="qcurve"/>
      <point x="581.5999999999999" y="771.4" type="line"/>
      <point x="642.8" y="750.4"/>
      <point x="731.4" y="596.2"/>
      <point x="731.4" y="420.20000000000005" type="qcurve" smooth="yes"/>
      <point x="731.4" y="209.2"/>
      <point x="542.4" y="-16.0"/>
      <point x="368.4" y="-16.0" type="qcurve" smooth="yes"/>
      <point x="206.59999999999997" y="-16.0"/>
      <point x="12.999999999999996" y="170.60000000000002"/>
    </contour>
  </outline>
</glyph>
<glyph name="four" format="2">
  <advance width="746"/>
  <unicode hex="0034"/>
  <outline>
    <contour>
      <point x="332.79999999999995" y="0.0" type="line"/>
      <point x="332.79999999999995" y="361.0" type="line"/>
      <point x="348.4000000000001" y="375.0" type="line"/>
      <point x="348.4000000000001" y="858.6" type="line"/>
      <point x="341.4" y="858.6" type="line"/>
      <point x="260.20000000000005" y="545.0" type="line"/>
      <point x="496.40000000000003" y="545.0" type="line"/>
      <point x="523.2" y="577.0" type="line"/>
      <point x="738.9999999999999" y="577.0" type="line"/>
      <point x="738.9999999999999" y="271.0" type="line"/>
      <point x="3.2" y="271.0" type="line"/>
      <point x="3.2" y="600.0" type="line"/>
      <point x="375.99999999999994" y="1456.0" type="line"/>
      <point x="691.2" y="1456.0" type="line"/>
      <point x="691.2" y="0.0" type="line"/>
    </contour>
  </outline>
</glyph>
<glyph name="five" format="2">
  <advance width="746"/>
  <unicode hex="0035"/>
  <outline>
    <contour>
      <point x="15.399999999999997" y="363.4" type="qcurve" smooth="yes"/>
      <point x="15.399999999999997" y="531.0" type="line"/>
      <point x="335.4" y="531.0" type="line"/>
      <point x="335.4" y="342.4" type="line" smooth="yes"/>
      <point x="336.0" y="286.0"/>
      <point x="345.79999999999995" y="249.8"/>
      <point x="365.4000000000001" y="249.8" type="qcurve" smooth="yes"/>
      <point x="384.6" y="249.8"/>
      <point x="392.3999999999999" y="306.40000000000003"/>
      <point x="392.3999999999999" y="485.4" type="qcurve" smooth="yes"/>
      <point x="392.3999999999999" y="686.5999999999999"/>
      <point x="379.40000000000003" y="744.0"/>
      <point x="357.8" y="744.0" type="qcurve" smooth="yes"/>
      <point x="338.79999999999995" y="744.0"/>
      <point x="328.20000000000005" y="702.6"/>
      <point x="327.40000000000003" y="635.6" type="qcurve"/>
      <point x="27.40000000000001" y="668.8" type="line"/>
      <point x="70.0" y="1456.0" type="line"/>
      <point x="670.1999999999999" y="1456.0" type="line"/>
      <point x="673.8" y="1143.3999999999999" type="line"/>
      <point x="350.2" y="1143.3999999999999" type="line"/>
      <point x="344.59999999999997" y="917.2" type="line"/>
      <point x="379.19999999999993" y="943.8000000000001"/>
      <point x="437.6" y="963.0"/>
      <point x="479.19999999999993" y="963.0" type="qcurve" smooth="yes"/>
      <point x="595.2" y="963.0"/>
      <point x="728.4" y="760.6"/>
      <point x="728.4" y="505.2" type="qcurve" smooth="yes"/>
      <point x="728.4" y="219.4"/>
      <point x="550.4000000000001" y="-16.0"/>
      <point x="370.2" y="-16.0" type="qcurve" smooth="yes"/>
      <point x="192.4" y="-16.0"/>
      <point x="15.399999999999997" y="172.59999999999997"/>
    </contour>
  </outline>
</glyph>
<glyph name="six" format="2">
  <advance width="746"/>
  <unicode hex="0036"/>
  <outline>
    <contour>
      <point x="18.400000000000006" y="560.2" type="qcurve" smooth="yes"/>
      <point x="18.400000000000006" y="649.5999999999999" type="line" smooth="yes"/>
      <point x="18.400000000000006" y="1080.1999999999998"/>
      <point x="262.00000000000006" y="1442.8"/>
      <point x="562.0" y="1467.2" type="qcurve" smooth="yes"/>
      <point x="634.5999999999999" y="1472.0" type="line"/>
      <point x="648.9999999999999" y="1185.6000000000001" type="line"/>
      <point x="621.0" y="1180.0000000000002" type="line" smooth="yes"/>
      <point x="471.19999999999993" y="1160.0000000000002"/>
      <point x="340.40000000000003" y="1002.3999999999999"/>
      <point x="340.40000000000003" y="618.4000000000001" type="qcurve" smooth="yes"/>
      <point x="340.40000000000003" y="477.2" type="line" smooth="yes"/>
      <point x="340.40000000000003" y="330.8"/>
      <point x="346.79999999999995" y="247.20000000000002"/>
      <point x="370.5999999999999" y="247.20000000000002" type="qcurve" smooth="yes"/>
      <point x="394.99999999999994" y="247.20000000000002"/>
      <point x="401.20000000000005" y="319.0"/>
      <point x="401.20000000000005" y="504.8" type="qcurve" smooth="yes"/>
      <point x="401.20000000000005" y="644.1999999999999"/>
      <point x="397.00000000000006" y="725.2"/>
      <point x="372.7999999999999" y="725.2" type="qcurve" smooth="yes"/>
      <point x="349.0" y="725.2"/>
      <point x="335.2" y="653.8"/>
      <point x="334.4" y="543.0" type="qcurve"/>
      <point x="282.2" y="543.0" type="line"/>
      <point x="282.2" y="763.0"/>
      <point x="380.20000000000005" y="932.6"/>
      <point x="493.0" y="932.6" type="qcurve" smooth="yes"/>
      <point x="605.0" y="932.6"/>
      <point x="735.8000000000001" y="758.8000000000001"/>
      <point x="735.8000000000001" y="488.0" type="qcurve" smooth="yes"/>
      <point x="735.8000000000001" y="209.2"/>
      <point x="539.2" y="-16.0"/>
      <point x="376.0" y="-16.0" type="qcurve" smooth="yes"/>
      <point x="205.39999999999998" y="-16.0"/>
      <point x="18.400000000000006" y="216.8"/>
    </contour>
  </outline>
</glyph>
<glyph name="seven" format="2">
  <advance width="746"/>
  <unicode hex="0037"/>
  <outline>
    <contour>
      <point x="89.99999999999999" y="0.0" type="line"/>
      <point x="352.8" y="1142.7999999999997" type="line"/>
      <point x="26.199999999999996" y="1142.7999999999997" type="line"/>
      <point x="26.199999999999996" y="1456.0" type="line"/>
      <point x="711.1999999999999" y="1456.0" type="line"/>
      <point x="711.1999999999999" y="1138.0" type="line"/>
      <point x="482.4" y="0.0" type="line"/>
    </contour>
  </outline>
</glyph>
<glyph name="eight" format="2">
  <advance width="746"/>
  <unicode hex="0038"/>
  <outline>
    <contour>
      <point x="6.800000000000006" y="405.6" type="qcurve" smooth="yes"/>
      <point x="6.800000000000006" y="580.6"/>
      <point x="98.79999999999998" y="733.8000000000001"/>
      <point x="148.0" y="757.8000000000001" type="qcurve"/>
      <point x="148.0" y="760.6" type="line"/>
      <point x="91.0" y="797.8"/>
      <point x="32.4" y="926.8000000000001"/>
      <point x="32.4" y="1080.8" type="qcurve" smooth="yes"/>
      <point x="32.4" y="1285.0"/>
      <point x="207.2" y="1471.6"/>
      <point x="373.4" y="1471.6" type="qcurve" smooth="yes"/>
      <point x="538.0" y="1471.6"/>
      <point x="713.1999999999998" y="1289.8"/>
      <point x="713.1999999999998" y="1080.8" type="qcurve" smooth="yes"/>
      <point x="713.1999999999998" y="928.0"/>
      <point x="654.1999999999999" y="793.2"/>
      <point x="597.4" y="757.1999999999999" type="qcurve"/>
      <point x="597.4" y="754.4" type="line"/>
      <point x="656.2" y="728.8"/>
      <point x="738.8" y="585.8"/>
      <point x="738.8" y="405.6" type="qcurve" smooth="yes"/>
      <point x="738.8" y="190.60000000000002"/>
      <point x="544.4000000000001" y="-16.0"/>
      <point x="373.4" y="-16.0" type="qcurve" smooth="yes"/>
      <point x="201.20000000000002" y="-16.0"/>
      <point x="6.800000000000006" y="194.20000000000002"/>
    </contour>
    <contour>
      <point x="336.4" y="442.8" type="qcurve" smooth="yes"/>
      <point x="336.4" y="306.00000000000006"/>
      <point x="348.2" y="244.39999999999998"/>
      <point x="370.4" y="244.39999999999998" type="qcurve" smooth="yes"/>
      <point x="392.6" y="244.39999999999998"/>
      <point x="405.0" y="308.0"/>
      <point x="405.0" y="442.40000000000003" type="qcurve" smooth="yes"/>
      <point x="405.0" y="578.6"/>
      <point x="395.79999999999995" y="645.8000000000001"/>
      <point x="370.4" y="645.8000000000001" type="qcurve" smooth="yes"/>
      <point x="344.6" y="645.8000000000001"/>
      <point x="336.4" y="581.4"/>
    </contour>
    <contour>
      <point x="341.40000000000003" y="1028.4" type="qcurve" smooth="yes"/>
      <point x="341.40000000000003" y="899.2"/>
      <point x="350.0" y="852.2"/>
      <point x="370.4" y="852.2" type="qcurve" smooth="yes"/>
      <point x="390.2" y="852.2"/>
      <point x="398.79999999999995" y="900.8"/>
      <point x="398.79999999999995" y="1028.4" type="qcurve" smooth="yes"/>
      <point x="398.79999999999995" y="1163.2"/>
      <point x="389.79999999999995" y="1206.1999999999998"/>
      <point x="370.4" y="1206.1999999999998" type="qcurve" smooth="yes"/>
      <point x="350.4" y="1206.1999999999998"/>
      <point x="341.40000000000003" y="1164.8000000000002"/>
    </contour>
  </outline>
</glyph>
<glyph name="nine" format="2">
  <advance width="746"/>
  <unicode hex="0039"/>
  <outline>
    <contour>
      <point x="9.8" y="967.9999999999999" type="qcurve" smooth="yes"/>
      <point x="9.8" y="1246.8"/>
      <point x="207.0" y="1472.0"/>
      <point x="370.19999999999993" y="1472.0" type="qcurve" smooth="yes"/>
      <point x="540.8000000000001" y="1472.0"/>
      <point x="727.1999999999999" y="1239.1999999999998"/>
      <point x="727.1999999999999" y="895.8" type="qcurve" smooth="yes"/>
      <point x="727.1999999999999" y="806.4000000000001" type="line" smooth="yes"/>
      <point x="727.1999999999999" y="375.79999999999995"/>
      <point x="483.5999999999999" y="13.20000000000001"/>
      <point x="183.6" y="-11.199999999999998" type="qcurve" smooth="yes"/>
      <point x="111.0" y="-15.999999999999996" type="line"/>
      <point x="96.6" y="270.4" type="line"/>
      <point x="124.59999999999998" y="275.99999999999994" type="line" smooth="yes"/>
      <point x="274.4" y="296.0"/>
      <point x="405.19999999999993" y="453.59999999999997"/>
      <point x="405.19999999999993" y="837.5999999999999" type="qcurve" smooth="yes"/>
      <point x="405.19999999999993" y="972.8" type="line" smooth="yes"/>
      <point x="405.19999999999993" y="1116.2"/>
      <point x="399.4" y="1202.7999999999997"/>
      <point x="375.00000000000006" y="1202.7999999999997" type="qcurve" smooth="yes"/>
      <point x="350.6" y="1202.7999999999997"/>
      <point x="344.3999999999999" y="1131.0"/>
      <point x="344.3999999999999" y="951.1999999999999" type="qcurve" smooth="yes"/>
      <point x="344.3999999999999" y="811.8"/>
      <point x="348.6" y="730.8000000000001"/>
      <point x="372.80000000000007" y="730.8000000000001" type="qcurve" smooth="yes"/>
      <point x="396.5999999999999" y="730.8000000000001"/>
      <point x="410.4" y="802.2"/>
      <point x="411.19999999999993" y="913.0000000000001" type="qcurve"/>
      <point x="463.4" y="913.0" type="line"/>
      <point x="463.4" y="693.0"/>
      <point x="365.4" y="523.4"/>
      <point x="252.59999999999997" y="523.4" type="qcurve" smooth="yes"/>
      <point x="140.60000000000002" y="523.4"/>
      <point x="9.8" y="697.2"/>
    </contour>
  </outline>
</glyph>
<glyph name="colon" format="2">
  <advance width="334"/>
  <unicode hex="003A"/>
  <outline>
    <contour>
      <point x="19.39999999999999" y="131.60000000000002" type="qcurve" smooth="yes"/>
      <point x="19.39999999999999" y="191.8"/>
      <point x="95.99999999999999" y="273.0"/>
      <point x="167.20000000000002" y="273.0" type="qcurve" smooth="yes"/>
      <point x="239.0" y="273.0"/>
      <point x="315.6" y="191.8"/>
      <point x="315.6" y="131.0" type="qcurve" smooth="yes"/>
      <point x="315.6" y="68.60000000000001"/>
      <point x="238.39999999999998" y="-12.6"/>
      <point x="167.2" y="-12.6" type="qcurve" smooth="yes"/>
      <point x="96.00000000000001" y="-12.6"/>
      <point x="19.39999999999999" y="70.8"/>
    </contour>
    <contour>
      <point x="19.39999999999999" y="742.6000000000001" type="qcurve" smooth="yes"/>
      <point x="19.39999999999999" y="802.8"/>
      <point x="96.00000000000001" y="884.5999999999999"/>
      <point x="167.19999999999996" y="884.5999999999999" type="qcurve" smooth="yes"/>
      <point x="239.0" y="884.5999999999999"/>
      <point x="315.6" y="802.8"/>
      <point x="315.6" y="742.0" type="qcurve" smooth="yes"/>
      <point x="315.6" y="679.6000000000001"/>
      <point x="238.40000000000003" y="598.4"/>
      <point x="167.2" y="598.4" type="qcurve" smooth="yes"/>
      <point x="95.99999999999999" y="598.4"/>
      <point x="19.39999999999999" y="682.4000000000001"/>
    </contour>
  </outline>
</glyph>
<glyph name="semicolon" format="2">
  <advance width="334"/>
  <unicode hex="003B"/>
  <outline>
    <contour>
      <point x="-11.000000000000007" y="-145.60000000000002" type="line"/>
      <point x="20.800000000000004" y="-98.0"/>
      <point x="56.80000000000001" y="3.4000000000000004"/>
      <point x="56.80000000000001" y="63.8" type="qcurve" smooth="yes"/>
      <point x="56.80000000000001" y="258.2" type="line"/>
      <point x="294.4" y="258.2" type="line"/>
      <point x="294.40000000000003" y="65.6" type="line" smooth="yes"/>
      <point x="295.40000000000003" y="-8.800000000000002"/>
      <point x="236.2" y="-141.00000000000003"/>
      <point x="195.6" y="-182.0" type="qcurve"/>
    </contour>
    <contour>
      <point x="19.400000000000006" y="742.6000000000001" type="qcurve" smooth="yes"/>
      <point x="19.400000000000006" y="802.8"/>
      <point x="95.99999999999999" y="884.5999999999999"/>
      <point x="167.8" y="884.5999999999999" type="qcurve" smooth="yes"/>
      <point x="238.4" y="884.5999999999999"/>
      <point x="315.5999999999999" y="802.8"/>
      <point x="315.5999999999999" y="742.0" type="qcurve" smooth="yes"/>
      <point x="315.5999999999999" y="679.6"/>
      <point x="238.40000000000003" y="598.4"/>
      <point x="167.2" y="598.4" type="qcurve" smooth="yes"/>
      <point x="96.00000000000001" y="598.4"/>
      <point x="19.400000000000006" y="682.4000000000001"/>
    </contour>
  </outline>
</glyph>
<glyph name="less" format="2">
  <advance width="503"/>
  <unicode hex="003C"/>
  <outline>
    <contour>
      <point x="478.80000000000007" y="183.8" type="line"/>
      <point x="18.60000000000001" y="566.4000000000001" type="line"/>
      <point x="18.60000000000001" y="781.6" type="line"/>
      <point x="478.80000000000007" y="1167.8" type="line"/>
      <point x="478.80000000000007" y="892.8000000000001" type="line"/>
      <point x="234.79999999999998" y="674.0" type="line"/>
      <point x="478.80000000000007" y="458.79999999999995" type="line"/>
    </contour>
  </outline>
</glyph>
<glyph name="equal" format="2">
  <advance width="598"/>
  <unicode hex="003D"/>
  <outline>
    <contour>
      <point x="12.000000000000014" y="393.0" type="line"/>
      <point x="12.000000000000014" y="633.0" type="line"/>
      <point x="585.1999999999999" y="633.0" type="line"/>
      <point x="585.1999999999999" y="393.0" type="line"/>
    </contour>
    <contour>
      <point x="12.000000000000014" y="720.0" type="line"/>
      <point x="12.000000000000014" y="960.0" type="line"/>
      <point x="585.1999999999999" y="960.0" type="line"/>
      <point x="585.1999999999999" y="720.0" type="line"/>
    </contour>
  </outline>
</glyph>
<glyph name="greater" format="2">
  <advance width="503"/>
  <unicode hex="003E"/>
  <outline>
    <contour>
      <point x="23.999999999999986" y="183.8" type="line"/>
      <point x="23.999999999999986" y="458.79999999999995" type="line"/>
      <point x="267.99999999999994" y="677.6" type="line"/>
      <point x="23.999999999999986" y="892.8" type="line"/>
      <point x="23.999999999999986" y="1167.8" type="line"/>
      <point x="484.19999999999993" y="785.1999999999999" type="line"/>
      <point x="484.19999999999993" y="569.9999999999999" type="line"/>
    </contour>
  </outline>
</glyph>
<glyph name="question" format="2">
  <advance width="666"/>
  <unicode hex="003F"/>
  <outline>
    <contour>
      <point x="156.59999999999997" y="131.8" type="qcurve" smooth="yes"/>
      <point x="156.59999999999997" y="193.79999999999998"/>
      <point x="239.20000000000005" y="280.4"/>
      <point x="317.59999999999997" y="280.4" type="qcurve" smooth="yes"/>
      <point x="394.8" y="280.4"/>
      <point x="478.0" y="193.79999999999998"/>
      <point x="478.0" y="131.8" type="qcurve" smooth="yes"/>
      <point x="478.0" y="69.39999999999999"/>
      <point x="395.40000000000003" y="-17.2"/>
      <point x="317.59999999999997" y="-17.2" type="qcurve" smooth="yes"/>
      <point x="241.0" y="-17.2"/>
      <point x="156.59999999999997" y="70.39999999999999"/>
    </contour>
    <contour>
      <point x="18.199999999999992" y="1010.5999999999999" type="line"/>
      <point x="18.199999999999992" y="1182.8" type="line" smooth="yes"/>
      <point x="18.199999999999992" y="1324.4"/>
      <point x="175.60000000000002" y="1470.0"/>
      <point x="326.3999999999999" y="1470.0" type="qcurve" smooth="yes"/>
      <point x="490.4" y="1470.0"/>
      <point x="659.7999999999998" y="1342.4"/>
      <point x="659.7999999999998" y="1187.6000000000001" type="qcurve" smooth="yes"/>
      <point x="659.7999999999998" y="1081.2"/>
      <point x="593.2" y="905.0"/>
      <point x="543.0" y="816.2" type="qcurve" smooth="yes"/>
      <point x="488.79999999999995" y="712.2"/>
      <point x="442.2" y="587.8"/>
      <point x="442.2" y="529.4" type="qcurve" smooth="yes"/>
      <point x="442.2" y="395.0" type="line"/>
      <point x="184.0" y="395.0" type="line"/>
      <point x="184.0" y="536.4" type="line" smooth="yes"/>
      <point x="184.6" y="629.6"/>
      <point x="239.79999999999995" y="781.0"/>
      <point x="305.0" y="892.0000000000001" type="qcurve" smooth="yes"/>
      <point x="350.4000000000001" y="971.8"/>
      <point x="379.20000000000005" y="1084.2"/>
      <point x="379.20000000000005" y="1150.8000000000002" type="qcurve" smooth="yes"/>
      <point x="379.20000000000005" y="1219.2"/>
      <point x="349.19999999999993" y="1266.8"/>
      <point x="318.0" y="1266.8" type="qcurve" smooth="yes"/>
      <point x="286.2" y="1266.8"/>
      <point x="254.79999999999998" y="1224.0"/>
      <point x="254.79999999999998" y="1156.8" type="qcurve" smooth="yes"/>
      <point x="254.79999999999998" y="1010.5999999999999" type="line"/>
    </contour>
  </outline>
</glyph>
<glyph name="at" format="2">
  <advance width="1237"/>
  <unicode hex="0040"/>
  <outline>
    <contour>
      <point x="323.2" y="471.0" type="qcurve" smooth="yes"/>
      <point x="328.0" y="721.8"/>
      <point x="509.9999999999999" y="1018.8"/>
      <point x="646.8" y="1018.8" type="qcurve" smooth="yes"/>
      <point x="698.0" y="1018.8"/>
      <point x="779.0" y="993.4000000000001"/>
      <point x="809.9999999999999" y="958.2" type="qcurve"/>
      <point x="958.0000000000001" y="958.2" type="line"/>
      <point x="897.0" y="410.8" type="line" smooth="yes"/>
      <point x="891.1999999999999" y="331.6"/>
      <point x="896.9999999999999" y="270.0"/>
      <point x="920.2" y="269.4" type="qcurve" smooth="yes"/>
      <point x="968.1999999999999" y="268.79999999999995"/>
      <point x="1005.8000000000002" y="482.6"/>
      <point x="1009.4000000000001" y="668.2" type="qcurve" smooth="yes"/>
      <point x="1014.2" y="925.0"/>
      <point x="847.2000000000002" y="1231.7999999999997"/>
      <point x="664.8000000000001" y="1231.7999999999997" type="qcurve" smooth="yes"/>
      <point x="479.79999999999995" y="1231.7999999999997"/>
      <point x="261.0" y="808.8"/>
      <point x="261.0" y="493.0000000000001" type="qcurve" smooth="yes"/>
      <point x="261.0" y="188.60000000000002"/>
      <point x="414.3999999999999" y="-91.59999999999997"/>
      <point x="582.6" y="-91.59999999999997" type="qcurve" smooth="yes"/>
      <point x="655.8" y="-91.59999999999997"/>
      <point x="762.2" y="-50.20000000000002"/>
      <point x="801.6" y="-19.399999999999977" type="qcurve"/>
      <point x="801.6" y="-221.2" type="line"/>
      <point x="764.0" y="-256.79999999999995"/>
      <point x="653.4" y="-292.4"/>
      <point x="582.6" y="-292.4" type="qcurve" smooth="yes"/>
      <point x="335.59999999999997" y="-292.4"/>
      <point x="26.0" y="102.2"/>
      <point x="26.0" y="511.6" type="qcurve" smooth="yes"/>
      <point x="26.0" y="898.0"/>
      <point x="391.99999999999994" y="1426.0"/>
      <point x="664.8000000000001" y="1426.0" type="qcurve" smooth="yes"/>
      <point x="931.0" y="1426.0"/>
      <point x="1218.0" y="1028.0"/>
      <point x="1213.2" y="686.2" type="qcurve" smooth="yes"/>
      <point x="1209.6" y="419.8"/>
      <point x="1053.8" y="105.0"/>
      <point x="904.2" y="105.0" type="qcurve" smooth="yes"/>
      <point x="818.4000000000001" y="105.0"/>
      <point x="721.2" y="168.4"/>
      <point x="697.0" y="230.20000000000002" type="qcurve"/>
      <point x="667.4" y="166.2"/>
      <point x="584.4000000000001" y="105.0"/>
      <point x="531.2" y="105.0" type="qcurve" smooth="yes"/>
      <point x="433.79999999999995" y="105.0"/>
      <point x="318.0" y="268.6"/>
    </contour>
    <contour>
      <point x="561.1999999999999" y="485.20000000000005" type="qcurve" smooth="yes"/>
      <point x="555.1999999999999" y="363.20000000000005"/>
      <point x="580.4000000000001" y="300.6"/>
      <point x="608.1999999999998" y="300.6" type="qcurve" smooth="yes"/>
      <point x="634.4" y="300.6"/>
      <point x="670.5999999999999" y="369.8"/>
      <point x="678.2" y="455.2000000000001" type="qcurve" smooth="yes"/>
      <point x="714.8000000000001" y="823.4000000000001" type="line"/>
      <point x="705.6000000000001" y="831.6"/>
      <point x="685.1999999999999" y="850.4000000000001"/>
      <point x="659.6" y="850.4000000000001" type="qcurve" smooth="yes"/>
      <point x="619.2" y="850.4000000000001"/>
      <point x="566.8" y="643.5999999999999"/>
    </contour>
  </outline>
</glyph>
<glyph name="A" format="2">
  <advance width="764"/>
  <unicode hex="0041"/>
  <anchor x="380.19999999999993" y="1432.0" name="top"/>
  <outline>
    <contour>
      <point x="-10.0" y="0.0" type="line"/>
      <point x="165.2" y="1455.6" type="line"/>
      <point x="608.2" y="1455.6" type="line"/>
      <point x="774.0" y="0.0" type="line"/>
      <point x="446.2" y="0.0" type="line"/>
      <point x="399.40000000000003" y="692.5999999999999" type="line" smooth="yes"/>
      <point x="396.99999999999994" y="733.4000000000001"/>
      <point x="384.40000000000003" y="917.5999999999999"/>
      <point x="382.40000000000003" y="937.9999999999999" type="qcurve"/>
      <point x="380.20000000000005" y="937.9999999999999" type="line"/>
      <point x="378.8" y="917.5999999999999"/>
      <point x="369.0" y="734.0"/>
      <point x="367.2" y="692.6" type="qcurve" smooth="yes"/>
      <point x="331.2" y="0.0" type="line"/>
    </contour>
    <contour>
      <point x="246.0" y="270.6" type="line"/>
      <point x="264.0" y="515.0" type="line"/>
      <point x="522.0" y="515.0" type="line"/>
      <point x="540.0000000000001" y="270.6" type="line"/>
    </contour>
  </outline>
</glyph>
<glyph name="B" format="2">
  <advance width="753"/>
  <unicode hex="0042"/>
  <outline>
    <contour>
      <point x="24.4" y="0.0" type="line"/>
      <point x="24.4" y="1456.0" type="line"/>
      <point x="403.79999999999995" y="1456.0" type="line" smooth="yes"/>
      <point x="542.0" y="1456.0"/>
      <point x="704.0" y="1275.7999999999997"/>
      <point x="704.6" y="1088.0" type="qcurve" smooth="yes"/>
      <point x="705.2" y="923.4"/>
      <point x="622.4" y="794.0"/>
      <point x="566.8000000000001" y="769.4" type="qcurve"/>
      <point x="566.8000000000001" y="768.0" type="line"/>
      <point x="631.4" y="748.5999999999999"/>
      <point x="744.3999999999999" y="602.0"/>
      <point x="744.3999999999999" y="423.2" type="qcurve" smooth="yes"/>
      <point x="744.3999999999999" y="199.6"/>
      <point x="551.4" y="0.0"/>
      <point x="393.40000000000003" y="0.0" type="qcurve" smooth="yes"/>
    </contour>
    <contour>
      <point x="343.6" y="264.4" type="line"/>
      <point x="364.8" y="264.4" type="line" smooth="yes"/>
      <point x="387.80000000000007" y="264.4"/>
      <point x="404.79999999999995" y="327.4"/>
      <point x="404.79999999999995" y="455.6" type="qcurve" smooth="yes"/>
      <point x="404.79999999999995" y="579.2"/>
      <point x="383.00000000000006" y="634.1999999999999"/>
      <point x="364.6" y="634.1999999999999" type="qcurve" smooth="yes"/>
      <point x="343.6" y="634.1999999999999" type="line"/>
    </contour>
    <contour>
      <point x="343.6" y="837.4000000000001" type="line"/>
      <point x="358.79999999999995" y="837.4000000000001" type="line" smooth="yes"/>
      <point x="382.0000000000001" y="837.4000000000001"/>
      <point x="402.0" y="886.0"/>
      <point x="401.59999999999997" y="1006.0" type="qcurve" smooth="yes"/>
      <point x="401.19999999999993" y="1133.8"/>
      <point x="384.80000000000007" y="1178.0"/>
      <point x="364.79999999999995" y="1178.0" type="qcurve" smooth="yes"/>
      <point x="343.6" y="1178.0" type="line"/>
    </contour>
  </outline>
</glyph>
<glyph name="C" format="2">
  <advance width="766"/>
  <unicode hex="0043"/>
  <anchor x="394.5999999999999" y="0" name="bottom"/>
  <outline>
    <contour>
      <point x="20.4" y="445.4" type="qcurve" smooth="yes"/>
      <point x="20.4" y="1009.8" type="line" smooth="yes"/>
      <point x="20.4" y="1242.8"/>
      <point x="209.59999999999997" y="1472.0"/>
      <point x="394.6" y="1472.0" type="qcurve" smooth="yes"/>
      <point x="569.5999999999999" y="1472.0"/>
      <point x="745.8" y="1279.4"/>
      <point x="745.8000000000001" y="1101.8000000000002" type="qcurve" smooth="yes"/>
      <point x="745.8000000000001" y="820.0" type="line"/>
      <point x="419.39999999999986" y="820.0" type="line"/>
      <point x="419.4" y="1140.4" type="line" smooth="yes"/>
      <point x="419.4000000000001" y="1170.0"/>
      <point x="408.3999999999999" y="1185.0"/>
      <point x="397.79999999999995" y="1185.0" type="qcurve" smooth="yes"/>
      <point x="385.6" y="1185.0"/>
      <point x="374.2" y="1162.3999999999999"/>
      <point x="374.2" y="1126.8000000000002" type="qcurve" smooth="yes"/>
      <point x="374.2" y="330.20000000000005" type="line" smooth="yes"/>
      <point x="374.2" y="284.2"/>
      <point x="383.0" y="260.6"/>
      <point x="397.4" y="260.6" type="qcurve" smooth="yes"/>
      <point x="412.2" y="260.6"/>
      <point x="420.59999999999997" y="283.2"/>
      <point x="420.59999999999997" y="318.0" type="qcurve" smooth="yes"/>
      <point x="420.59999999999985" y="624.0" type="line"/>
      <point x="746.8000000000001" y="624.0" type="line"/>
      <point x="746.8000000000001" y="394.0" type="line" smooth="yes"/>
      <point x="746.8000000000001" y="193.39999999999998"/>
      <point x="565.1999999999999" y="-15.399999999999999"/>
      <point x="394.6" y="-15.399999999999999" type="qcurve" smooth="yes"/>
      <point x="219.39999999999998" y="-15.399999999999999"/>
      <point x="20.4" y="203.8"/>
    </contour>
  </outline>
</glyph>
<glyph name="D" format="2">
  <advance width="769"/>
  <unicode hex="0044"/>
  <outline>
    <contour>
      <point x="24.4" y="0.0" type="line"/>
      <point x="24.4" y="1456.0" type="line"/>
      <point x="420.80000000000007" y="1456.0" type="line" smooth="yes"/>
      <point x="590.4000000000001" y="1456.0"/>
      <point x="747.6" y="1203.4"/>
      <point x="747.6" y="968.0" type="qcurve" smooth="yes"/>
      <point x="747.6" y="466.4" type="line" smooth="yes"/>
      <point x="747.6" y="242.2"/>
      <point x="551.2" y="0.0"/>
      <point x="399.80000000000007" y="0.0" type="qcurve" smooth="yes"/>
    </contour>
    <contour>
      <point x="345.6" y="266.0" type="line"/>
      <point x="361.4" y="266.0" type="line" smooth="yes"/>
      <point x="382.4" y="266.0"/>
      <point x="399.79999999999995" y="305.2"/>
      <point x="399.79999999999995" y="348.20000000000005" type="qcurve" smooth="yes"/>
      <point x="399.79999999999995" y="1092.6000000000001" type="line" smooth="yes"/>
      <point x="399.79999999999995" y="1139.2"/>
      <point x="380.19999999999993" y="1171.4"/>
      <point x="362.59999999999997" y="1171.4" type="qcurve" smooth="yes"/>
      <point x="345.6" y="1171.4" type="line"/>
    </contour>
  </outline>
</glyph>
<glyph name="E" format="2">
  <advance width="592"/>
  <unicode hex="0045"/>
  <anchor x="317.19999999999993" y="1432.0" name="top"/>
  <outline>
    <contour>
      <point x="24.4" y="0.0" type="line"/>
      <point x="24.4" y="1456.0" type="line"/>
      <point x="578.4000000000001" y="1456.0" type="line"/>
      <point x="578.4000000000001" y="1137.2" type="line"/>
      <point x="339.6" y="1137.2" type="line"/>
      <point x="339.6" y="900.0000000000001" type="line"/>
      <point x="556.8" y="900.0000000000001" type="line"/>
      <point x="556.8" y="580.4000000000001" type="line"/>
      <point x="339.6" y="580.4000000000001" type="line"/>
      <point x="339.6" y="318.8" type="line"/>
      <point x="586.9999999999999" y="318.8" type="line"/>
      <point x="586.9999999999999" y="0.0" type="line"/>
    </contour>
  </outline>
</glyph>
<glyph name="F" format="2">
  <advance width="533"/>
  <unicode hex="0046"/>
  <outline>
    <contour>
      <point x="24.4" y="0.0" type="line"/>
      <point x="24.4" y="1456.0" type="line"/>
      <point x="530.6" y="1456.0" type="line"/>
      <point x="530.6" y="1137.8000000000002" type="line"/>
      <point x="357.6" y="1137.8000000000002" type="line"/>
      <point x="357.6" y="887.6" type="line"/>
      <point x="513.8" y="887.6" type="line"/>
      <point x="513.8" y="567.4" type="line"/>
      <point x="357.6" y="567.4" type="line"/>
      <point x="357.6" y="0.0" type="line"/>
    </contour>
  </outline>
</glyph>
<glyph name="G" format="2">
  <advance width="774"/>
  <unicode hex="0047"/>
  <outline>
    <contour>
      <point x="20.400000000000006" y="449.2" type="qcurve" smooth="yes"/>
      <point x="20.400000000000006" y="1009.4" type="line" smooth="yes"/>
      <point x="20.400000000000006" y="1255.4"/>
      <point x="207.4" y="1477.4"/>
      <point x="397.4000000000001" y="1477.4" type="qcurve" smooth="yes"/>
      <point x="578.1999999999999" y="1477.4"/>
      <point x="756.9999999999998" y="1282.1999999999998"/>
      <point x="757.0" y="1093.9999999999998" type="qcurve" smooth="yes"/>
      <point x="757.0" y="936.0" type="line"/>
      <point x="422.4" y="936.0" type="line"/>
      <point x="422.4" y="1126.0000000000002" type="line" smooth="yes"/>
      <point x="416.99999999999994" y="1169.6"/>
      <point x="410.2" y="1191.6"/>
      <point x="395.20000000000005" y="1191.6" type="qcurve" smooth="yes"/>
      <point x="383.79999999999995" y="1191.6"/>
      <point x="368.99999999999994" y="1171.6000000000001"/>
      <point x="368.99999999999994" y="1124.2" type="qcurve" smooth="yes"/>
      <point x="368.99999999999994" y="308.4" type="line" smooth="yes"/>
      <point x="368.99999999999994" y="266.99999999999994"/>
      <point x="380.0" y="241.79999999999998"/>
      <point x="399.19999999999993" y="241.79999999999998" type="qcurve" smooth="yes"/>
      <point x="416.19999999999993" y="241.79999999999998"/>
      <point x="425.0" y="252.2"/>
      <point x="427.7999999999999" y="270.2" type="qcurve"/>
      <point x="427.7999999999999" y="550.8000000000001" type="line"/>
      <point x="389.4000000000001" y="550.8000000000001" type="line"/>
      <point x="389.4000000000001" y="802.8" type="line"/>
      <point x="760.8" y="804.0" type="line"/>
      <point x="760.8" y="165.6" type="line"/>
      <point x="731.0" y="110.8"/>
      <point x="546.8" y="-20.799999999999997"/>
      <point x="398.0" y="-20.799999999999997" type="qcurve" smooth="yes"/>
      <point x="220.60000000000002" y="-20.799999999999997"/>
      <point x="20.400000000000006" y="202.79999999999995"/>
    </contour>
  </outline>
</glyph>
<glyph name="H" format="2">
  <advance width="775"/>
  <unicode hex="0048"/>
  <outline>
    <contour>
      <point x="24.4" y="0.0" type="line"/>
      <point x="24.4" y="1456.0" type="line"/>
      <point x="357.6" y="1456.0" type="line"/>
      <point x="357.6" y="922.2" type="line"/>
      <point x="417.1999999999999" y="922.2" type="line"/>
      <point x="417.1999999999999" y="1456.0" type="line"/>
      <point x="750.4" y="1456.0" type="line"/>
      <point x="750.4" y="0.0" type="line"/>
      <point x="417.1999999999999" y="0.0" type="line"/>
      <point x="417.1999999999999" y="582.4" type="line"/>
      <point x="357.6" y="582.4" type="line"/>
      <point x="357.6" y="0.0" type="line"/>
    </contour>
  </outline>
</glyph>
<glyph name="I" format="2">
  <advance width="390"/>
  <unicode hex="0049"/>
  <anchor x="200.79999999999998" y="1432.0" name="top"/>
  <outline>
    <contour>
      <point x="25.200000000000003" y="0.0" type="line"/>
      <point x="25.200000000000003" y="1456.0" type="line"/>
      <point x="365.2" y="1456.0" type="line"/>
      <point x="365.2" y="0.0" type="line"/>
    </contour>
  </outline>
</glyph>
<glyph name="J" format="2">
  <advance width="727"/>
  <unicode hex="004A"/>
  <outline>
    <contour>
      <point x="2.4" y="351.2" type="qcurve" smooth="yes"/>
      <point x="2.4" y="515.0" type="line"/>
      <point x="318.59999999999997" y="515.0" type="line"/>
      <point x="318.59999999999997" y="325.8" type="line" smooth="yes"/>
      <point x="314.4" y="283.6"/>
      <point x="330.8" y="255.60000000000002"/>
      <point x="345.0" y="255.60000000000002" type="qcurve" smooth="yes"/>
      <point x="359.4" y="255.60000000000002"/>
      <point x="370.4" y="280.4"/>
      <point x="370.4" y="330.59999999999997" type="qcurve" smooth="yes"/>
      <point x="370.4" y="1456.0" type="line"/>
      <point x="705.4" y="1456.0" type="line"/>
      <point x="705.4" y="398.2" type="line" smooth="yes"/>
      <point x="705.4" y="171.0"/>
      <point x="517.4" y="-18.0"/>
      <point x="341.40000000000003" y="-18.0" type="qcurve" smooth="yes"/>
      <point x="166.60000000000002" y="-18.0"/>
      <point x="2.4" y="182.4"/>
    </contour>
  </outline>
</glyph>
<glyph name="K" format="2">
  <advance width="797"/>
  <unicode hex="004B"/>
  <outline>
    <contour>
      <point x="24.4" y="0.0" type="line"/>
      <point x="24.4" y="1456.0" type="line"/>
      <point x="357.6" y="1456.0" type="line"/>
      <point x="357.6" y="1065.8" type="line"/>
      <point x="456.4" y="1456.0" type="line"/>
      <point x="791.0" y="1456.0" type="line"/>
      <point x="357.6" y="358.0" type="line"/>
      <point x="357.6" y="0.0" type="line"/>
    </contour>
    <contour>
      <point x="443.6" y="0.0" type="line"/>
      <point x="323.6" y="605.3999999999999" type="line"/>
      <point x="536.9999999999999" y="1098.8" type="line"/>
      <point x="808.4" y="0.0" type="line"/>
    </contour>
  </outline>
</glyph>
<glyph name="L" format="2">
  <advance width="574"/>
  <unicode hex="004C"/>
  <outline>
    <contour>
      <point x="24.4" y="0.0" type="line"/>
      <point x="24.4" y="1456.0" type="line"/>
      <point x="358.4" y="1456.0" type="line"/>
      <point x="358.4" y="318.8" type="line"/>
      <point x="568.3999999999999" y="318.8" type="line"/>
      <point x="568.3999999999999" y="0.0" type="line"/>
    </contour>
  </outline>
</glyph>
<glyph name="M" format="2">
  <advance width="1152"/>
  <unicode hex="004D"/>
  <outline>
    <contour>
      <point x="22.0" y="0.0" type="line"/>
      <point x="82.0" y="1456.0" type="line"/>
      <point x="489.4" y="1456.0" type="line"/>
      <point x="571.0" y="687.6" type="line" smooth="yes"/>
      <point x="572.0" y="680.1999999999999"/>
      <point x="576.4" y="644.8"/>
      <point x="576.4" y="641.6" type="qcurve"/>
      <point x="577.0" y="641.6" type="line"/>
      <point x="577.0" y="644.8"/>
      <point x="580.8" y="680.1999999999999"/>
      <point x="581.8" y="687.6" type="qcurve" smooth="yes"/>
      <point x="657.5999999999999" y="1456.0" type="line"/>
      <point x="1070.0" y="1456.0" type="line"/>
      <point x="1130.0" y="0.0" type="line"/>
      <point x="797.4" y="0.0" type="line"/>
      <point x="789.0" y="652.6" type="line" smooth="yes"/>
      <point x="789.0" y="661.2"/>
      <point x="784.8000000000001" y="816.0"/>
      <point x="784.8000000000001" y="832.0" type="qcurve"/>
      <point x="784.1999999999998" y="832.0" type="line"/>
      <point x="782.3999999999999" y="816.0"/>
      <point x="774.3999999999999" y="661.0"/>
      <point x="774.0" y="653.2" type="qcurve" smooth="yes"/>
      <point x="737.2" y="0.0" type="line"/>
      <point x="421.2" y="0.0" type="line"/>
      <point x="386.6" y="657.6" type="line" smooth="yes"/>
      <point x="386.2" y="666.0"/>
      <point x="378.99999999999994" y="820.8"/>
      <point x="378.20000000000005" y="828.4" type="qcurve"/>
      <point x="377.59999999999997" y="828.4" type="line"/>
      <point x="377.6" y="820.4"/>
      <point x="371.0" y="666.2"/>
      <point x="371.0" y="657.2" type="qcurve" smooth="yes"/>
      <point x="361.4" y="0.0" type="line"/>
    </contour>
  </outline>
</glyph>
<glyph name="N" format="2">
  <advance width="769"/>
  <unicode hex="004E"/>
  <anchor x="382.6" y="1432.0" name="top"/>
  <outline>
    <contour>
      <point x="24.4" y="0.0" type="line"/>
      <point x="24.4" y="1456.0" type="line"/>
      <point x="316.8" y="1456.0" type="line"/>
      <point x="393.0" y="949.6" type="line" smooth="yes"/>
      <point x="395.19999999999993" y="937.0000000000001"/>
      <point x="413.6000000000001" y="839.8000000000001"/>
      <point x="417.0000000000001" y="820.2" type="qcurve"/>
      <point x="418.80000000000007" y="820.2" type="line"/>
      <point x="418.19999999999993" y="838.6"/>
      <point x="418.80000000000007" y="938.6"/>
      <point x="418.80000000000007" y="950.4" type="qcurve" smooth="yes"/>
      <point x="418.80000000000007" y="1456.0" type="line"/>
      <point x="745.0" y="1456.0" type="line"/>
      <point x="745.0" y="0.0" type="line"/>
      <point x="464.2" y="0.0" type="line"/>
      <point x="378.8" y="511.20000000000005" type="line" smooth="yes"/>
      <point x="376.59999999999997" y="521.4000000000001"/>
      <point x="353.59999999999997" y="628.2"/>
      <point x="349.8" y="647.4" type="qcurve"/>
      <point x="349.2" y="647.4" type="line"/>
      <point x="349.20000000000005" y="629.4000000000001"/>
      <point x="350.0" y="521.0000000000001"/>
      <point x="350.0" y="510.80000000000007" type="qcurve" smooth="yes"/>
      <point x="350.0" y="0.0" type="line"/>
    </contour>
  </outline>
</glyph>
<glyph name="O" format="2">
  <advance width="799"/>
  <unicode hex="004F"/>
  <anchor x="396.2" y="1432.0" name="top"/>
  <outline>
    <contour>
      <point x="20.400000000000006" y="458.8" type="qcurve" smooth="yes"/>
      <point x="20.400000000000006" y="1020.2" type="line" smooth="yes"/>
      <point x="20.400000000000006" y="1252.4"/>
      <point x="217.0" y="1473.2"/>
      <point x="397.6" y="1473.2" type="qcurve" smooth="yes"/>
      <point x="583.7999999999998" y="1473.2"/>
      <point x="778.4000000000001" y="1253.0"/>
      <point x="778.4000000000001" y="1020.8" type="qcurve" smooth="yes"/>
      <point x="778.4000000000001" y="458.8" type="line" smooth="yes"/>
      <point x="778.4000000000001" y="227.0"/>
      <point x="579.5999999999999" y="-16.6"/>
      <point x="398.2" y="-16.6" type="qcurve" smooth="yes"/>
      <point x="219.60000000000002" y="-16.6"/>
      <point x="20.400000000000006" y="226.0"/>
    </contour>
    <contour>
      <point x="371.2" y="337.2" type="line" smooth="yes"/>
      <point x="371.2" y="285.6"/>
      <point x="384.4" y="260.59999999999997"/>
      <point x="398.79999999999995" y="260.59999999999997" type="qcurve" smooth="yes"/>
      <point x="412.4" y="260.59999999999997"/>
      <point x="428.1999999999999" y="285.8"/>
      <point x="428.1999999999999" y="337.2" type="qcurve" smooth="yes"/>
      <point x="428.1999999999999" y="1118.3999999999999" type="line" smooth="yes"/>
      <point x="428.1999999999999" y="1160.8"/>
      <point x="414.4" y="1186.2"/>
      <point x="399.4" y="1186.2" type="qcurve" smooth="yes"/>
      <point x="384.4" y="1186.2"/>
      <point x="371.2" y="1160.8"/>
      <point x="371.2" y="1118.3999999999999" type="qcurve" smooth="yes"/>
    </contour>
  </outline>
</glyph>
<glyph name="P" format="2">
  <advance width="753"/>
  <unicode hex="0050"/>
  <outline>
    <contour>
      <point x="24.4" y="0.0" type="line"/>
      <point x="24.4" y="1456.0" type="line"/>
      <point x="430.6" y="1456.0" type="line" smooth="yes"/>
      <point x="585.8" y="1456.0"/>
      <point x="745.8" y="1218.0000000000002"/>
      <point x="745.8" y="939.4" type="qcurve" smooth="yes"/>
      <point x="745.8" y="660.8000000000001"/>
      <point x="569.2" y="426.2000000000001"/>
      <point x="415.4" y="426.2000000000001" type="qcurve" smooth="yes"/>
      <point x="358.4" y="426.2000000000001" type="line"/>
      <point x="358.4" y="0.0" type="line"/>
    </contour>
    <contour>
      <point x="358.4" y="694.4000000000001" type="line"/>
      <point x="377.0" y="694.4000000000001" type="line" smooth="yes"/>
      <point x="396.79999999999995" y="694.4000000000001"/>
      <point x="415.20000000000005" y="742.8000000000001"/>
      <point x="415.20000000000005" y="930.6" type="qcurve" smooth="yes"/>
      <point x="415.20000000000005" y="1103.4"/>
      <point x="399.2" y="1167.3999999999999"/>
      <point x="376.4" y="1167.3999999999999" type="qcurve" smooth="yes"/>
      <point x="358.4" y="1167.3999999999999" type="line"/>
    </contour>
  </outline>
</glyph>
<glyph name="Q" format="2">
  <advance width="801"/>
  <unicode hex="0051"/>
  <outline>
    <contour>
      <point x="20.400000000000006" y="456.4" type="qcurve" smooth="yes"/>
      <point x="20.400000000000006" y="1026.2" type="line" smooth="yes"/>
      <point x="20.400000000000006" y="1264.4"/>
      <point x="216.99999999999994" y="1478.0"/>
      <point x="397.6" y="1478.0" type="qcurve" smooth="yes"/>
      <point x="583.8000000000001" y="1478.0"/>
      <point x="778.4000000000001" y="1265.0"/>
      <point x="778.4000000000001" y="1026.8" type="qcurve" smooth="yes"/>
      <point x="778.4000000000001" y="456.4" type="line" smooth="yes"/>
      <point x="778.4000000000001" y="218.6"/>
      <point x="579.6000000000001" y="-11.8"/>
      <point x="398.2" y="-11.8" type="qcurve" smooth="yes"/>
      <point x="219.59999999999997" y="-11.8"/>
      <point x="20.400000000000006" y="217.6"/>
    </contour>
    <contour>
      <point x="371.2" y="342.0" type="line" smooth="yes"/>
      <point x="371.2" y="290.4"/>
      <point x="384.4" y="265.4"/>
      <point x="398.79999999999995" y="265.4" type="qcurve" smooth="yes"/>
      <point x="412.4" y="265.4"/>
      <point x="428.2000000000001" y="290.59999999999997"/>
      <point x="428.2000000000001" y="342.0" type="qcurve" smooth="yes"/>
      <point x="428.2000000000001" y="1123.1999999999998" type="line" smooth="yes"/>
      <point x="428.2000000000001" y="1165.6000000000001"/>
      <point x="414.4" y="1191.0"/>
      <point x="399.4" y="1191.0" type="qcurve" smooth="yes"/>
      <point x="384.4" y="1191.0"/>
      <point x="371.2" y="1165.6000000000001"/>
      <point x="371.2" y="1123.1999999999998" type="qcurve" smooth="yes"/>
    </contour>
    <contour>
      <point x="585.1999999999998" y="-134.0" type="line"/>
      <point x="378.4" y="73.2" type="line"/>
      <point x="567.2" y="280.00000000000006" type="line"/>
      <point x="778.0" y="72.80000000000001" type="line"/>
    </contour>
  </outline>
</glyph>
<glyph name="R" format="2">
  <advance width="780"/>
  <unicode hex="0052"/>
  <outline>
    <contour>
      <point x="24.4" y="0.0" type="line"/>
      <point x="24.4" y="1456.0" type="line"/>
      <point x="453.0" y="1456.0" type="line" smooth="yes"/>
      <point x="587.0" y="1456.0"/>
      <point x="751.2" y="1265.6000000000001"/>
      <point x="751.2" y="988.8000000000001" type="qcurve" smooth="yes"/>
      <point x="751.2" y="719.2"/>
      <point x="568.8" y="498.59999999999997"/>
      <point x="445.8" y="498.59999999999997" type="qcurve" smooth="yes"/>
      <point x="357.6" y="498.59999999999997" type="line"/>
      <point x="357.6" y="0.0" type="line"/>
    </contour>
    <contour>
      <point x="357.6" y="756.0" type="line"/>
      <point x="374.4" y="756.0" type="line" smooth="yes"/>
      <point x="396.0" y="756.0"/>
      <point x="410.80000000000007" y="827.0"/>
      <point x="410.80000000000007" y="963.1999999999999" type="qcurve" smooth="yes"/>
      <point x="410.80000000000007" y="1119.6000000000001"/>
      <point x="395.19999999999993" y="1173.9999999999998"/>
      <point x="374.19999999999993" y="1173.9999999999998" type="qcurve" smooth="yes"/>
      <point x="357.6" y="1173.9999999999998" type="line"/>
    </contour>
    <contour>
      <point x="448.2" y="0.0" type="line"/>
      <point x="357.2" y="647.8" type="line"/>
      <point x="655.8" y="647.8" type="line"/>
      <point x="796.4" y="0.0" type="line"/>
    </contour>
  </outline>
</glyph>
<glyph name="S" format="2">
  <advance width="742"/>
  <unicode hex="0053"/>
  <outline>
    <contour>
      <point x="7.6000000000000085" y="335.2" type="qcurve" smooth="yes"/>
      <point x="7.6000000000000085" y="498.2" type="line"/>
      <point x="325.59999999999997" y="498.2" type="line"/>
      <point x="325.59999999999997" y="341.0" type="line" smooth="yes"/>
      <point x="325.19999999999993" y="283.8"/>
      <point x="342.4" y="249.19999999999996"/>
      <point x="362.20000000000005" y="249.19999999999996" type="qcurve" smooth="yes"/>
      <point x="380.6" y="249.19999999999996"/>
      <point x="398.8" y="290.00000000000006"/>
      <point x="398.8" y="374.6" type="qcurve" smooth="yes"/>
      <point x="398.8" y="467.8"/>
      <point x="363.0" y="561.1999999999999"/>
      <point x="273.6" y="642.9999999999999" type="qcurve" smooth="yes"/>
      <point x="146.40000000000003" y="747.0"/>
      <point x="11.20000000000001" y="940.8"/>
      <point x="11.20000000000001" y="1102.6000000000001" type="qcurve" smooth="yes"/>
      <point x="11.20000000000001" y="1299.8"/>
      <point x="205.60000000000002" y="1472.3999999999999"/>
      <point x="377.59999999999997" y="1472.3999999999999" type="qcurve" smooth="yes"/>
      <point x="549.6" y="1472.3999999999999"/>
      <point x="710.8" y="1301.0"/>
      <point x="710.8" y="1150.6" type="qcurve" smooth="yes"/>
      <point x="710.8" y="996.8" type="line"/>
      <point x="411.6" y="996.8" type="line"/>
      <point x="411.6" y="1129.8" type="line" smooth="yes"/>
      <point x="411.6" y="1167.6000000000001"/>
      <point x="401.0" y="1194.0"/>
      <point x="385.4" y="1194.0" type="qcurve" smooth="yes"/>
      <point x="369.6" y="1194.0"/>
      <point x="357.2" y="1168.2"/>
      <point x="357.2" y="1096.4" type="qcurve" smooth="yes"/>
      <point x="357.2" y="1038.8"/>
      <point x="393.99999999999994" y="960.0000000000001"/>
      <point x="464.4" y="897.4" type="qcurve" smooth="yes"/>
      <point x="597.8000000000001" y="797.8"/>
      <point x="734.0" y="598.0"/>
      <point x="734.0" y="398.20000000000005" type="qcurve" smooth="yes"/>
      <point x="734.0" y="187.0"/>
      <point x="560.5999999999999" y="-14.8"/>
      <point x="378.40000000000003" y="-15.399999999999999" type="qcurve" smooth="yes"/>
      <point x="196.2" y="-16.0"/>
      <point x="7.6000000000000085" y="162.8"/>
    </contour>
  </outline>
</glyph>
<glyph name="T" format="2">
  <advance width="654"/>
  <unicode hex="0054"/>
  <outline>
    <contour>
      <point x="3.799999999999999" y="1137.2" type="line"/>
      <point x="3.799999999999999" y="1456.0" type="line"/>
      <point x="649.8000000000001" y="1456.0" type="line"/>
      <point x="649.8000000000001" y="1137.2" type="line"/>
      <point x="497.40000000000003" y="1137.2" type="line"/>
      <point x="497.40000000000003" y="0.0" type="line"/>
      <point x="158.2" y="0.0" type="line"/>
      <point x="158.2" y="1137.2" type="line"/>
    </contour>
  </outline>
</glyph>
<glyph name="U" format="2">
  <advance width="763"/>
  <unicode hex="0055"/>
  <anchor x="382.2" y="1432.0" name="top"/>
  <outline>
    <contour>
      <point x="21.6" y="369.2" type="qcurve" smooth="yes"/>
      <point x="21.6" y="1456.0" type="line"/>
      <point x="353.6" y="1456.0" type="line"/>
      <point x="354.4" y="345.19999999999993" type="line" smooth="yes"/>
      <point x="353.2" y="300.80000000000007"/>
      <point x="362.59999999999997" y="268.8"/>
      <point x="378.8" y="268.8" type="qcurve" smooth="yes"/>
      <point x="399.2" y="268.8"/>
      <point x="411.79999999999995" y="300.79999999999995"/>
      <point x="411.79999999999995" y="345.19999999999993" type="qcurve" smooth="yes"/>
      <point x="410.99999999999994" y="1456.0" type="line"/>
      <point x="741.0000000000001" y="1456.0" type="line"/>
      <point x="741.0000000000001" y="369.2" type="line" smooth="yes"/>
      <point x="740.9999999999999" y="165.6"/>
      <point x="535.1999999999999" y="-18.6"/>
      <point x="380.6" y="-18.6" type="qcurve" smooth="yes"/>
      <point x="222.0" y="-18.6"/>
      <point x="21.6" y="162.6"/>
    </contour>
  </outline>
</glyph>
<glyph name="V" format="2">
  <advance width="759"/>
  <unicode hex="0056"/>
  <outline>
    <contour>
      <point x="-2.0" y="1456.0" type="line"/>
      <point x="338.6" y="1456.0" type="line"/>
      <point x="378.0000000000001" y="513.4000000000001" type="line" smooth="yes"/>
      <point x="378.6000000000001" y="497.6000000000001"/>
      <point x="380.4000000000001" y="460.20000000000005"/>
      <point x="381.6" y="431.79999999999995" type="qcurve"/>
      <point x="382.8" y="431.79999999999995" type="line"/>
      <point x="383.40000000000003" y="460.2"/>
      <point x="384.5999999999999" y="497.59999999999997"/>
      <point x="385.20000000000005" y="513.4000000000001" type="qcurve" smooth="yes"/>
      <point x="431.4" y="1456.0" type="line"/>
      <point x="760.6" y="1456.0" type="line"/>
      <point x="587.1999999999999" y="-3.6000000000000005" type="line"/>
      <point x="175.39999999999998" y="-3.6000000000000005" type="line"/>
    </contour>
  </outline>
</glyph>
<glyph name="W" format="2">
  <advance width="1205"/>
  <unicode hex="0057"/>
  <outline>
    <contour>
      <point x="179.0" y="-3.6000000000000005" type="line"/>
      <point x="3.3999999999999986" y="1456.0" type="line"/>
      <point x="353.2" y="1456.0" type="line"/>
      <point x="394.0" y="655.8" type="line" smooth="yes"/>
      <point x="394.59999999999997" y="642.6"/>
      <point x="400.20000000000005" y="572.4000000000001"/>
      <point x="400.2" y="560.8000000000001" type="qcurve"/>
      <point x="401.40000000000003" y="560.8000000000001" type="line"/>
      <point x="402.6" y="572.4"/>
      <point x="405.19999999999993" y="642.4000000000001"/>
      <point x="405.79999999999995" y="655.1999999999999" type="qcurve" smooth="yes"/>
      <point x="459.19999999999993" y="1456.0" type="line"/>
      <point x="749.2" y="1456.0" type="line"/>
      <point x="797.0" y="656.4" type="line" smooth="yes"/>
      <point x="796.9999999999999" y="649.2"/>
      <point x="803.0" y="565.6"/>
      <point x="803.0" y="561.1999999999999" type="qcurve"/>
      <point x="803.5999999999999" y="561.1999999999999" type="line"/>
      <point x="803.6" y="565.6"/>
      <point x="807.4" y="649.0"/>
      <point x="808.0" y="656.4" type="qcurve" smooth="yes"/>
      <point x="852.8" y="1456.0" type="line"/>
      <point x="1201.2" y="1456.0" type="line"/>
      <point x="1037.2" y="-3.6000000000000005" type="line"/>
      <point x="680.2" y="-3.6000000000000005" type="line"/>
      <point x="609.8" y="816.0000000000002" type="line" smooth="yes"/>
      <point x="609.2" y="821.1999999999999"/>
      <point x="602.8" y="899.2"/>
      <point x="602.8" y="902.4" type="qcurve"/>
      <point x="602.2" y="902.4" type="line"/>
      <point x="602.1999999999999" y="899.2"/>
      <point x="596.4" y="821.7999999999998"/>
      <point x="595.8" y="816.0000000000002" type="qcurve" smooth="yes"/>
      <point x="536.8" y="-3.6000000000000005" type="line"/>
    </contour>
  </outline>
</glyph>
<glyph name="X" format="2">
  <advance width="781"/>
  <unicode hex="0058"/>
  <outline>
    <contour>
      <point x="-17.999999999999996" y="0.0" type="line"/>
      <point x="287.2" y="921.0" type="line"/>
      <point x="343.6" y="921.0" type="line"/>
      <point x="490.2" y="1456.0" type="line"/>
      <point x="794.8" y="1456.0" type="line"/>
      <point x="504.5999999999999" y="571.0" type="line"/>
      <point x="447.59999999999997" y="571.0" type="line"/>
      <point x="304.0" y="0.0" type="line"/>
    </contour>
    <contour>
      <point x="0.8000000000000016" y="1456.0" type="line"/>
      <point x="340.8" y="1456.0" type="line"/>
      <point x="497.79999999999995" y="898.2" type="line"/>
      <point x="537.9999999999999" y="899.4000000000001" type="line"/>
      <point x="785.0" y="-0.6" type="line"/>
      <point x="445.0" y="-0.6" type="line"/>
      <point x="297.19999999999993" y="615.3999999999999" type="line"/>
      <point x="261.8" y="615.8" type="line"/>
    </contour>
  </outline>
</glyph>
<glyph name="Y" format="2">
  <advance width="770"/>
  <unicode hex="0059"/>
  <anchor x="387.3999999999999" y="1432.0" name="top"/>
  <outline>
    <contour>
      <point x="210.8" y="0.0" type="line"/>
      <point x="210.8" y="499.0" type="line"/>
      <point x="-18.2" y="1456.0" type="line"/>
      <point x="330.4" y="1456.0" type="line"/>
      <point x="395.6" y="916.1999999999999" type="line" smooth="yes"/>
      <point x="397.20000000000005" y="902.1999999999999"/>
      <point x="401.20000000000005" y="849.9999999999998"/>
      <point x="401.2" y="841.4" type="qcurve"/>
      <point x="401.80000000000007" y="841.4" type="line"/>
      <point x="401.8" y="849.9999999999998"/>
      <point x="405.0000000000001" y="902.3999999999999"/>
      <point x="406.5999999999999" y="915.1999999999999" type="qcurve" smooth="yes"/>
      <point x="468.6000000000001" y="1456.0" type="line"/>
      <point x="787.8" y="1456.0" type="line"/>
      <point x="550.8" y="499.0" type="line"/>
      <point x="550.8" y="0.0" type="line"/>
    </contour>
  </outline>
</glyph>
<glyph name="Z" format="2">
  <advance width="660"/>
  <unicode hex="005A"/>
  <outline>
    <contour>
      <point x="4.800000000000001" y="0.0" type="line"/>
      <point x="4.800000000000001" y="214.0" type="line"/>
      <point x="244.8" y="1138.0" type="line"/>
      <point x="17.799999999999994" y="1138.0" type="line"/>
      <point x="17.799999999999994" y="1456.0" type="line"/>
      <point x="648.8" y="1456.0" type="line"/>
      <point x="648.8" y="1230.0" type="line"/>
      <point x="404.8" y="306.0" type="line"/>
      <point x="656.0000000000001" y="306.0" type="line"/>
      <point x="656.0000000000001" y="0.0" type="line"/>
    </contour>
  </outline>
</glyph>
<glyph name="bracketleft" format="2">
  <advance width="482"/>
  <unicode hex="005B"/>
  <outline>
    <contour>
      <point x="78.8" y="-310.0" type="line"/>
      <point x="78.8" y="1456.0" type="line"/>
      <point x="469.80000000000007" y="1456.0" type="line"/>
      <point x="469.80000000000007" y="1261.2" type="line"/>
      <point x="331.6" y="1261.2" type="line"/>
      <point x="331.6" y="-115.2" type="line"/>
      <point x="469.80000000000007" y="-115.2" type="line"/>
      <point x="469.80000000000007" y="-310.0" type="line"/>
    </contour>
  </outline>
</glyph>
<glyph name="backslash" format="2">
  <advance width="501"/>
  <unicode hex="005C"/>
  <outline>
    <contour>
      <point x="-12.800000000000004" y="1456.0" type="line"/>
      <point x="224.2" y="1456.0" type="line"/>
      <point x="513.6" y="-62.0" type="line"/>
      <point x="277.6" y="-62.0" type="line"/>
    </contour>
  </outline>
</glyph>
<glyph name="bracketright" format="2">
  <advance width="482"/>
  <unicode hex="005D"/>
  <outline>
    <contour>
      <point x="402.99999999999994" y="-310.0" type="line"/>
      <point x="12.000000000000004" y="-310.0" type="line"/>
      <point x="12.000000000000004" y="-115.2" type="line"/>
      <point x="150.20000000000005" y="-115.2" type="line"/>
      <point x="150.20000000000005" y="1261.2" type="line"/>
      <point x="12.000000000000004" y="1261.2" type="line"/>
      <point x="12.000000000000004" y="1456.0" type="line"/>
      <point x="402.99999999999994" y="1456.0" type="line"/>
    </contour>
  </outline>
</glyph>
<glyph name="asciicircum" format="2">
  <advance width="660"/>
  <unicode hex="005E"/>
  <outline>
    <contour>
      <point x="11.799999999999999" y="805.8" type="line"/>
      <point x="225.00000000000003" y="1442.2" type="line"/>
      <point x="435.19999999999993" y="1442.2" type="line"/>
      <point x="648.3999999999999" y="805.8" type="line"/>
      <point x="432.79999999999995" y="805.8" type="line"/>
      <point x="329.59999999999997" y="1175.1999999999998" type="line"/>
      <point x="228.00000000000003" y="805.8" type="line"/>
    </contour>
  </outline>
</glyph>
<glyph name="underscore" format="2">
  <advance width="562"/>
  <unicode hex="005F"/>
  <outline>
    <contour>
      <point x="0.0" y="-332.79999999999995" type="line"/>
      <point x="0.0" y="-131.6" type="line"/>
      <point x="561.6" y="-131.6" type="line"/>
      <point x="561.6" y="-332.79999999999995" type="line"/>
    </contour>
  </outline>
</glyph>
<glyph name="grave" format="2">
  <advance width="585"/>
  <unicode hex="0060"/>
  <anchor x="278.80000000000007" y="914.8" name="_top"/>
  <outline>
    <contour>
      <point x="231.39999999999998" y="1001.4000000000001" type="line"/>
      <point x="40.99999999999997" y="1255.1999999999998" type="line"/>
      <point x="275.0" y="1327.2" type="line"/>
      <point x="429.19999999999993" y="1061.0000000000002" type="line"/>
    </contour>
  </outline>
</glyph>
<glyph name="a" format="2">
  <advance width="730"/>
  <unicode hex="0061"/>
  <anchor x="365.8" y="913.9999999999999" name="top"/>
  <outline>
    <contour>
      <point x="4.599999999999994" y="271.59999999999997" type="qcurve" smooth="yes"/>
      <point x="4.599999999999994" y="419.99999999999994"/>
      <point x="147.59999999999997" y="565.6"/>
      <point x="328.19999999999993" y="565.6" type="qcurve" smooth="yes"/>
      <point x="379.19999999999993" y="565.6" type="line"/>
      <point x="379.19999999999993" y="693.5999999999999" type="line" smooth="yes"/>
      <point x="379.19999999999993" y="709.0000000000001"/>
      <point x="370.80000000000007" y="725.0000000000001"/>
      <point x="360.6" y="725.0000000000001" type="qcurve" smooth="yes"/>
      <point x="350.8" y="725.0000000000001"/>
      <point x="342.40000000000003" y="710.5999999999999"/>
      <point x="342.40000000000003" y="698.1999999999999" type="qcurve" smooth="yes"/>
      <point x="342.40000000000003" y="611.2" type="line"/>
      <point x="39.79999999999999" y="613.0" type="line"/>
      <point x="39.79999999999999" y="683.0000000000001" type="line" smooth="yes"/>
      <point x="37.39999999999999" y="806.0"/>
      <point x="222.6" y="937.5999999999999"/>
      <point x="377.59999999999997" y="937.5999999999999" type="qcurve" smooth="yes"/>
      <point x="527.8" y="937.5999999999999"/>
      <point x="712.6" y="811.1999999999999"/>
      <point x="712.6" y="663.0" type="qcurve" smooth="yes"/>
      <point x="712.6" y="120.20000000000002" type="line" smooth="yes"/>
      <point x="712.6" y="80.20000000000002"/>
      <point x="718.9999999999999" y="31.599999999999994"/>
      <point x="728.1999999999999" y="13.600000000000001" type="qcurve"/>
      <point x="728.1999999999999" y="0.0" type="line"/>
      <point x="399.4" y="0.0" type="line"/>
      <point x="393.9999999999999" y="8.8"/>
      <point x="387.4" y="36.6"/>
      <point x="386.6" y="49.00000000000001" type="qcurve"/>
      <point x="365.39999999999986" y="23.0"/>
      <point x="278.0" y="-10.2"/>
      <point x="220.60000000000002" y="-10.2" type="qcurve" smooth="yes"/>
      <point x="129.2" y="-10.2"/>
      <point x="4.599999999999994" y="123.2"/>
    </contour>
    <contour>
      <point x="329.79999999999995" y="292.79999999999995" type="qcurve" smooth="yes"/>
      <point x="329.79999999999995" y="219.4"/>
      <point x="341.8" y="187.6"/>
      <point x="356.2" y="187.6" type="qcurve" smooth="yes"/>
      <point x="369.0" y="187.6"/>
      <point x="380.99999999999994" y="206.79999999999998"/>
      <point x="380.99999999999994" y="225.59999999999997" type="qcurve"/>
      <point x="380.99999999999994" y="409.8" type="line"/>
      <point x="365.0" y="409.8" type="line" smooth="yes"/>
      <point x="347.59999999999997" y="409.8"/>
      <point x="329.79999999999995" y="369.8"/>
    </contour>
  </outline>
</glyph>
<glyph name="b" format="2">
  <advance width="749"/>
  <unicode hex="0062"/>
  <outline>
    <contour>
      <point x="20.799999999999997" y="0.0" type="line"/>
      <point x="20.799999999999997" y="1456.0" type="line"/>
      <point x="343.4" y="1456.0" type="line"/>
      <point x="343.4" y="858.8" type="line"/>
      <point x="355.8" y="880.2"/>
      <point x="435.2" y="933.2"/>
      <point x="504.4" y="933.2" type="qcurve" smooth="yes"/>
      <point x="607.4" y="933.2"/>
      <point x="732.2" y="775.0"/>
      <point x="732.2" y="607.8" type="qcurve" smooth="yes"/>
      <point x="732.2" y="332.2" type="line" smooth="yes"/>
      <point x="732.2" y="160.99999999999997"/>
      <point x="608.6" y="-12.2"/>
      <point x="499.6" y="-12.2" type="qcurve" smooth="yes"/>
      <point x="445.0" y="-12.2"/>
      <point x="363.59999999999997" y="21.2"/>
      <point x="340.4" y="46.4" type="qcurve"/>
      <point x="340.4" y="46.4" type="line"/>
      <point x="340.4" y="0.0" type="line"/>
    </contour>
    <contour>
      <point x="347.6" y="269.2" type="line"/>
      <point x="350.0" y="256.2"/>
      <point x="362.40000000000003" y="244.2"/>
      <point x="375.20000000000005" y="244.2" type="qcurve" smooth="yes"/>
      <point x="387.8" y="244.2"/>
      <point x="403.79999999999995" y="262.0"/>
      <point x="403.79999999999995" y="286.6" type="qcurve" smooth="yes"/>
      <point x="403.79999999999995" y="622.1999999999999" type="line" smooth="yes"/>
      <point x="403.79999999999995" y="653.4"/>
      <point x="389.6" y="671.1999999999999"/>
      <point x="376.8" y="671.1999999999999" type="qcurve" smooth="yes"/>
      <point x="364.80000000000007" y="671.1999999999999"/>
      <point x="349.6" y="657.4"/>
      <point x="347.6" y="639.3999999999999" type="qcurve"/>
    </contour>
  </outline>
</glyph>
<glyph name="c" format="2">
  <advance width="729"/>
  <unicode hex="0063"/>
  <anchor x="381.9999999999999" y="0" name="bottom"/>
  <outline>
    <contour>
      <point x="16.79999999999999" y="335.6" type="qcurve" smooth="yes"/>
      <point x="16.79999999999999" y="601.8" type="line" smooth="yes"/>
      <point x="16.79999999999999" y="771.4"/>
      <point x="212.20000000000002" y="937.4000000000001"/>
      <point x="376.59999999999997" y="937.4000000000001" type="qcurve" smooth="yes"/>
      <point x="549.2" y="937.4000000000001"/>
      <point x="710.4" y="775.4"/>
      <point x="716.9999999999999" y="631.0" type="qcurve" smooth="yes"/>
      <point x="718.8" y="523.0000000000001" type="line"/>
      <point x="387.20000000000005" y="523.0000000000001" type="line"/>
      <point x="387.20000000000005" y="640.1999999999999" type="line" smooth="yes"/>
      <point x="387.19999999999993" y="655.4"/>
      <point x="377.2" y="667.8000000000001"/>
      <point x="367.40000000000003" y="667.8000000000001" type="qcurve" smooth="yes"/>
      <point x="357.99999999999994" y="667.8000000000001"/>
      <point x="345.0" y="653.6"/>
      <point x="345.0" y="628.2" type="qcurve" smooth="yes"/>
      <point x="345.0" y="292.4" type="line" smooth="yes"/>
      <point x="345.0" y="263.4"/>
      <point x="357.0" y="246.6"/>
      <point x="367.4" y="246.6" type="qcurve" smooth="yes"/>
      <point x="377.6" y="246.6"/>
      <point x="387.2" y="257.4"/>
      <point x="387.2" y="277.2" type="qcurve" smooth="yes"/>
      <point x="387.2" y="398.20000000000005" type="line"/>
      <point x="719.3999999999999" y="398.20000000000005" type="line"/>
      <point x="718.2" y="289.4" type="line" smooth="yes"/>
      <point x="713.9999999999999" y="144.39999999999998"/>
      <point x="541.0" y="-16.799999999999997"/>
      <point x="382.00000000000006" y="-16.799999999999997" type="qcurve" smooth="yes"/>
      <point x="215.0" y="-16.799999999999997"/>
      <point x="16.79999999999999" y="154.8"/>
    </contour>
  </outline>
</glyph>
<glyph name="d" format="2">
  <advance width="751"/>
  <unicode hex="0064"/>
  <outline>
    <contour>
      <point x="16.79999999999999" y="332.2" type="qcurve" smooth="yes"/>
      <point x="16.79999999999999" y="607.8" type="line" smooth="yes"/>
      <point x="16.79999999999999" y="775.0"/>
      <point x="144.4" y="933.1999999999999"/>
      <point x="244.0" y="933.1999999999999" type="qcurve" smooth="yes"/>
      <point x="311.9999999999999" y="933.1999999999999"/>
      <point x="385.40000000000003" y="885.6"/>
      <point x="397.2" y="864.2" type="qcurve"/>
      <point x="397.2" y="1456.0" type="line"/>
      <point x="731.2" y="1456.0" type="line"/>
      <point x="731.2" y="0.0" type="line"/>
      <point x="400.79999999999995" y="0.0" type="line"/>
      <point x="400.79999999999995" y="52.4" type="line"/>
      <point x="400.79999999999995" y="52.4" type="line"/>
      <point x="378.80000000000007" y="27.2"/>
      <point x="297.40000000000003" y="-12.2"/>
      <point x="244.0" y="-12.2" type="qcurve" smooth="yes"/>
      <point x="137.79999999999998" y="-12.2"/>
      <point x="16.79999999999999" y="160.99999999999997"/>
    </contour>
    <contour>
      <point x="344.6" y="286.59999999999997" type="line" smooth="yes"/>
      <point x="344.6" y="262.0"/>
      <point x="360.6" y="244.2"/>
      <point x="373.19999999999993" y="244.2" type="qcurve" smooth="yes"/>
      <point x="386.40000000000003" y="244.2"/>
      <point x="398.79999999999995" y="256.2"/>
      <point x="400.79999999999995" y="269.2" type="qcurve"/>
      <point x="400.79999999999995" y="639.4" type="line"/>
      <point x="398.79999999999995" y="656.2"/>
      <point x="383.6" y="671.2"/>
      <point x="371.99999999999994" y="671.2" type="qcurve" smooth="yes"/>
      <point x="358.79999999999995" y="671.2"/>
      <point x="344.6" y="653.4000000000001"/>
      <point x="344.6" y="622.2" type="qcurve" smooth="yes"/>
    </contour>
  </outline>
</glyph>
<glyph name="e" format="2">
  <advance width="745"/>
  <unicode hex="0065"/>
  <anchor x="380.79999999999995" y="914.0" name="top"/>
  <outline>
    <contour>
      <point x="16.79999999999999" y="333.79999999999995" type="qcurve" smooth="yes"/>
      <point x="16.79999999999999" y="600.2" type="line" smooth="yes"/>
      <point x="16.79999999999999" y="762.5999999999999"/>
      <point x="218.8" y="937.3999999999999"/>
      <point x="377.4" y="937.3999999999999" type="qcurve" smooth="yes"/>
      <point x="558.3999999999999" y="937.3999999999999"/>
      <point x="728.0000000000001" y="747.2"/>
      <point x="728.0000000000001" y="572.6" type="qcurve" smooth="yes"/>
      <point x="728.0000000000001" y="430.8" type="line"/>
      <point x="194.99999999999997" y="430.8" type="line"/>
      <point x="194.99999999999997" y="528.6" type="line"/>
      <point x="415.00000000000006" y="528.6" type="line"/>
      <point x="414.99999999999994" y="630.1999999999999" type="line"/>
      <point x="415.00000000000006" y="659.2"/>
      <point x="396.8" y="682.8000000000001"/>
      <point x="381.79999999999995" y="682.8000000000001" type="qcurve" smooth="yes"/>
      <point x="365.4" y="682.8000000000001"/>
      <point x="344.59999999999997" y="655.6"/>
      <point x="344.59999999999997" y="622.8" type="qcurve" smooth="yes"/>
      <point x="344.59999999999997" y="296.40000000000003" type="line" smooth="yes"/>
      <point x="344.59999999999997" y="264.6"/>
      <point x="365.40000000000003" y="236.39999999999995"/>
      <point x="385.20000000000005" y="236.39999999999995" type="qcurve" smooth="yes"/>
      <point x="402.79999999999995" y="236.39999999999995"/>
      <point x="422.6" y="275.2"/>
      <point x="422.6" y="342.2" type="qcurve"/>
      <point x="733.8000000000001" y="320.0" type="line"/>
      <point x="721.2" y="153.8"/>
      <point x="548.6" y="-16.799999999999997"/>
      <point x="383.0" y="-16.799999999999997" type="qcurve" smooth="yes"/>
      <point x="217.99999999999994" y="-16.799999999999997"/>
      <point x="16.79999999999999" y="153.39999999999998"/>
    </contour>
  </outline>
</glyph>
<glyph name="f" format="2">
  <advance width="438"/>
  <unicode hex="0066"/>
  <outline>
    <contour>
      <point x="45.0" y="0.0" type="line"/>
      <point x="45.0" y="1163.4" type="line" smooth="yes"/>
      <point x="45.0" y="1320.1999999999998"/>
      <point x="191.79999999999998" y="1478.0"/>
      <point x="317.79999999999995" y="1478.0" type="qcurve" smooth="yes"/>
      <point x="389.20000000000005" y="1478.0"/>
      <point x="467.6" y="1463.6"/>
      <point x="484.59999999999997" y="1457.6000000000001" type="qcurve"/>
      <point x="446.79999999999995" y="1185.8" type="line"/>
      <point x="438.4" y="1188.6000000000001"/>
      <point x="422.19999999999993" y="1191.6"/>
      <point x="411.6" y="1191.6" type="qcurve" smooth="yes"/>
      <point x="395.0" y="1191.6"/>
      <point x="368.6" y="1163.3999999999999"/>
      <point x="368.6" y="1124.6000000000001" type="qcurve" smooth="yes"/>
      <point x="368.6" y="856.6" type="line"/>
      <point x="374.6" y="846.8" type="line"/>
      <point x="374.6" y="0.0" type="line"/>
    </contour>
    <contour>
      <point x="4.400000000000001" y="640.0" type="line"/>
      <point x="4.400000000000001" y="913.9999999999999" type="line"/>
      <point x="87.6" y="913.9999999999999" type="line"/>
      <point x="105.6" y="913.9999999999999" type="line"/>
      <point x="437.6000000000001" y="913.9999999999999" type="line"/>
      <point x="437.6000000000001" y="640.0" type="line"/>
    </contour>
  </outline>
</glyph>
<glyph name="g" format="2">
  <advance width="751"/>
  <unicode hex="0067"/>
  <outline>
    <contour>
      <point x="61.0" y="-396.59999999999997" type="qcurve"/>
      <point x="69.60000000000001" y="-141.4" type="line"/>
      <point x="96.19999999999997" y="-156.0"/>
      <point x="196.79999999999995" y="-184.8"/>
      <point x="266.0" y="-184.8" type="qcurve" smooth="yes"/>
      <point x="332.6" y="-184.8"/>
      <point x="402.0" y="-101.80000000000001"/>
      <point x="402.0" y="-15.799999999999997" type="qcurve" smooth="yes"/>
      <point x="402.0" y="68.6" type="line"/>
      <point x="381.80000000000007" y="37.4"/>
      <point x="300.3999999999999" y="0.3999999999999986"/>
      <point x="240.39999999999998" y="0.3999999999999986" type="qcurve" smooth="yes"/>
      <point x="141.0" y="0.3999999999999986"/>
      <point x="16.79999999999999" y="164.59999999999997"/>
      <point x="16.79999999999999" y="332.2" type="qcurve" smooth="yes"/>
      <point x="16.79999999999999" y="607.8" type="line" smooth="yes"/>
      <point x="16.79999999999999" y="775.0"/>
      <point x="141.60000000000002" y="927.7999999999998"/>
      <point x="237.99999999999994" y="927.7999999999998" type="qcurve" smooth="yes"/>
      <point x="311.4" y="927.7999999999998"/>
      <point x="385.39999999999986" y="875.4"/>
      <point x="394.80000000000007" y="852.8" type="qcurve"/>
      <point x="396.0" y="852.8" type="line"/>
      <point x="396.0" y="913.9999999999999" type="line"/>
      <point x="732.4" y="913.9999999999999" type="line"/>
      <point x="732.4" y="33.8" type="line" smooth="yes"/>
      <point x="732.4" y="-233.60000000000002"/>
      <point x="480.99999999999994" y="-437.0"/>
      <point x="307.0" y="-437.0" type="qcurve" smooth="yes"/>
      <point x="199.99999999999997" y="-437.0"/>
      <point x="87.8" y="-410.6"/>
    </contour>
    <contour>
      <point x="345.20000000000005" y="286.59999999999997" type="line" smooth="yes"/>
      <point x="345.20000000000005" y="262.00000000000006"/>
      <point x="361.59999999999997" y="244.2"/>
      <point x="373.80000000000007" y="244.2" type="qcurve" smooth="yes"/>
      <point x="387.80000000000007" y="244.2"/>
      <point x="399.4" y="256.20000000000005"/>
      <point x="401.4" y="269.2" type="qcurve"/>
      <point x="401.4" y="639.3999999999999" type="line"/>
      <point x="399.4" y="656.1999999999999"/>
      <point x="383.80000000000007" y="671.2"/>
      <point x="372.19999999999993" y="671.2" type="qcurve" smooth="yes"/>
      <point x="360.19999999999993" y="671.2"/>
      <point x="345.20000000000005" y="653.4000000000001"/>
      <point x="345.20000000000005" y="622.2" type="qcurve" smooth="yes"/>
    </contour>
  </outline>
</glyph>
<glyph name="h" format="2">
  <advance width="750"/>
  <unicode hex="0068"/>
  <outline>
    <contour>
      <point x="20.799999999999997" y="0.0" type="line"/>
      <point x="20.799999999999997" y="1456.0" type="line"/>
      <point x="347.59999999999997" y="1456.0" type="line"/>
      <point x="347.6" y="858.0" type="line"/>
      <point x="362.2" y="882.4000000000001"/>
      <point x="455.59999999999997" y="932.4"/>
      <point x="531.0" y="932.4" type="qcurve" smooth="yes"/>
      <point x="618.4000000000001" y="932.4"/>
      <point x="731.1999999999998" y="834.6"/>
      <point x="731.1999999999998" y="727.6" type="qcurve" smooth="yes"/>
      <point x="731.1999999999998" y="0.0" type="line"/>
      <point x="401.99999999999994" y="0.0" type="line"/>
      <point x="401.99999999999994" y="639.6" type="line" smooth="yes"/>
      <point x="401.99999999999994" y="664.6"/>
      <point x="389.19999999999993" y="678.8"/>
      <point x="377.6" y="678.8" type="qcurve" smooth="yes"/>
      <point x="364.99999999999994" y="678.8"/>
      <point x="352.00000000000006" y="663.1999999999999"/>
      <point x="350.0" y="648.2" type="qcurve"/>
      <point x="350.0" y="0.0" type="line"/>
    </contour>
  </outline>
</glyph>
<glyph name="i" format="2">
  <advance width="382"/>
  <unicode hex="0069"/>
  <outline>
    <contour>
      <point x="24.000000000000014" y="0.0" type="line"/>
      <point x="24.000000000000014" y="913.9999999999999" type="line"/>
      <point x="354.8" y="913.9999999999999" type="line"/>
      <point x="354.8" y="0.0" type="line"/>
    </contour>
    <contour>
      <point x="8.0" y="1213.8" type="qcurve" smooth="yes"/>
      <point x="8.0" y="1291.1999999999998"/>
      <point x="102.4" y="1397.8000000000002"/>
      <point x="192.2" y="1397.8000000000002" type="qcurve" smooth="yes"/>
      <point x="282.59999999999997" y="1397.8000000000002"/>
      <point x="373.59999999999997" y="1293.3999999999999"/>
      <point x="373.59999999999997" y="1213.8" type="qcurve" smooth="yes"/>
      <point x="373.59999999999997" y="1136.3999999999999"/>
      <point x="279.19999999999993" y="1026.4"/>
      <point x="189.4" y="1026.4" type="qcurve" smooth="yes"/>
      <point x="99.6" y="1026.4"/>
      <point x="8.0" y="1136.3999999999999"/>
    </contour>
  </outline>
</glyph>
<glyph name="j" format="2">
  <advance width="385"/>
  <unicode hex="006A"/>
  <outline>
    <contour>
      <point x="-158.79999999999998" y="-411.0" type="qcurve"/>
      <point x="-159.0" y="-146.60000000000002" type="line"/>
      <point x="-142.0" y="-150.8"/>
      <point x="-91.2" y="-157.39999999999998"/>
      <point x="-51.8" y="-157.39999999999998" type="qcurve" smooth="yes"/>
      <point x="-14.800000000000008" y="-157.39999999999998"/>
      <point x="26.400000000000006" y="-113.39999999999999"/>
      <point x="26.400000000000006" y="-39.000000000000014" type="qcurve" smooth="yes"/>
      <point x="26.400000000000006" y="913.9999999999999" type="line"/>
      <point x="361.4" y="913.9999999999999" type="line"/>
      <point x="361.4" y="-81.4" type="line" smooth="yes"/>
      <point x="361.4" y="-245.20000000000005"/>
      <point x="184.39999999999995" y="-431.4"/>
      <point x="23.2" y="-431.4" type="qcurve" smooth="yes"/>
      <point x="-45.99999999999999" y="-431.4"/>
      <point x="-127.0" y="-417.59999999999997"/>
    </contour>
    <contour>
      <point x="11.2" y="1214.3999999999999" type="qcurve" smooth="yes"/>
      <point x="11.2" y="1293.0"/>
      <point x="105.39999999999998" y="1398.4"/>
      <point x="194.80000000000004" y="1398.4" type="qcurve" smooth="yes"/>
      <point x="285.19999999999993" y="1398.4"/>
      <point x="377.2" y="1294.6"/>
      <point x="377.2" y="1214.3999999999999" type="qcurve" smooth="yes"/>
      <point x="377.2" y="1137.6"/>
      <point x="282.4" y="1026.6000000000001"/>
      <point x="191.99999999999994" y="1026.6000000000001" type="qcurve" smooth="yes"/>
      <point x="103.2" y="1026.6000000000001"/>
      <point x="11.2" y="1137.6"/>
    </contour>
  </outline>
</glyph>
<glyph name="k" format="2">
  <advance width="780"/>
  <unicode hex="006B"/>
  <outline>
    <contour>
      <point x="20.799999999999997" y="0.0" type="line"/>
      <point x="20.799999999999997" y="1456.0" type="line"/>
      <point x="349.8" y="1456.0" type="line"/>
      <point x="349.8" y="715.3999999999999" type="line"/>
      <point x="432.0" y="914.0" type="line"/>
      <point x="761.5999999999999" y="914.0" type="line"/>
      <point x="349.8" y="215.00000000000003" type="line"/>
      <point x="349.8" y="0.0" type="line"/>
    </contour>
    <contour>
      <point x="430.19999999999993" y="0.0" type="line"/>
      <point x="332.4" y="435.2" type="line"/>
      <point x="521.0" y="735.4" type="line"/>
      <point x="785.8" y="0.0" type="line"/>
    </contour>
  </outline>
</glyph>
<glyph name="l" format="2">
  <advance width="376"/>
  <unicode hex="006C"/>
  <outline>
    <contour>
      <point x="21.6" y="0.0" type="line"/>
      <point x="21.6" y="1456.0" type="line"/>
      <point x="354.4" y="1456.0" type="line"/>
      <point x="354.4" y="0.0" type="line"/>
    </contour>
  </outline>
</glyph>
<glyph name="m" format="2">
  <advance width="1131"/>
  <unicode hex="006D"/>
  <outline>
    <contour>
      <point x="20.799999999999997" y="0.0" type="line"/>
      <point x="20.799999999999997" y="914.0000000000001" type="line"/>
      <point x="346.0" y="914.0000000000001" type="line"/>
      <point x="346.0" y="844.8000000000001" type="line"/>
      <point x="346.4" y="844.8000000000001" type="line"/>
      <point x="363.59999999999997" y="874.8000000000001"/>
      <point x="464.00000000000006" y="932.3999999999999"/>
      <point x="543.6" y="932.3999999999999" type="qcurve" smooth="yes"/>
      <point x="616.4" y="932.3999999999999"/>
      <point x="702.8" y="878.2"/>
      <point x="724.3999999999999" y="834.1999999999999" type="qcurve"/>
      <point x="730.8" y="834.1999999999999" type="line"/>
      <point x="751.8000000000001" y="876.0"/>
      <point x="841.1999999999999" y="932.4000000000001"/>
      <point x="917.1999999999999" y="932.4000000000001" type="qcurve" smooth="yes"/>
      <point x="1008.0" y="932.4000000000001"/>
      <point x="1112.3999999999999" y="834.6"/>
      <point x="1112.3999999999999" y="727.6" type="qcurve" smooth="yes"/>
      <point x="1112.3999999999999" y="0.0" type="line"/>
      <point x="783.2" y="0.0" type="line"/>
      <point x="783.2" y="639.6" type="line" smooth="yes"/>
      <point x="783.1999999999998" y="664.6"/>
      <point x="770.4" y="678.8"/>
      <point x="758.8000000000001" y="678.8" type="qcurve" smooth="yes"/>
      <point x="746.1999999999999" y="678.8"/>
      <point x="733.1999999999998" y="663.2"/>
      <point x="731.2" y="648.2" type="qcurve"/>
      <point x="731.2" y="0.0" type="line"/>
      <point x="402.0" y="0.0" type="line"/>
      <point x="402.0" y="639.6" type="line" smooth="yes"/>
      <point x="401.9999999999999" y="664.5999999999999"/>
      <point x="389.19999999999993" y="678.8"/>
      <point x="377.6" y="678.8" type="qcurve" smooth="yes"/>
      <point x="365.0" y="678.8"/>
      <point x="351.99999999999994" y="663.2"/>
      <point x="350.0" y="648.1999999999999" type="qcurve"/>
      <point x="350.0" y="0.0" type="line"/>
    </contour>
  </outline>
</glyph>
<glyph name="n" format="2">
  <advance width="750"/>
  <unicode hex="006E"/>
  <anchor x="377.19999999999993" y="913.9999999999999" name="top"/>
  <outline>
    <contour>
      <point x="20.799999999999997" y="0.0" type="line"/>
      <point x="20.799999999999997" y="913.9999999999999" type="line"/>
      <point x="346.0" y="913.9999999999999" type="line"/>
      <point x="346.0" y="846.6000000000001" type="line"/>
      <point x="348.2" y="846.6000000000001" type="line"/>
      <point x="363.0" y="873.6"/>
      <point x="457.4" y="932.4000000000001"/>
      <point x="537.5999999999999" y="932.4000000000001" type="qcurve" smooth="yes"/>
      <point x="625.0" y="932.4000000000001"/>
      <point x="731.1999999999998" y="834.6"/>
      <point x="731.1999999999998" y="727.6" type="qcurve" smooth="yes"/>
      <point x="731.1999999999998" y="0.0" type="line"/>
      <point x="401.9999999999999" y="0.0" type="line"/>
      <point x="401.9999999999999" y="639.6" type="line" smooth="yes"/>
      <point x="401.9999999999999" y="664.6"/>
      <point x="389.19999999999993" y="678.8"/>
      <point x="377.6000000000001" y="678.8" type="qcurve" smooth="yes"/>
      <point x="365.00000000000006" y="678.8"/>
      <point x="352.00000000000006" y="663.2"/>
      <point x="350.0" y="648.2" type="qcurve"/>
      <point x="350.0" y="0.0" type="line"/>
    </contour>
  </outline>
</glyph>
<glyph name="o" format="2">
  <advance width="743"/>
  <unicode hex="006F"/>
  <anchor x="372.8" y="913.9999999999999" name="top"/>
  <outline>
    <contour>
      <point x="16.79999999999999" y="333.00000000000006" type="qcurve" smooth="yes"/>
      <point x="16.79999999999999" y="604.2" type="line" smooth="yes"/>
      <point x="16.79999999999999" y="767.8"/>
      <point x="209.19999999999996" y="937.4000000000001"/>
      <point x="370.80000000000007" y="937.4000000000001" type="qcurve" smooth="yes"/>
      <point x="534.5999999999999" y="937.4000000000001"/>
      <point x="726.1999999999998" y="767.8"/>
      <point x="726.1999999999998" y="604.2" type="qcurve" smooth="yes"/>
      <point x="726.1999999999998" y="333.00000000000006" type="line" smooth="yes"/>
      <point x="726.1999999999998" y="159.0"/>
      <point x="534.0" y="-16.799999999999997"/>
      <point x="370.80000000000007" y="-16.799999999999997" type="qcurve" smooth="yes"/>
      <point x="209.79999999999995" y="-16.799999999999997"/>
      <point x="16.79999999999999" y="159.0"/>
    </contour>
    <contour>
      <point x="344.99999999999994" y="625.8" type="qcurve" smooth="yes"/>
      <point x="344.99999999999994" y="284.79999999999995" type="line" smooth="yes"/>
      <point x="344.99999999999994" y="256.4"/>
      <point x="358.6" y="242.99999999999997"/>
      <point x="371.8" y="242.99999999999997" type="qcurve" smooth="yes"/>
      <point x="384.4" y="242.99999999999997"/>
      <point x="398.00000000000006" y="256.4"/>
      <point x="398.00000000000006" y="284.19999999999993" type="qcurve" smooth="yes"/>
      <point x="398.00000000000006" y="625.8" type="line" smooth="yes"/>
      <point x="398.00000000000006" y="656.6"/>
      <point x="384.6" y="672.0000000000001"/>
      <point x="371.8" y="672.0000000000001" type="qcurve" smooth="yes"/>
      <point x="357.8" y="672.0000000000001"/>
      <point x="344.99999999999994" y="656.6"/>
    </contour>
  </outline>
</glyph>
<glyph name="p" format="2">
  <advance width="746"/>
  <unicode hex="0070"/>
  <outline>
    <contour>
      <point x="21.199999999999996" y="-399.2" type="line"/>
      <point x="21.199999999999996" y="913.9999999999999" type="line"/>
      <point x="342.2" y="913.9999999999999" type="line"/>
      <point x="342.2" y="858.2" type="line"/>
      <point x="345.0" y="858.8" type="line"/>
      <point x="358.20000000000005" y="882.6"/>
      <point x="432.0" y="933.2"/>
      <point x="504.79999999999995" y="933.2" type="qcurve" smooth="yes"/>
      <point x="606.0" y="933.2"/>
      <point x="729.5999999999999" y="772.0"/>
      <point x="729.5999999999999" y="607.8" type="qcurve" smooth="yes"/>
      <point x="729.5999999999999" y="332.19999999999993" type="line" smooth="yes"/>
      <point x="729.5999999999999" y="161.0"/>
      <point x="602.0" y="-12.2"/>
      <point x="502.99999999999994" y="-12.2" type="qcurve" smooth="yes"/>
      <point x="446.0" y="-12.2"/>
      <point x="379.6" y="2.600000000000006"/>
      <point x="348.0" y="23.6" type="qcurve"/>
      <point x="348.0" y="-399.2" type="line"/>
    </contour>
    <contour>
      <point x="348.0" y="269.2" type="line"/>
      <point x="350.0" y="256.2"/>
      <point x="362.40000000000003" y="244.2"/>
      <point x="375.59999999999997" y="244.2" type="qcurve" smooth="yes"/>
      <point x="388.20000000000005" y="244.2"/>
      <point x="404.19999999999993" y="262.0"/>
      <point x="404.19999999999993" y="286.59999999999997" type="qcurve" smooth="yes"/>
      <point x="404.19999999999993" y="622.1999999999999" type="line" smooth="yes"/>
      <point x="404.19999999999993" y="653.4000000000001"/>
      <point x="390.0" y="671.2"/>
      <point x="376.79999999999995" y="671.2" type="qcurve" smooth="yes"/>
      <point x="365.2" y="671.2"/>
      <point x="350.0" y="657.4"/>
      <point x="348.0" y="639.4000000000001" type="qcurve"/>
    </contour>
  </outline>
</glyph>
<glyph name="q" format="2">
  <advance width="752"/>
  <unicode hex="0071"/>
  <outline>
    <contour>
      <point x="16.79999999999999" y="332.2" type="qcurve" smooth="yes"/>
      <point x="16.79999999999999" y="607.8" type="line" smooth="yes"/>
      <point x="16.79999999999999" y="775.0"/>
      <point x="144.39999999999998" y="933.2"/>
      <point x="244.60000000000005" y="933.2" type="qcurve" smooth="yes"/>
      <point x="310.79999999999995" y="933.2"/>
      <point x="384.7999999999999" y="880.8"/>
      <point x="395.9999999999999" y="858.1999999999999" type="qcurve"/>
      <point x="397.79999999999995" y="858.1999999999999" type="line"/>
      <point x="397.79999999999995" y="914.0" type="line"/>
      <point x="731.2" y="914.0" type="line"/>
      <point x="731.2" y="-399.2" type="line"/>
      <point x="402.0" y="-399.2" type="line"/>
      <point x="402.0" y="52.4" type="line"/>
      <point x="402.0" y="52.40000000000001" type="line"/>
      <point x="379.4000000000001" y="27.200000000000003"/>
      <point x="298.0" y="-6.2"/>
      <point x="244.6" y="-6.2" type="qcurve" smooth="yes"/>
      <point x="138.4" y="-6.2"/>
      <point x="16.79999999999999" y="161.0"/>
    </contour>
    <contour>
      <point x="344.6" y="292.59999999999997" type="line" smooth="yes"/>
      <point x="344.6" y="268.0"/>
      <point x="360.59999999999997" y="250.2"/>
      <point x="373.19999999999993" y="250.2" type="qcurve" smooth="yes"/>
      <point x="385.99999999999994" y="250.2"/>
      <point x="398.4" y="262.2"/>
      <point x="400.8" y="275.2" type="qcurve"/>
      <point x="400.8" y="639.4" type="line"/>
      <point x="398.79999999999995" y="656.1999999999999"/>
      <point x="383.5999999999999" y="671.2"/>
      <point x="371.59999999999997" y="671.2" type="qcurve" smooth="yes"/>
      <point x="358.79999999999995" y="671.2"/>
      <point x="344.6" y="653.4000000000001"/>
      <point x="344.6" y="622.2" type="qcurve" smooth="yes"/>
    </contour>
  </outline>
</glyph>
<glyph name="r" format="2">
  <advance width="500"/>
  <unicode hex="0072"/>
  <outline>
    <contour>
      <point x="20.799999999999997" y="0.0" type="line"/>
      <point x="20.799999999999997" y="913.9999999999999" type="line"/>
      <point x="340.8" y="913.9999999999999" type="line"/>
      <point x="340.8" y="842.0" type="line"/>
      <point x="341.8" y="842.0" type="line"/>
      <point x="353.4" y="879.4"/>
      <point x="408.0" y="930.0"/>
      <point x="444.6" y="930.0" type="qcurve" smooth="yes"/>
      <point x="464.4" y="930.0"/>
      <point x="493.6" y="924.9999999999999"/>
      <point x="499.8" y="920.9999999999999" type="qcurve"/>
      <point x="499.0" y="636.4" type="line"/>
      <point x="489.00000000000006" y="642.4"/>
      <point x="462.2" y="649.4"/>
      <point x="444.19999999999993" y="649.4" type="qcurve" smooth="yes"/>
      <point x="418.8" y="649.4"/>
      <point x="364.2" y="609.8"/>
      <point x="348.8" y="567.4" type="qcurve"/>
      <point x="350.0" y="0.0" type="line"/>
    </contour>
  </outline>
</glyph>
<glyph name="s" format="2">
  <advance width="649"/>
  <unicode hex="0073"/>
  <outline>
    <contour>
      <point x="7.800000000000004" y="292.40000000000003" type="line"/>
      <point x="272.4" y="292.4" type="line"/>
      <point x="272.4" y="233.19999999999996" type="line" smooth="yes"/>
      <point x="272.4" y="199.20000000000002"/>
      <point x="289.4" y="180.6"/>
      <point x="301.4" y="180.6" type="qcurve" smooth="yes"/>
      <point x="313.2" y="180.6"/>
      <point x="329.80000000000007" y="196.79999999999998"/>
      <point x="329.80000000000007" y="251.0" type="qcurve" smooth="yes"/>
      <point x="329.80000000000007" y="296.00000000000006"/>
      <point x="286.0" y="337.59999999999997"/>
      <point x="195.2" y="378.8" type="qcurve" smooth="yes"/>
      <point x="104.80000000000001" y="422.20000000000005"/>
      <point x="16.000000000000007" y="551.8000000000001"/>
      <point x="16.000000000000007" y="664.5999999999999" type="qcurve" smooth="yes"/>
      <point x="16.000000000000007" y="798.0"/>
      <point x="165.00000000000003" y="937.4000000000001"/>
      <point x="312.2" y="937.4000000000001" type="qcurve" smooth="yes"/>
      <point x="471.2" y="937.4000000000001"/>
      <point x="602.6" y="809.5999999999999"/>
      <point x="602.6" y="712.4" type="qcurve" smooth="yes"/>
      <point x="602.6" y="624.5999999999999" type="line"/>
      <point x="339.79999999999995" y="624.5999999999999" type="line"/>
      <point x="339.79999999999995" y="678.4" type="line" smooth="yes"/>
      <point x="340.19999999999993" y="706.4"/>
      <point x="325.0" y="723.6"/>
      <point x="313.19999999999993" y="723.6" type="qcurve" smooth="yes"/>
      <point x="301.40000000000003" y="723.6"/>
      <point x="288.79999999999995" y="707.1999999999999"/>
      <point x="288.8" y="664.0" type="qcurve" smooth="yes"/>
      <point x="288.8" y="629.4"/>
      <point x="318.4" y="593.6"/>
      <point x="426.8" y="553.4" type="qcurve" smooth="yes"/>
      <point x="525.2" y="514.8000000000001"/>
      <point x="637.1999999999999" y="400.2"/>
      <point x="637.1999999999999" y="275.4" type="qcurve" smooth="yes"/>
      <point x="637.1999999999999" y="134.79999999999998"/>
      <point x="479.79999999999995" y="-16.599999999999998"/>
      <point x="320.0" y="-16.599999999999998" type="qcurve" smooth="yes"/>
      <point x="163.8" y="-16.599999999999998"/>
      <point x="7.799999999999997" y="113.20000000000002"/>
      <point x="7.799999999999997" y="233.00000000000003" type="qcurve" smooth="yes"/>
    </contour>
  </outline>
</glyph>
<glyph name="t" format="2">
  <advance width="443"/>
  <unicode hex="0074"/>
  <outline>
    <contour>
      <point x="0.0" y="646.0" type="line"/>
      <point x="0.0" y="913.9999999999999" type="line"/>
      <point x="429.0000000000001" y="913.9999999999999" type="line"/>
      <point x="429.0000000000001" y="646.0" type="line"/>
    </contour>
    <contour>
      <point x="35.600000000000016" y="232.2" type="qcurve" smooth="yes"/>
      <point x="35.600000000000016" y="872.0" type="line"/>
      <point x="47.600000000000016" y="883.0" type="line"/>
      <point x="47.600000000000016" y="1100.0" type="line"/>
      <point x="353.2" y="1100.0" type="line"/>
      <point x="353.2" y="325.6" type="line" smooth="yes"/>
      <point x="353.2" y="284.20000000000005"/>
      <point x="378.19999999999993" y="251.39999999999998"/>
      <point x="397.0" y="251.39999999999998" type="qcurve" smooth="yes"/>
      <point x="413.4" y="251.39999999999998"/>
      <point x="430.8" y="255.79999999999998"/>
      <point x="441.4" y="259.2" type="qcurve"/>
      <point x="442.2" y="14.799999999999999" type="line"/>
      <point x="416.80000000000007" y="4.6000000000000005"/>
      <point x="329.5999999999999" y="-11.4"/>
      <point x="281.59999999999997" y="-11.4" type="qcurve" smooth="yes"/>
      <point x="162.0" y="-11.4"/>
      <point x="35.600000000000016" y="112.20000000000002"/>
    </contour>
  </outline>
</glyph>
<glyph name="u" format="2">
  <advance width="750"/>
  <unicode hex="0075"/>
  <anchor x="373.19999999999993" y="913.9999999999999" name="top"/>
  <outline>
    <contour>
      <point x="18.800000000000004" y="186.80000000000004" type="qcurve" smooth="yes"/>
      <point x="18.800000000000004" y="913.9999999999999" type="line"/>
      <point x="348.0" y="913.9999999999999" type="line"/>
      <point x="348.0" y="274.8" type="line" smooth="yes"/>
      <point x="348.0" y="249.79999999999998"/>
      <point x="360.79999999999995" y="235.59999999999997"/>
      <point x="372.3999999999999" y="235.59999999999997" type="qcurve" smooth="yes"/>
      <point x="385.00000000000006" y="235.59999999999997"/>
      <point x="398.0" y="251.2"/>
      <point x="400.0" y="266.20000000000005" type="qcurve"/>
      <point x="400.0" y="913.9999999999999" type="line"/>
      <point x="729.1999999999999" y="913.9999999999999" type="line"/>
      <point x="729.1999999999999" y="0.0" type="line"/>
      <point x="403.9999999999999" y="0.0" type="line"/>
      <point x="404.0" y="67.4" type="line"/>
      <point x="401.79999999999995" y="67.4" type="line"/>
      <point x="386.99999999999994" y="40.39999999999999"/>
      <point x="292.6" y="-18.0"/>
      <point x="212.40000000000003" y="-18.0" type="qcurve" smooth="yes"/>
      <point x="124.99999999999996" y="-18.0"/>
      <point x="18.800000000000004" y="79.8"/>
    </contour>
  </outline>
</glyph>
<glyph name="v" format="2">
  <advance width="689"/>
  <unicode hex="0076"/>
  <outline>
    <contour>
      <point x="-4.0" y="913.9999999999999" type="line"/>
      <point x="304.6" y="913.9999999999999" type="line"/>
      <point x="355.40000000000003" y="511.20000000000005" type="line" smooth="yes"/>
      <point x="357.6" y="494.8"/>
      <point x="360.8" y="465.59999999999997"/>
      <point x="361.79999999999995" y="451.79999999999995" type="qcurve"/>
      <point x="362.3999999999999" y="451.79999999999995" type="line"/>
      <point x="362.79999999999995" y="465.0"/>
      <point x="365.79999999999995" y="494.8"/>
      <point x="368.0" y="509.40000000000003" type="qcurve" smooth="yes"/>
      <point x="417.0" y="913.9999999999999" type="line"/>
      <point x="692.8" y="913.9999999999999" type="line"/>
      <point x="528.0" y="0.0" type="line"/>
      <point x="162.8" y="0.0" type="line"/>
    </contour>
  </outline>
</glyph>
<glyph name="w" format="2">
  <advance width="966"/>
  <unicode hex="0077"/>
  <outline>
    <contour>
      <point x="-5.999999999999998" y="913.9999999999999" type="line"/>
      <point x="269.2" y="913.9999999999999" type="line"/>
      <point x="316.4" y="461.99999999999994" type="line" smooth="yes"/>
      <point x="317.6" y="451.8"/>
      <point x="322.19999999999993" y="423.6"/>
      <point x="322.20000000000005" y="419.7999999999999" type="qcurve"/>
      <point x="322.59999999999997" y="419.7999999999999" type="line"/>
      <point x="322.59999999999997" y="423.6"/>
      <point x="326.6" y="451.8"/>
      <point x="327.2" y="461.99999999999994" type="qcurve" smooth="yes"/>
      <point x="370.6" y="913.9999999999999" type="line"/>
      <point x="608.6" y="913.9999999999999" type="line"/>
      <point x="652.4" y="462.4" type="line" smooth="yes"/>
      <point x="653.0000000000001" y="451.79999999999995"/>
      <point x="656.9999999999999" y="421.20000000000005"/>
      <point x="656.9999999999998" y="419.79999999999995" type="qcurve"/>
      <point x="657.3999999999999" y="419.79999999999995" type="line"/>
      <point x="657.4" y="421.20000000000005"/>
      <point x="662.6000000000001" y="451.80000000000007"/>
      <point x="663.1999999999998" y="462.4" type="qcurve" smooth="yes"/>
      <point x="708.0" y="913.9999999999999" type="line"/>
      <point x="972.1999999999998" y="913.9999999999999" type="line"/>
      <point x="827.4000000000001" y="0.0" type="line"/>
      <point x="525.5999999999999" y="0.0" type="line"/>
      <point x="481.3999999999999" y="456.6" type="line" smooth="yes"/>
      <point x="480.79999999999995" y="462.2"/>
      <point x="478.0" y="494.40000000000003"/>
      <point x="477.99999999999994" y="497.00000000000006" type="qcurve"/>
      <point x="478.0" y="497.00000000000006" type="line"/>
      <point x="478.0" y="494.40000000000003"/>
      <point x="474.19999999999993" y="462.2"/>
      <point x="474.2" y="456.6" type="qcurve" smooth="yes"/>
      <point x="439.00000000000006" y="0.0" type="line"/>
      <point x="136.0" y="0.0" type="line"/>
    </contour>
  </outline>
</glyph>
<glyph name="x" format="2">
  <advance width="755"/>
  <unicode hex="0078"/>
  <outline>
    <contour>
      <point x="-6.0" y="0.0" type="line"/>
      <point x="281.2" y="561.4" type="line"/>
      <point x="309.2" y="577.4000000000001" type="line"/>
      <point x="453.59999999999997" y="913.9999999999999" type="line"/>
      <point x="754.8000000000001" y="913.9999999999999" type="line"/>
      <point x="470.2" y="343.99999999999994" type="line"/>
      <point x="442.2" y="327.99999999999994" type="line"/>
      <point x="299.4" y="0.0" type="line"/>
    </contour>
    <contour>
      <point x="5.999999999999998" y="913.9999999999999" type="line"/>
      <point x="343.0" y="913.9999999999999" type="line"/>
      <point x="472.6" y="583.8" type="line"/>
      <point x="498.40000000000003" y="572.1999999999999" type="line"/>
      <point x="761.0000000000001" y="0.0" type="line"/>
      <point x="412.20000000000005" y="0.0" type="line"/>
      <point x="288.59999999999997" y="320.99999999999994" type="line"/>
      <point x="257.80000000000007" y="331.4" type="line"/>
    </contour>
  </outline>
</glyph>
<glyph name="y" format="2">
  <advance width="689"/>
  <unicode hex="0079"/>
  <anchor x="361.2" y="913.9999999999999" name="top"/>
  <outline>
    <contour>
      <point x="-116.20000000000002" y="-395.2" type="qcurve"/>
      <point x="-90.99999999999997" y="-154.0" type="line"/>
      <point x="-66.4" y="-163.80000000000004"/>
      <point x="2.200000000000003" y="-179.20000000000002"/>
      <point x="49.6" y="-179.20000000000002" type="qcurve" smooth="yes"/>
      <point x="109.4" y="-179.20000000000002"/>
      <point x="159.6" y="-111.0"/>
      <point x="171.6" y="6.199999999999999" type="qcurve" smooth="yes"/>
      <point x="171.6" y="14.600000000000001" type="line"/>
      <point x="-4.0" y="913.9999999999999" type="line"/>
      <point x="304.6" y="913.9999999999999" type="line"/>
      <point x="352.0" y="536.4" type="line" smooth="yes"/>
      <point x="354.80000000000007" y="517.4000000000001"/>
      <point x="360.40000000000003" y="471.2"/>
      <point x="361.8" y="455.79999999999995" type="qcurve"/>
      <point x="362.40000000000003" y="455.79999999999995" type="line"/>
      <point x="363.19999999999993" y="470.59999999999997"/>
      <point x="368.6" y="516.4"/>
      <point x="371.3999999999999" y="535.4" type="qcurve" smooth="yes"/>
      <point x="417.40000000000003" y="913.9999999999999" type="line"/>
      <point x="692.4" y="913.9999999999999" type="line"/>
      <point x="529.0" y="-14.800000000000006" type="line" smooth="yes"/>
      <point x="484.0" y="-246.19999999999996"/>
      <point x="292.4" y="-432.0"/>
      <point x="132.2" y="-432.0" type="qcurve" smooth="yes"/>
      <point x="39.19999999999999" y="-432.0"/>
      <point x="-83.4" y="-408.40000000000003"/>
    </contour>
  </outline>
</glyph>
<glyph name="z" format="2">
  <advance width="621"/>
  <unicode hex="007A"/>
  <outline>
    <contour>
      <point x="7.600000000000002" y="0.0" type="line"/>
      <point x="7.600000000000002" y="205.0" type="line"/>
      <point x="191.79999999999993" y="640.0" type="line"/>
      <point x="22.599999999999998" y="640.0" type="line"/>
      <point x="22.599999999999998" y="913.9999999999999" type="line"/>
      <point x="600.6" y="913.9999999999999" type="line"/>
      <point x="600.6" y="697.0" type="line"/>
      <point x="417.0" y="262.0" type="line"/>
      <point x="610.6" y="262.0" type="line"/>
      <point x="610.6" y="0.0" type="line"/>
    </contour>
  </outline>
</glyph>
<glyph name="braceleft" format="2">
  <advance width="523"/>
  <unicode hex="007B"/>
  <outline>
    <contour>
      <point x="502.4000000000001" y="-312.0" type="line"/>
      <point x="227.4" y="-319.2"/>
      <point x="69.59999999999998" y="-81.8"/>
      <point x="114.00000000000001" y="112.19999999999999" type="qcurve" smooth="yes"/>
      <point x="157.2" y="312.8" type="line" smooth="yes"/>
      <point x="177.39999999999998" y="411.4"/>
      <point x="96.80000000000001" y="471.6"/>
      <point x="19.6" y="471.6" type="qcurve"/>
      <point x="19.6" y="676.4" type="line"/>
      <point x="96.80000000000001" y="676.4"/>
      <point x="177.39999999999998" y="736.6"/>
      <point x="157.2" y="835.2" type="qcurve" smooth="yes"/>
      <point x="114.00000000000001" y="1035.8000000000002" type="line" smooth="yes"/>
      <point x="70.19999999999997" y="1226.1999999999998"/>
      <point x="227.4" y="1463.6"/>
      <point x="502.4000000000001" y="1460.0" type="qcurve"/>
      <point x="502.4000000000001" y="1267.8000000000002" type="line"/>
      <point x="405.00000000000006" y="1267.8000000000002"/>
      <point x="334.19999999999993" y="1132.6"/>
      <point x="360.0" y="1007.3999999999999" type="qcurve" smooth="yes"/>
      <point x="403.19999999999993" y="814.0" type="line" smooth="yes"/>
      <point x="422.0" y="730.0"/>
      <point x="368.0" y="603.1999999999999"/>
      <point x="284.59999999999997" y="574.0" type="qcurve"/>
      <point x="368.0" y="544.8000000000001"/>
      <point x="422.6" y="418.0"/>
      <point x="403.19999999999993" y="334.0" type="qcurve" smooth="yes"/>
      <point x="360.0" y="140.6" type="line" smooth="yes"/>
      <point x="334.2" y="15.399999999999991"/>
      <point x="405.00000000000006" y="-119.8"/>
      <point x="502.4000000000001" y="-119.8" type="qcurve"/>
    </contour>
  </outline>
</glyph>
<glyph name="bar" format="2">
  <advance width="421"/>
  <unicode hex="007C"/>
  <outline>
    <contour>
      <point x="73.6" y="-416.0" type="line"/>
      <point x="73.6" y="1456.0" type="line"/>
      <point x="347.6" y="1456.0" type="line"/>
      <point x="347.6" y="-416.0" type="line"/>
    </contour>
  </outline>
</glyph>
<glyph name="braceright" format="2">
  <advance width="523"/>
  <unicode hex="007D"/>
  <outline>
    <contour>
      <point x="20.599999999999998" y="-312.59999999999997" type="qcurve"/>
      <point x="20.599999999999998" y="-120.4" type="line"/>
      <point x="117.99999999999999" y="-120.4"/>
      <point x="188.8" y="14.79999999999999"/>
      <point x="163.0" y="139.4" type="qcurve" smooth="yes"/>
      <point x="119.8" y="333.40000000000003" type="line" smooth="yes"/>
      <point x="100.40000000000002" y="417.40000000000003"/>
      <point x="155.0" y="544.2"/>
      <point x="238.39999999999995" y="573.4000000000001" type="qcurve"/>
      <point x="155.0" y="602.6"/>
      <point x="100.40000000000002" y="729.4"/>
      <point x="119.8" y="813.4000000000001" type="qcurve" smooth="yes"/>
      <point x="163.0" y="1006.8000000000001" type="line" smooth="yes"/>
      <point x="188.8" y="1132.0"/>
      <point x="117.99999999999999" y="1267.1999999999998"/>
      <point x="20.599999999999998" y="1267.1999999999998" type="qcurve"/>
      <point x="20.599999999999998" y="1459.3999999999999" type="line"/>
      <point x="295.59999999999997" y="1466.6000000000001"/>
      <point x="453.99999999999994" y="1228.6000000000001"/>
      <point x="409.0000000000001" y="1035.2" type="qcurve" smooth="yes"/>
      <point x="365.8" y="834.6" type="line" smooth="yes"/>
      <point x="345.6" y="736.0"/>
      <point x="426.2" y="675.8000000000001"/>
      <point x="503.4" y="675.8000000000001" type="qcurve"/>
      <point x="503.4" y="470.40000000000003" type="line"/>
      <point x="426.2" y="470.40000000000003"/>
      <point x="345.59999999999997" y="410.20000000000005"/>
      <point x="365.8" y="312.19999999999993" type="qcurve" smooth="yes"/>
      <point x="409.0000000000001" y="111.0" type="line" smooth="yes"/>
      <point x="452.8" y="-78.8"/>
      <point x="295.59999999999997" y="-316.2"/>
    </contour>
  </outline>
</glyph>
<glyph name="asciitilde" format="2">
  <advance width="684"/>
  <unicode hex="007E"/>
  <outline>
    <contour>
      <point x="22.199999999999903" y="430.5999999999999" type="qcurve"/>
      <point x="22.199999999999903" y="746.6" type="line"/>
      <point x="53.00000000000006" y="802.4000000000001"/>
      <point x="134.2" y="849.8"/>
      <point x="187.2" y="850.6" type="qcurve" smooth="yes"/>
      <point x="219.99999999999994" y="851.0"/>
      <point x="306.6000000000001" y="820.0"/>
      <point x="354.5999999999999" y="796.6" type="qcurve" smooth="yes"/>
      <point x="404.80000000000007" y="771.8"/>
      <point x="482.20000000000005" y="742.0"/>
      <point x="511.59999999999997" y="742.0" type="qcurve" smooth="yes"/>
      <point x="555.1999999999999" y="742.0"/>
      <point x="625.4" y="790.0"/>
      <point x="661.3999999999999" y="847.0" type="qcurve"/>
      <point x="661.3999999999999" y="506.59999999999997" type="line"/>
      <point x="638.4" y="467.6"/>
      <point x="566.0" y="426.6"/>
      <point x="513.2" y="426.6" type="qcurve" smooth="yes"/>
      <point x="480.0" y="426.6"/>
      <point x="385.8" y="456.6"/>
      <point x="328.2" y="482.80000000000007" type="qcurve" smooth="yes"/>
      <point x="281.0" y="504.2"/>
      <point x="205.20000000000002" y="530.4"/>
      <point x="178.2" y="530.4" type="qcurve" smooth="yes"/>
      <point x="120.39999999999999" y="530.4"/>
      <point x="50.20000000000012" y="476.80000000000007"/>
    </contour>
  </outline>
</glyph>
<glyph name="dieresis" format="2">
  <advance width="814"/>
  <unicode hex="00A8"/>
  <anchor x="423.0" y="1577.0" name="mkmktop_acc"/>
  <outline>
    <contour>
      <point x="153.0" y="1199.0" type="qcurve" smooth="yes"/>
      <point x="153.0" y="1237.6"/>
      <point x="199.8" y="1289.6000000000001"/>
      <point x="244.39999999999998" y="1289.6000000000001" type="qcurve" smooth="yes"/>
      <point x="290.0" y="1289.6000000000001"/>
      <point x="336.8" y="1237.6"/>
      <point x="336.8" y="1199.0" type="qcurve" smooth="yes"/>
      <point x="336.8" y="1162.8000000000002"/>
      <point x="290.0" y="1111.3999999999999"/>
      <point x="244.39999999999998" y="1111.3999999999999" type="qcurve" smooth="yes"/>
      <point x="199.8" y="1111.3999999999999"/>
      <point x="153.0" y="1162.8000000000002"/>
    </contour>
    <contour>
      <point x="477.6" y="1197.0" type="qcurve" smooth="yes"/>
      <point x="477.6" y="1235.6"/>
      <point x="523.8" y="1287.6000000000001"/>
      <point x="569.0" y="1287.6000000000001" type="qcurve" smooth="yes"/>
      <point x="614.0" y="1287.6000000000001"/>
      <point x="661.4000000000001" y="1235.6"/>
      <point x="661.4000000000001" y="1197.0" type="qcurve" smooth="yes"/>
      <point x="661.4000000000001" y="1160.8000000000002"/>
      <point x="614.0" y="1109.3999999999999"/>
      <point x="569.0" y="1109.3999999999999" type="qcurve" smooth="yes"/>
      <point x="523.8" y="1109.3999999999999"/>
      <point x="477.6" y="1160.8000000000002"/>
    </contour>
  </outline>
</glyph>
<glyph name="macron" format="2">
  <advance width="814"/>
  <unicode hex="00AF"/>
  <anchor x="473.0" y="1577.0" name="mkmktop_acc"/>
  <outline>
    <contour>
      <point x="657.2" y="1290.0" type="line"/>
      <point x="657.2" y="1160.8000000000002" type="line"/>
      <point x="157.2" y="1160.8000000000002" type="line"/>
      <point x="157.2" y="1290.0" type="line"/>
    </contour>
  </outline>
</glyph>
<glyph name="degree" format="2">
  <advance width="649"/>
  <unicode hex="00B0"/>
  <outline>
    <contour>
      <point x="91.4" y="1217.0" type="qcurve"/>
      <point x="91.4" y="1315.4"/>
      <point x="230.79999999999995" y="1457.4"/>
      <point x="327.2" y="1457.4" type="qcurve" smooth="yes"/>
      <point x="422.59999999999997" y="1457.4"/>
      <point x="559.0" y="1315.3820895522388"/>
      <point x="559.0" y="1217.0" type="qcurve" smooth="yes"/>
      <point x="559.0" y="1118.5701492537314"/>
      <point x="422.59104477611936" y="979.6"/>
      <point x="327.2" y="979.6" type="qcurve" smooth="yes"/>
      <point x="230.9611940298508" y="979.6"/>
      <point x="91.4" y="1118.4"/>
    </contour>
    <contour>
      <point x="201.39999999999998" y="1217.0" type="qcurve"/>
      <point x="201.39999999999998" y="1163.865671641791"/>
      <point x="275.36119402985076" y="1093.2"/>
      <point x="327.2" y="1093.2" type="qcurve" smooth="yes"/>
      <point x="378.63880597014924" y="1093.2"/>
      <point x="449.0" y="1163.865671641791"/>
      <point x="449.0" y="1217.0" type="qcurve" smooth="yes"/>
      <point x="449.0" y="1270.9820895522387"/>
      <point x="378.63880597014924" y="1343.8"/>
      <point x="327.2" y="1343.8" type="qcurve" smooth="yes"/>
      <point x="275.36119402985076" y="1343.8"/>
      <point x="201.39999999999998" y="1270.9820895522387"/>
    </contour>
  </outline>
</glyph>
<glyph name="twosuperior" format="2">
  <advance width="571"/>
  <unicode hex="00B2"/>
  <outline>
    <contour>
      <point x="64.6" y="689.0" type="line"/>
      <point x="64.6" y="785.0000000000001" type="line"/>
      <point x="277.79999999999995" y="1048.3999999999999" type="line" smooth="yes"/>
      <point x="327.8" y="1109.4"/>
      <point x="358.99999999999994" y="1208.0"/>
      <point x="358.99999999999994" y="1252.9999999999998" type="qcurve" smooth="yes"/>
      <point x="358.99999999999994" y="1311.0000000000002"/>
      <point x="323.8" y="1363.0"/>
      <point x="278.4" y="1363.0" type="qcurve" smooth="yes"/>
      <point x="228.60000000000002" y="1363.0"/>
      <point x="183.6" y="1285.0"/>
      <point x="184.6" y="1190.0" type="qcurve"/>
      <point x="50.599999999999994" y="1190.0" type="line"/>
      <point x="50.0" y="1341.0"/>
      <point x="166.0" y="1479.3999999999999"/>
      <point x="278.0" y="1479.3999999999999" type="qcurve" smooth="yes"/>
      <point x="384.0" y="1479.3999999999999"/>
      <point x="497.59999999999997" y="1365.0"/>
      <point x="497.59999999999997" y="1261.8" type="qcurve" smooth="yes"/>
      <point x="497.59999999999997" y="1169.0"/>
      <point x="420.4000000000001" y="1033.2"/>
      <point x="355.6" y="954.2" type="qcurve" smooth="yes"/>
      <point x="243.39999999999998" y="810.6" type="line"/>
      <point x="519.0" y="810.6" type="line"/>
      <point x="519.0" y="689.0" type="line"/>
    </contour>
  </outline>
</glyph>
<glyph name="threesuperior" format="2">
  <advance width="576"/>
  <unicode hex="00B3"/>
  <outline>
    <contour>
      <point x="50.99999999999999" y="916.0" type="qcurve"/>
      <point x="177.60000000000002" y="916.0" type="line"/>
      <point x="177.60000000000002" y="845.4"/>
      <point x="230.4" y="784.8000000000001"/>
      <point x="282.0" y="784.8000000000001" type="qcurve" smooth="yes"/>
      <point x="335.79999999999995" y="784.8000000000001"/>
      <point x="379.0" y="846.4000000000001"/>
      <point x="379.0" y="911.0" type="qcurve" smooth="yes"/>
      <point x="379.0" y="978.0"/>
      <point x="323.8" y="1028.4"/>
      <point x="266.79999999999995" y="1029.0" type="qcurve" smooth="yes"/>
      <point x="201.2" y="1029.0" type="line"/>
      <point x="201.2" y="1135.0" type="line"/>
      <point x="266.79999999999995" y="1135.0" type="line" smooth="yes"/>
      <point x="322.79999999999995" y="1135.0"/>
      <point x="368.8" y="1191.0"/>
      <point x="368.8" y="1246.9999999999998" type="qcurve" smooth="yes"/>
      <point x="368.8" y="1313.4"/>
      <point x="331.2" y="1363.4"/>
      <point x="279.8" y="1363.4" type="qcurve" smooth="yes"/>
      <point x="235.2" y="1363.4"/>
      <point x="185.8" y="1313.3999999999999"/>
      <point x="185.40000000000003" y="1241.6000000000001" type="qcurve"/>
      <point x="59.2" y="1241.6000000000001" type="line"/>
      <point x="59.6" y="1369.0"/>
      <point x="185.8" y="1478.6"/>
      <point x="278.0" y="1478.6" type="qcurve" smooth="yes"/>
      <point x="379.20000000000005" y="1478.6"/>
      <point x="505.2000000000001" y="1377.2"/>
      <point x="505.2000000000001" y="1264.6" type="qcurve" smooth="yes"/>
      <point x="505.2000000000001" y="1204.0"/>
      <point x="456.20000000000005" y="1109.2"/>
      <point x="404.2000000000001" y="1090.0" type="qcurve"/>
      <point x="457.79999999999995" y="1071.0"/>
      <point x="513.8" y="979.0"/>
      <point x="513.8" y="897.8" type="qcurve" smooth="yes"/>
      <point x="513.8" y="783.0"/>
      <point x="383.4" y="670.4"/>
      <point x="282.20000000000005" y="670.4" type="qcurve" smooth="yes"/>
      <point x="188.0" y="670.4"/>
      <point x="50.99999999999999" y="770.0000000000001"/>
    </contour>
  </outline>
</glyph>
<glyph name="acute" format="2">
  <advance width="814"/>
  <unicode hex="00B4"/>
  <anchor x="291.0" y="1197.0" name="mkmktop_acc"/>
  <outline>
    <contour>
      <point x="269.8" y="1172.4" type="line"/>
      <point x="463.6" y="1424.8" type="line"/>
      <point x="592.6" y="1333.0" type="line"/>
      <point x="352.4" y="1104.3999999999999" type="line"/>
    </contour>
  </outline>
</glyph>
<glyph name="periodcentered" format="2">
  <advance width="560"/>
  <unicode hex="00B7"/>
  <outline>
    <contour>
      <point x="171.6" y="749.0" type="qcurve" smooth="yes"/>
      <point x="171.6" y="792.0"/>
      <point x="227.6" y="853.6"/>
      <point x="280.0" y="853.6" type="qcurve" smooth="yes"/>
      <point x="332.4" y="853.6"/>
      <point x="388.4" y="792.0"/>
      <point x="388.4" y="749.0" type="qcurve" smooth="yes"/>
      <point x="388.4" y="706.0"/>
      <point x="332.4" y="644.4"/>
      <point x="280.0" y="644.4" type="qcurve" smooth="yes"/>
      <point x="227.6" y="644.4"/>
      <point x="171.6" y="706.0"/>
    </contour>
  </outline>
</glyph>
<glyph name="cedilla" format="2">
  <advance width="814"/>
  <unicode hex="00B8"/>
  <outline>
    <contour>
      <point x="348.79999999999995" y="38.8" type="line"/>
      <point x="454.6" y="38.8" type="line"/>
      <point x="432.6" y="-42.2" type="line"/>
      <point x="488.0" y="-50.2"/>
      <point x="591.2" y="-117.0"/>
      <point x="591.2" y="-194.0" type="qcurve" smooth="yes"/>
      <point x="591.2" y="-283.0"/>
      <point x="437.5999999999999" y="-379.0"/>
      <point x="270.4" y="-379.0" type="qcurve"/>
      <point x="267.0" y="-283.59999999999997" type="line"/>
      <point x="377.4" y="-283.59999999999997"/>
      <point x="445.6" y="-244.2"/>
      <point x="445.6" y="-197.6" type="qcurve" smooth="yes"/>
      <point x="445.6" y="-155.0"/>
      <point x="387.4" y="-124.00000000000001"/>
      <point x="311.0" y="-119.8" type="qcurve"/>
    </contour>
  </outline>
</glyph>
<glyph name="onesuperior" format="2">
  <advance width="610"/>
  <unicode hex="00B9"/>
  <outline>
    <contour>
      <point x="87.0" y="1234.2" type="line"/>
      <point x="87.0" y="1364.8" type="line"/>
      <point x="357.0" y="1474.0" type="line"/>
      <point x="405.0" y="1474.0" type="line"/>
      <point x="405.0" y="684.6" type="line"/>
      <point x="273.0" y="684.6" type="line"/>
      <point x="273.0" y="1310.8" type="line"/>
    </contour>
  </outline>
</glyph>
<glyph name="ordmasculine" format="2">
  <advance width="932"/>
  <unicode hex="00BA"/>
  <guideline x="0" y="1975.0" angle="0" identifier="Jnt0R9CyOf"/>
  <outline>
    <contour>
      <point x="123.0" y="1043.0" type="qcurve"/>
      <point x="123.0" y="1043.0"/>
      <point x="123.00000000000001" y="1124.0"/>
      <point x="123.0" y="1124.0" type="curve"/>
      <point x="123.0" y="1277.892537313433"/>
      <point x="308.1134328358209" y="1477.0"/>
      <point x="465.00000000000006" y="1477.0" type="qcurve" smooth="yes"/>
      <point x="623.0835820895522" y="1477.0"/>
      <point x="807.0" y="1277.8925373134327"/>
      <point x="807.0" y="1124.0" type="qcurve"/>
      <point x="807.0" y="1043.0" type="line"/>
      <point x="807.0" y="889.107462686567"/>
      <point x="624.0" y="691.0"/>
      <point x="467.0" y="691.0" type="qcurve" smooth="yes"/>
      <point x="309.0" y="691.0"/>
      <point x="123.0" y="889.0"/>
    </contour>
    <contour>
      <point x="286.0" y="1124.0" type="qcurve"/>
      <point x="286.0" y="1043.0" type="line"/>
      <point x="286.0" y="951.9820895522388"/>
      <point x="375.08358208955224" y="830.0"/>
      <point x="467.0" y="830.0" type="qcurve" smooth="yes"/>
      <point x="555.9223880597015" y="830.0"/>
      <point x="645.0" y="951.9820895522388"/>
      <point x="645.0" y="1043.0" type="qcurve"/>
      <point x="645.0" y="1124.0" type="line"/>
      <point x="645.0" y="1212.9223880597015"/>
      <point x="555.1194029850745" y="1336.0"/>
      <point x="465.0" y="1336.0" type="qcurve" smooth="yes"/>
      <point x="374.8805970149254" y="1336.0"/>
      <point x="286.0" y="1212.9223880597015"/>
    </contour>
  </outline>
</glyph>
<glyph name="primemod" format="2">
  <advance width="480"/>
  <unicode hex="02B9"/>
  <outline>
    <contour>
      <point x="184.0" y="1494.0" type="line"/>
      <point x="345.0" y="1494.0" type="line"/>
      <point x="234.0" y="991.0" type="line"/>
      <point x="132.0" y="996.0" type="line"/>
    </contour>
  </outline>
</glyph>
<glyph name="doubleprimemod" format="2">
  <advance width="669"/>
  <unicode hex="02BA"/>
  <outline>
    <contour>
      <point x="184.0" y="1494.0" type="line"/>
      <point x="345.0" y="1494.0" type="line"/>
      <point x="234.6" y="998.8" type="line"/>
      <point x="132.6" y="1003.8" type="line"/>
    </contour>
    <contour>
      <point x="440.0" y="1494.0" type="line"/>
      <point x="601.0" y="1494.0" type="line"/>
      <point x="490.6" y="998.8" type="line"/>
      <point x="388.6" y="1003.8" type="line"/>
    </contour>
  </outline>
</glyph>
<glyph name="apostrophemod" format="2">
  <advance width="491"/>
  <unicode hex="02BC"/>
  <outline>
    <contour>
      <point x="124.6" y="1113.2" type="line"/>
      <point x="157.8" y="1138.4"/>
      <point x="244.2" y="1238.4"/>
      <point x="256.4" y="1295.0" type="qcurve"/>
      <point x="197.39999999999998" y="1295.0"/>
      <point x="131.0" y="1358.4"/>
      <point x="131.0" y="1408.6" type="qcurve" smooth="yes"/>
      <point x="131.0" y="1457.4"/>
      <point x="198.39999999999998" y="1522.8"/>
      <point x="250.6" y="1522.8" type="qcurve" smooth="yes"/>
      <point x="299.6" y="1522.8"/>
      <point x="379.2" y="1441.6"/>
      <point x="379.2" y="1376.2" type="qcurve" smooth="yes"/>
      <point x="379.2" y="1273.0"/>
      <point x="247.39999999999998" y="1113.8"/>
      <point x="160.0" y="1071.4" type="qcurve"/>
    </contour>
  </outline>
</glyph>
<glyph name="circumflex" format="2">
  <advance width="814"/>
  <unicode hex="02C6"/>
  <anchor x="471.0" y="1637.0" name="mkmktop_acc"/>
  <outline>
    <contour>
      <point x="455.20000000000005" y="1370.8000000000002" type="line"/>
      <point x="656.0" y="1106.6000000000001" type="line"/>
      <point x="524.0" y="1106.6000000000001" type="line"/>
      <point x="405.19999999999993" y="1238.0" type="line"/>
      <point x="287.40000000000003" y="1106.6000000000001" type="line"/>
      <point x="157.0" y="1106.6000000000001" type="line"/>
      <point x="355.20000000000005" y="1370.8000000000002" type="line"/>
    </contour>
  </outline>
</glyph>
<glyph name="caron" format="2">
  <advance width="814"/>
  <unicode hex="02C7"/>
  <anchor x="450.0" y="1627.0" name="mkmktop_acc"/>
  <outline>
    <contour>
      <point x="357.8" y="1090.6000000000001" type="line"/>
      <point x="157.0" y="1354.8000000000002" type="line"/>
      <point x="289.0" y="1354.8000000000002" type="line"/>
      <point x="407.79999999999995" y="1223.3999999999999" type="line"/>
      <point x="525.6" y="1354.8000000000002" type="line"/>
      <point x="656.0" y="1354.8000000000002" type="line"/>
      <point x="457.8" y="1090.6000000000001" type="line"/>
    </contour>
  </outline>
</glyph>
<glyph name="breve" format="2">
  <advance width="813"/>
  <unicode hex="02D8"/>
  <anchor x="429.0" y="1606.0" name="mkmktop_acc"/>
  <outline>
    <contour>
      <point x="593.5999999999999" y="1360.4" type="qcurve"/>
      <point x="675.4" y="1316.4" type="line"/>
      <point x="648.8" y="1231.0"/>
      <point x="508.19999999999993" y="1100.4"/>
      <point x="407.80000000000007" y="1100.4" type="qcurve" smooth="yes"/>
      <point x="315.2" y="1100.4"/>
      <point x="173.0" y="1219.8"/>
      <point x="140.60000000000002" y="1318.2" type="qcurve"/>
      <point x="229.0" y="1361.2" type="line"/>
      <point x="257.2" y="1310.6"/>
      <point x="345.79999999999995" y="1233.6"/>
      <point x="408.80000000000007" y="1233.6" type="qcurve" smooth="yes"/>
      <point x="474.79999999999995" y="1233.6"/>
      <point x="564.8" y="1308.2"/>
    </contour>
  </outline>
</glyph>
<glyph name="dotaccent" format="2">
  <advance width="814"/>
  <unicode hex="02D9"/>
  <anchor x="250.0" y="1572.0" name="mkmktop_acc"/>
  <outline>
    <contour>
      <point x="302.4" y="1218.6" type="qcurve" smooth="yes"/>
      <point x="302.4" y="1257.3999999999999"/>
      <point x="360.0" y="1320.6"/>
      <point x="407.2" y="1320.6" type="qcurve" smooth="yes"/>
      <point x="453.4" y="1320.6"/>
      <point x="512.0" y="1257.3999999999999"/>
      <point x="512.0" y="1218.6" type="qcurve" smooth="yes"/>
      <point x="512.0" y="1179.8"/>
      <point x="453.4" y="1117.6"/>
      <point x="407.2" y="1117.6" type="qcurve" smooth="yes"/>
      <point x="360.0" y="1117.6"/>
      <point x="302.4" y="1179.8"/>
    </contour>
  </outline>
</glyph>
<glyph name="ring" format="2">
  <advance width="814"/>
  <unicode hex="02DA"/>
  <anchor x="336.0" y="1693.0" name="mkmktop_acc"/>
  <outline>
    <contour>
      <point x="218.79999999999995" y="1261.8000000000002" type="qcurve"/>
      <point x="218.79999999999995" y="1337.0"/>
      <point x="326.8" y="1444.6"/>
      <point x="407.2" y="1444.6" type="qcurve" smooth="yes"/>
      <point x="485.6" y="1444.6"/>
      <point x="595.6" y="1337.0"/>
      <point x="595.6" y="1261.8000000000002" type="qcurve" smooth="yes"/>
      <point x="595.6" y="1184.8000000000002"/>
      <point x="485.6" y="1081.8"/>
      <point x="407.2" y="1081.8" type="qcurve" smooth="yes"/>
      <point x="326.8" y="1081.8"/>
      <point x="218.79999999999995" y="1184.8000000000002"/>
    </contour>
    <contour>
      <point x="312.0" y="1261.4" type="qcurve"/>
      <point x="312.0" y="1224.6000000000001"/>
      <point x="365.4" y="1166.4"/>
      <point x="407.2" y="1166.4" type="qcurve" smooth="yes"/>
      <point x="449.0" y="1166.4"/>
      <point x="502.4" y="1223.0"/>
      <point x="502.4" y="1261.4" type="qcurve" smooth="yes"/>
      <point x="502.4" y="1299.0"/>
      <point x="449.0" y="1358.2"/>
      <point x="407.2" y="1358.2" type="qcurve" smooth="yes"/>
      <point x="365.4" y="1358.2"/>
      <point x="312.0" y="1299.0"/>
    </contour>
  </outline>
</glyph>
<glyph name="ogonek" format="2">
  <advance width="754"/>
  <unicode hex="02DB"/>
  <outline>
    <contour>
      <point x="385.79999999999995" y="45.4" type="qcurve"/>
      <point x="450.19999999999993" y="-1.5999999999999996" type="line"/>
      <point x="399.79999999999995" y="-45.199999999999996"/>
      <point x="322.8" y="-132.2"/>
      <point x="322.8" y="-178.79999999999998" type="qcurve" smooth="yes"/>
      <point x="322.8" y="-206.6"/>
      <point x="351.79999999999995" y="-241.39999999999998"/>
      <point x="390.0" y="-241.39999999999998" type="qcurve" smooth="yes"/>
      <point x="421.0" y="-241.39999999999998"/>
      <point x="469.80000000000007" y="-223.6"/>
      <point x="484.40000000000003" y="-214.4" type="qcurve"/>
      <point x="500.4" y="-313.6" type="line"/>
      <point x="479.0" y="-328.59999999999997"/>
      <point x="406.4" y="-359.2"/>
      <point x="354.20000000000005" y="-359.2" type="qcurve" smooth="yes"/>
      <point x="284.79999999999995" y="-359.2"/>
      <point x="192.20000000000002" y="-278.0"/>
      <point x="192.20000000000002" y="-201.0" type="qcurve" smooth="yes"/>
      <point x="192.20000000000002" y="-139.4"/>
      <point x="281.0" y="-13.2"/>
    </contour>
  </outline>
</glyph>
<glyph name="tilde" format="2">
  <advance width="814"/>
  <unicode hex="02DC"/>
  <anchor x="475.0" y="1598.0" name="mkmktop_acc"/>
  <outline>
    <contour>
      <point x="121.60000000000001" y="1201.6000000000001" type="line"/>
      <point x="149.39999999999998" y="1252.2"/>
      <point x="257.0" y="1329.8000000000002"/>
      <point x="307.2" y="1329.8000000000002" type="qcurve" smooth="yes"/>
      <point x="342.2" y="1329.8000000000002"/>
      <point x="405.2" y="1307.2"/>
      <point x="434.20000000000005" y="1288.0" type="qcurve" smooth="yes"/>
      <point x="461.0" y="1270.0"/>
      <point x="519.8" y="1238.0"/>
      <point x="549.8" y="1238.0" type="qcurve" smooth="yes"/>
      <point x="581.4" y="1238.0"/>
      <point x="635.8" y="1276.6"/>
      <point x="656.0" y="1306.6" type="qcurve"/>
      <point x="722.1999999999999" y="1225.3999999999999" type="line"/>
      <point x="690.1999999999999" y="1168.0"/>
      <point x="588.4" y="1110.0"/>
      <point x="542.2" y="1110.0" type="qcurve" smooth="yes"/>
      <point x="502.4" y="1110.0"/>
      <point x="426.79999999999995" y="1142.1999999999998"/>
      <point x="401.0" y="1157.2" type="qcurve" smooth="yes"/>
      <point x="374.20000000000005" y="1173.0"/>
      <point x="320.6" y="1200.6"/>
      <point x="298.0" y="1200.6" type="qcurve" smooth="yes"/>
      <point x="261.0" y="1200.6"/>
      <point x="201.59999999999997" y="1147.8"/>
      <point x="186.0" y="1124.8" type="qcurve"/>
    </contour>
  </outline>
</glyph>
<glyph name="hungarumlaut" format="2">
  <advance width="814"/>
  <unicode hex="02DD"/>
  <outline>
    <contour>
      <point x="296.20000000000005" y="1164.0" type="line"/>
      <point x="475.60000000000014" y="1418.4" type="line"/>
      <point x="598.5999999999999" y="1337.3999999999999" type="line"/>
      <point x="373.99999999999994" y="1098.3999999999999" type="line"/>
    </contour>
    <contour>
      <point x="421.0" y="1164.8000000000002" type="line"/>
      <point x="596.0" y="1418.8000000000002" type="line"/>
      <point x="718.2" y="1337.3999999999999" type="line"/>
      <point x="498.00000000000006" y="1098.3999999999999" type="line"/>
    </contour>
  </outline>
</glyph>
<glyph name="hookabovecomb" format="2">
  <advance width="814"/>
  <unicode hex="0309"/>
  <outline>
    <contour>
      <point x="333.59999999999997" y="1071.4" type="line"/>
      <point x="333.59999999999997" y="1098.8" type="line" smooth="yes"/>
      <point x="333.59999999999997" y="1143.2"/>
      <point x="379.8" y="1201.6"/>
      <point x="445.80000000000007" y="1208.2" type="qcurve" smooth="yes"/>
      <point x="488.59999999999997" y="1213.0"/>
      <point x="519.0" y="1241.0"/>
      <point x="519.0" y="1273.2" type="qcurve" smooth="yes"/>
      <point x="519.0" y="1303.3999999999999"/>
      <point x="474.40000000000003" y="1333.8"/>
      <point x="432.80000000000007" y="1333.8" type="qcurve" smooth="yes"/>
      <point x="380.79999999999995" y="1333.8"/>
      <point x="289.20000000000005" y="1307.2"/>
      <point x="276.4" y="1298.8" type="qcurve"/>
      <point x="231.2" y="1401.4" type="line"/>
      <point x="259.4" y="1418.0"/>
      <point x="388.2" y="1452.6"/>
      <point x="453.80000000000007" y="1452.6" type="qcurve" smooth="yes"/>
      <point x="547.0" y="1452.6"/>
      <point x="650.8" y="1362.2"/>
      <point x="650.8" y="1283.4" type="qcurve" smooth="yes"/>
      <point x="650.8" y="1200.4"/>
      <point x="545.6" y="1102.1999999999998"/>
      <point x="436.19999999999993" y="1095.6000000000001" type="qcurve"/>
      <point x="436.19999999999993" y="1071.4" type="line"/>
    </contour>
  </outline>
</glyph>
<glyph name="breveinvertedcomb" format="2">
  <advance width="814"/>
  <unicode hex="030F"/>
  <outline>
    <contour>
      <point x="204.0" y="1110.0" type="qcurve"/>
      <point x="123.80000000000001" y="1153.2" type="line"/>
      <point x="153.6" y="1239.0"/>
      <point x="301.0" y="1384.4"/>
      <point x="407.0" y="1384.4" type="qcurve" smooth="yes"/>
      <point x="502.0" y="1384.4"/>
      <point x="654.6" y="1251.3999999999999"/>
      <point x="690.2" y="1152.2" type="qcurve"/>
      <point x="602.6" y="1110.0" type="line"/>
      <point x="572.8" y="1159.8"/>
      <point x="472.6" y="1245.6"/>
      <point x="406.0" y="1245.6" type="qcurve" smooth="yes"/>
      <point x="335.20000000000005" y="1245.6"/>
      <point x="234.39999999999998" y="1163.0"/>
    </contour>
  </outline>
</glyph>
<glyph name="horncomb" format="2">
  <advance width="814"/>
  <unicode hex="031B"/>
  <outline>
    <contour>
      <point x="40.0" y="964.4" type="line"/>
      <point x="108.0" y="964.4" type="line" smooth="yes"/>
      <point x="153.2" y="964.4"/>
      <point x="216.0" y="994.4"/>
      <point x="216.0" y="1046.4" type="qcurve" smooth="yes"/>
      <point x="216.0" y="1085.6"/>
      <point x="203.4" y="1150.2"/>
      <point x="189.0" y="1185.4" type="qcurve"/>
      <point x="311.0" y="1185.4" type="line"/>
      <point x="330.2" y="1152.4"/>
      <point x="360.0" y="1064.2"/>
      <point x="360.0" y="1009.4" type="qcurve" smooth="yes"/>
      <point x="360.0" y="935.4"/>
      <point x="252.4" y="856.8"/>
      <point x="162.8" y="856.8" type="qcurve" smooth="yes"/>
      <point x="122.80000000000001" y="856.8"/>
      <point x="63.2" y="869.6"/>
      <point x="40.0" y="877.4" type="qcurve"/>
    </contour>
  </outline>
</glyph>
<glyph name="dotbelowcomb" format="2">
  <advance width="814"/>
  <unicode hex="0323"/>
  <outline>
    <contour>
      <point x="306.4" y="-247.8" type="qcurve" smooth="yes"/>
      <point x="306.4" y="-200.0"/>
      <point x="357.6" y="-148.0"/>
      <point x="407.2" y="-148.0" type="qcurve" smooth="yes"/>
      <point x="453.19999999999993" y="-148.0"/>
      <point x="508.0" y="-203.6"/>
      <point x="508.0" y="-247.8" type="qcurve" smooth="yes"/>
      <point x="508.0" y="-296.2"/>
      <point x="456.79999999999995" y="-348.20000000000005"/>
      <point x="407.2" y="-348.20000000000005" type="qcurve" smooth="yes"/>
      <point x="361.2" y="-348.20000000000005"/>
      <point x="306.4" y="-292.6"/>
    </contour>
  </outline>
</glyph>
<glyph name="dieresisbelowcomb" format="2">
  <advance width="814"/>
  <unicode hex="0324"/>
  <outline>
    <contour>
      <point x="111.19999999999999" y="-276.8" type="qcurve" smooth="yes"/>
      <point x="111.19999999999999" y="-229.00000000000003"/>
      <point x="162.39999999999998" y="-178.0"/>
      <point x="210.39999999999998" y="-178.0" type="qcurve" smooth="yes"/>
      <point x="255.79999999999998" y="-178.0"/>
      <point x="309.6" y="-232.6"/>
      <point x="309.6" y="-276.8" type="qcurve" smooth="yes"/>
      <point x="309.6" y="-323.6"/>
      <point x="259.0" y="-374.6"/>
      <point x="210.39999999999998" y="-374.6" type="qcurve" smooth="yes"/>
      <point x="165.0" y="-374.6"/>
      <point x="111.19999999999999" y="-321.0"/>
    </contour>
    <contour>
      <point x="503.99999999999994" y="-276.8" type="qcurve" smooth="yes"/>
      <point x="503.99999999999994" y="-228.99999999999997"/>
      <point x="555.5999999999999" y="-178.0"/>
      <point x="603.2" y="-178.0" type="qcurve" smooth="yes"/>
      <point x="648.6" y="-178.0"/>
      <point x="702.4" y="-232.60000000000002"/>
      <point x="702.4" y="-276.8" type="qcurve" smooth="yes"/>
      <point x="702.4" y="-323.59999999999997"/>
      <point x="651.8" y="-374.6"/>
      <point x="603.2" y="-374.6" type="qcurve" smooth="yes"/>
      <point x="557.8" y="-374.6"/>
      <point x="503.99999999999994" y="-321.0"/>
    </contour>
  </outline>
</glyph>
<glyph name="commaaccentcomb" format="2">
  <advance width="814"/>
  <unicode hex="0326"/>
  <outline>
    <contour>
      <point x="287.0" y="-464.0" type="line"/>
      <point x="316.0" y="-360.0"/>
      <point x="346.4" y="-251.6"/>
      <point x="371.0" y="-136.0" type="qcurve"/>
      <point x="537.4" y="-134.8" type="line"/>
      <point x="422.4" y="-467.8" type="line"/>
    </contour>
  </outline>
</glyph>
<glyph name="brevebelowcomb" format="2">
  <advance width="814"/>
  <unicode hex="032E"/>
  <outline>
    <contour>
      <point x="639.4000000000001" y="-122.6" type="qcurve"/>
      <point x="718.4" y="-175.4" type="line"/>
      <point x="686.6" y="-266.40000000000003"/>
      <point x="523.2" y="-406.59999999999997"/>
      <point x="406.4" y="-406.59999999999997" type="qcurve" smooth="yes"/>
      <point x="302.4" y="-406.59999999999997"/>
      <point x="134.2" y="-277.59999999999997"/>
      <point x="95.0" y="-174.4" type="qcurve"/>
      <point x="180.2" y="-122.6" type="line"/>
      <point x="214.79999999999995" y="-178.4"/>
      <point x="330.59999999999997" y="-264.8"/>
      <point x="406.79999999999995" y="-264.8" type="qcurve" smooth="yes"/>
      <point x="488.4" y="-264.8"/>
      <point x="604.0" y="-183.4"/>
    </contour>
  </outline>
</glyph>
<glyph name="macronbelowcomb" format="2">
  <advance width="814"/>
  <unicode hex="0331"/>
  <outline>
    <contour>
      <point x="168.0" y="-235.0" type="line"/>
      <point x="168.0" y="-101.8" type="line"/>
      <point x="646.4" y="-101.8" type="line"/>
      <point x="646.4" y="-235.0" type="line"/>
    </contour>
  </outline>
</glyph>
<glyph name="endash" format="2">
  <advance width="814"/>
  <unicode hex="2013"/>
  <outline>
    <contour>
      <point x="0.0" y="532.0" type="line"/>
      <point x="0.0" y="672.0" type="line"/>
      <point x="814.4" y="672.0" type="line"/>
      <point x="814.4" y="532.0" type="line"/>
    </contour>
  </outline>
</glyph>
<glyph name="emdash" format="2">
  <advance width="1629"/>
  <unicode hex="2014"/>
  <outline>
    <contour>
      <point x="193.2" y="532.0" type="line"/>
      <point x="193.2" y="672.4" type="line"/>
      <point x="1435.6" y="672.4" type="line"/>
      <point x="1435.6" y="532.0" type="line"/>
    </contour>
  </outline>
</glyph>
<glyph name="horizontalbar" format="2">
  <advance width="500"/>
  <unicode hex="2015"/>
  <outline>
    <contour>
      <point x="12.799999999999997" y="646.0" type="line"/>
      <point x="12.799999999999997" y="788.0" type="line"/>
      <point x="459.0" y="788.0" type="line"/>
      <point x="459.0" y="646.0" type="line"/>
    </contour>
  </outline>
</glyph>
<glyph name="quoteleft" format="2">
  <advance width="351"/>
  <unicode hex="2018"/>
  <outline>
    <contour>
      <point x="80.0" y="1118.6" type="line"/>
      <point x="80.0" y="1223.2" type="line" smooth="yes"/>
      <point x="80.0" y="1301.6"/>
      <point x="156.2" y="1478.4"/>
      <point x="225.20000000000002" y="1537.2" type="qcurve"/>
      <point x="313.0" y="1473.8" type="line"/>
      <point x="274.2" y="1417.0"/>
      <point x="232.6" y="1296.0"/>
      <point x="232.6" y="1225.8" type="qcurve" smooth="yes"/>
      <point x="232.6" y="1118.6" type="line"/>
    </contour>
  </outline>
</glyph>
<glyph name="quoteright" format="2">
  <advance width="351"/>
  <unicode hex="2019"/>
  <outline>
    <contour>
      <point x="271.2" y="1457.2" type="line"/>
      <point x="271.2" y="1348.4" type="line" smooth="yes"/>
      <point x="271.2" y="1270.0"/>
      <point x="195.0" y="1093.2"/>
      <point x="126.60000000000001" y="1034.4" type="qcurve"/>
      <point x="38.199999999999996" y="1097.8" type="line"/>
      <point x="77.6" y="1154.6"/>
      <point x="118.0" y="1275.6000000000001"/>
      <point x="118.0" y="1345.8" type="qcurve" smooth="yes"/>
      <point x="118.0" y="1457.2" type="line"/>
    </contour>
  </outline>
</glyph>
<glyph name="quotedblleft" format="2">
  <advance width="687"/>
  <unicode hex="201C"/>
  <outline>
    <contour>
      <point x="80.0" y="1118.6" type="line"/>
      <point x="80.0" y="1223.2" type="line" smooth="yes"/>
      <point x="80.0" y="1301.6"/>
      <point x="156.2" y="1478.4"/>
      <point x="225.2" y="1537.2" type="qcurve"/>
      <point x="313.0" y="1473.8" type="line"/>
      <point x="274.2" y="1417.0"/>
      <point x="232.6" y="1296.0"/>
      <point x="232.6" y="1225.8" type="qcurve" smooth="yes"/>
      <point x="232.6" y="1118.6" type="line"/>
    </contour>
    <contour>
      <point x="416.0" y="1118.6" type="line"/>
      <point x="416.0" y="1223.2" type="line" smooth="yes"/>
      <point x="416.0" y="1301.6"/>
      <point x="492.2" y="1478.4"/>
      <point x="561.2" y="1537.2" type="qcurve"/>
      <point x="649.0" y="1473.8" type="line"/>
      <point x="610.2" y="1417.0"/>
      <point x="568.6" y="1296.0"/>
      <point x="568.6" y="1225.8" type="qcurve" smooth="yes"/>
      <point x="568.6" y="1118.6" type="line"/>
    </contour>
  </outline>
</glyph>
<glyph name="quotedblright" format="2">
  <advance width="683"/>
  <unicode hex="201D"/>
  <outline>
    <contour>
      <point x="271.2" y="1457.2" type="line"/>
      <point x="271.2" y="1348.4" type="line" smooth="yes"/>
      <point x="271.2" y="1270.0"/>
      <point x="195.0" y="1093.2"/>
      <point x="126.6" y="1034.4" type="qcurve"/>
      <point x="38.2" y="1097.8" type="line"/>
      <point x="77.6" y="1154.6"/>
      <point x="118.0" y="1275.6"/>
      <point x="118.0" y="1345.8" type="qcurve" smooth="yes"/>
      <point x="118.0" y="1457.2" type="line"/>
    </contour>
    <contour>
      <point x="603.2" y="1457.2" type="line"/>
      <point x="603.2" y="1348.4" type="line" smooth="yes"/>
      <point x="603.2" y="1270.0"/>
      <point x="527.0" y="1093.2"/>
      <point x="458.6" y="1034.4" type="qcurve"/>
      <point x="370.2" y="1097.8" type="line"/>
      <point x="409.6" y="1154.6"/>
      <point x="450.0" y="1275.6"/>
      <point x="450.0" y="1345.8" type="qcurve" smooth="yes"/>
      <point x="450.0" y="1457.2" type="line"/>
    </contour>
  </outline>
</glyph>
<glyph name="quotedblbase" format="2">
  <advance width="683"/>
  <unicode hex="201E"/>
  <outline>
    <contour>
      <point x="271.2" y="194.4" type="line"/>
      <point x="271.2" y="85.6" type="line" smooth="yes"/>
      <point x="271.2" y="7.2"/>
      <point x="195.0" y="-169.6"/>
      <point x="126.6" y="-228.4" type="qcurve"/>
      <point x="38.2" y="-165.0" type="line"/>
      <point x="77.6" y="-108.19999999999999"/>
      <point x="118.0" y="12.8"/>
      <point x="118.0" y="83.0" type="qcurve" smooth="yes"/>
      <point x="118.0" y="194.4" type="line"/>
    </contour>
    <contour>
      <point x="603.2" y="194.4" type="line"/>
      <point x="603.2" y="85.6" type="line" smooth="yes"/>
      <point x="603.2" y="7.2"/>
      <point x="527.0" y="-169.6"/>
      <point x="458.6" y="-228.4" type="qcurve"/>
      <point x="370.2" y="-165.0" type="line"/>
      <point x="409.6" y="-108.19999999999999"/>
      <point x="450.0" y="12.8"/>
      <point x="450.0" y="83.0" type="qcurve" smooth="yes"/>
      <point x="450.0" y="194.4" type="line"/>
    </contour>
  </outline>
</glyph>
<glyph name="minute" format="2">
  <advance width="526"/>
  <unicode hex="2032"/>
  <outline>
    <contour>
      <point x="84.8" y="990.0" type="line"/>
      <point x="323.0" y="1531.0" type="line"/>
      <point x="476.0" y="1448.4" type="line"/>
      <point x="186.2" y="927.6" type="line"/>
    </contour>
  </outline>
</glyph>
<glyph name="second" format="2">
  <advance width="846"/>
  <unicode hex="2033"/>
  <outline>
    <contour>
      <point x="84.8" y="990.0" type="line"/>
      <point x="323.0" y="1531.0" type="line"/>
      <point x="476.0" y="1448.4" type="line"/>
      <point x="186.2" y="927.6" type="line"/>
    </contour>
    <contour>
      <point x="404.79999999999995" y="990.0" type="line"/>
      <point x="643.0" y="1531.0" type="line"/>
      <point x="796.0" y="1448.4" type="line"/>
      <point x="506.2" y="927.6" type="line"/>
    </contour>
  </outline>
</glyph>
<glyph name="foursuperior" format="2">
  <advance width="580"/>
  <unicode hex="2074"/>
  <outline>
    <contour>
      <point x="46.199999999999996" y="866.0" type="line"/>
      <point x="38.0" y="966.0" type="line"/>
      <point x="324.4" y="1480.0" type="line"/>
      <point x="418.4" y="1480.0" type="line"/>
      <point x="306.6" y="1252.0" type="line"/>
      <point x="158.8" y="974.8" type="line"/>
      <point x="541.6" y="974.8" type="line"/>
      <point x="541.6" y="866.0" type="line"/>
    </contour>
    <contour>
      <point x="460.00000000000006" y="1480.0" type="line"/>
      <point x="460.00000000000006" y="684.6" type="line"/>
      <point x="332.6" y="684.6" type="line"/>
      <point x="334.6" y="1480.0" type="line"/>
    </contour>
  </outline>
</glyph>
<glyph name="minus" format="2">
  <advance width="762"/>
  <unicode hex="2212"/>
  <outline>
    <contour>
      <point x="41.8" y="600.0" type="line"/>
      <point x="41.8" y="752.0" type="line"/>
      <point x="719.8" y="752.0" type="line"/>
      <point x="719.8" y="600.0" type="line"/>
    </contour>
  </outline>
</glyph>
<glyph name="acutecomb.case" format="2">
  <advance width="814"/>
  <outline>
    <contour>
      <point x="293.6" y="1592.3999999999999" type="line"/>
      <point x="480.6" y="1873.4" type="line"/>
      <point x="615.8" y="1782.3999999999999" type="line"/>
      <point x="393.0" y="1534.2" type="line"/>
    </contour>
  </outline>
</glyph>
<glyph name="acutecombstack.case" format="2">
  <advance width="814"/>
  <outline>
    <contour>
      <point x="237.59999999999997" y="1649.3999999999999" type="line"/>
      <point x="478.6" y="1837.8" type="line"/>
      <point x="577.8" y="1702.6" type="line"/>
      <point x="311.2" y="1559.0" type="line"/>
    </contour>
  </outline>
</glyph>
<glyph name="brevecomb.case" format="2">
  <advance width="814"/>
  <outline>
    <contour>
      <point x="621.8" y="1847.6000000000001" type="qcurve"/>
      <point x="704.4" y="1794.0" type="line"/>
      <point x="674.5999999999999" y="1709.0"/>
      <point x="520.4" y="1574.3999999999999"/>
      <point x="407.2" y="1574.3999999999999" type="qcurve" smooth="yes"/>
      <point x="303.6" y="1574.3999999999999"/>
      <point x="148.2" y="1696.2"/>
      <point x="110.19999999999999" y="1794.2" type="qcurve"/>
      <point x="200.20000000000002" y="1848.4" type="line"/>
      <point x="232.0" y="1795.3999999999999"/>
      <point x="335.0" y="1712.6000000000001"/>
      <point x="407.6" y="1712.6000000000001" type="qcurve" smooth="yes"/>
      <point x="484.4" y="1712.6000000000001"/>
      <point x="588.8000000000001" y="1791.2"/>
    </contour>
  </outline>
</glyph>
<glyph name="brevecombstack.case" format="2">
  <advance width="814"/>
  <outline>
    <contour>
      <point x="604.4" y="1808.8" type="qcurve"/>
      <point x="696.6" y="1759.2" type="line"/>
      <point x="667.6" y="1684.6000000000001"/>
      <point x="517.8" y="1566.3999999999999"/>
      <point x="407.2" y="1566.3999999999999" type="qcurve" smooth="yes"/>
      <point x="305.6" y="1566.3999999999999"/>
      <point x="155.2" y="1673.3999999999999"/>
      <point x="118.0" y="1759.4" type="qcurve"/>
      <point x="217.6" y="1809.6" type="line"/>
      <point x="247.0" y="1764.0"/>
      <point x="340.2" y="1698.6000000000001"/>
      <point x="407.6" y="1698.6000000000001" type="qcurve" smooth="yes"/>
      <point x="479.2" y="1698.6000000000001"/>
      <point x="573.8000000000001" y="1760.4"/>
    </contour>
  </outline>
</glyph>
<glyph name="breveinvertedcomb.case" format="2">
  <advance width="814"/>
  <outline>
    <contour>
      <point x="174.0" y="1559.0" type="qcurve"/>
      <point x="95.0" y="1611.8000000000002" type="line"/>
      <point x="127.19999999999999" y="1697.6000000000001"/>
      <point x="290.20000000000005" y="1843.0"/>
      <point x="407.0" y="1843.0" type="qcurve" smooth="yes"/>
      <point x="511.0" y="1843.0"/>
      <point x="679.2" y="1710.0"/>
      <point x="718.4" y="1610.8000000000002" type="qcurve"/>
      <point x="633.1999999999999" y="1559.0" type="line"/>
      <point x="598.5999999999999" y="1612.3999999999999"/>
      <point x="482.79999999999995" y="1701.2"/>
      <point x="406.6" y="1701.2" type="qcurve" smooth="yes"/>
      <point x="325.0" y="1701.2"/>
      <point x="208.59999999999997" y="1616.1999999999998"/>
    </contour>
  </outline>
</glyph>
<glyph name="caroncomb.alt" format="2">
  <advance width="814"/>
  <outline>
    <contour>
      <point x="298.0" y="1092.0" type="line"/>
      <point x="391.6" y="1481.0" type="line"/>
      <point x="558.4" y="1432.6" type="line"/>
      <point x="402.79999999999995" y="1062.6" type="line"/>
    </contour>
  </outline>
</glyph>
<glyph name="caroncomb.case" format="2">
  <advance width="814"/>
  <outline>
    <contour>
      <point x="344.59999999999997" y="1560.6000000000001" type="line"/>
      <point x="133.59999999999997" y="1841.0" type="line"/>
      <point x="273.4" y="1842.2" type="line"/>
      <point x="401.8" y="1695.8" type="line"/>
      <point x="526.2" y="1841.0" type="line"/>
      <point x="669.1999999999999" y="1841.0" type="line"/>
      <point x="463.8" y="1560.6000000000001" type="line"/>
    </contour>
  </outline>
</glyph>
<glyph name="cedillacomb.case" format="2">
  <advance width="814"/>
  <outline>
    <contour>
      <point x="341.2" y="32.8" type="line"/>
      <point x="454.6" y="32.8" type="line"/>
      <point x="432.6" y="-66.2" type="line"/>
      <point x="501.20000000000005" y="-76.60000000000001"/>
      <point x="608.0" y="-153.0"/>
      <point x="608.0" y="-224.0" type="qcurve" smooth="yes"/>
      <point x="608.0" y="-319.0"/>
      <point x="415.6" y="-421.0"/>
      <point x="248.39999999999998" y="-421.0" type="qcurve"/>
      <point x="245.0" y="-306.20000000000005" type="line"/>
      <point x="347.0" y="-306.79999999999995"/>
      <point x="448.4" y="-274.2"/>
      <point x="448.4" y="-227.6" type="qcurve" smooth="yes"/>
      <point x="448.4" y="-185.0"/>
      <point x="379.79999999999995" y="-156.0"/>
      <point x="303.4" y="-151.8" type="qcurve"/>
    </contour>
  </outline>
</glyph>
<glyph name="circumflexcomb.case" format="2">
  <advance width="814"/>
  <outline>
    <contour>
      <point x="459.8" y="1858.2" type="line"/>
      <point x="674.8" y="1573.8" type="line"/>
      <point x="535.0" y="1572.6000000000001" type="line"/>
      <point x="402.6" y="1723.0" type="line"/>
      <point x="274.2" y="1573.8" type="line"/>
      <point x="131.2" y="1573.8" type="line"/>
      <point x="340.59999999999997" y="1858.2" type="line"/>
    </contour>
  </outline>
</glyph>
<glyph name="circumflexcombstack.case" format="2">
  <advance width="814"/>
  <outline>
    <contour>
      <point x="458.6" y="1787.0" type="line"/>
      <point x="674.8" y="1548.6" type="line"/>
      <point x="538.0" y="1547.4" type="line"/>
      <point x="402.6" y="1658.8" type="line"/>
      <point x="271.2" y="1548.6" type="line"/>
      <point x="131.2" y="1548.6" type="line"/>
      <point x="341.79999999999995" y="1787.0" type="line"/>
    </contour>
  </outline>
</glyph>
<glyph name="commaaccentcomb.case" format="2">
  <advance width="814"/>
  <outline>
    <contour>
      <point x="261.8" y="-536.0" type="line"/>
      <point x="290.4" y="-437.6"/>
      <point x="324.6" y="-296.2"/>
      <point x="351.79999999999995" y="-184.0" type="qcurve"/>
      <point x="525.4" y="-182.8" type="line"/>
      <point x="404.4" y="-539.8" type="line"/>
    </contour>
  </outline>
</glyph>
<glyph name="diagonalbarL" format="2">
  <advance width="587"/>
  <outline>
    <contour>
      <point x="70.39999999999999" y="467.20000000000005" type="line"/>
      <point x="0.0" y="584.0" type="line"/>
      <point x="507.19999999999993" y="906.2" type="line"/>
      <point x="578.5999999999999" y="792.4000000000001" type="line"/>
    </contour>
  </outline>
</glyph>
<glyph name="diagonalbarO" format="2">
  <advance width="507"/>
  <outline>
    <contour>
      <point x="17.4" y="-109.8" type="line"/>
      <point x="58.2" y="82.4" type="line"/>
      <point x="69.0" y="79.4" type="line"/>
      <point x="221.39999999999998" y="859.0" type="line"/>
      <point x="314.2" y="791.8" type="line"/>
      <point x="171.6" y="52.8" type="line"/>
      <point x="184.0" y="50.4" type="line"/>
      <point x="151.8" y="-106.6" type="line"/>
    </contour>
    <contour>
      <point x="350.4" y="1594.4" type="line"/>
      <point x="484.2" y="1598.0" type="line"/>
      <point x="444.4" y="1406.4" type="line"/>
      <point x="431.79999999999995" y="1408.4" type="line"/>
      <point x="314.2" y="791.8" type="line"/>
      <point x="221.39999999999998" y="859.0" type="line"/>
      <point x="330.2" y="1435.4" type="line"/>
      <point x="318.2" y="1438.8" type="line"/>
    </contour>
  </outline>
</glyph>
<glyph name="diagonalbarl" format="2">
  <advance width="541"/>
  <outline>
    <contour>
      <point x="71.2" y="491.8" type="line"/>
      <point x="0.0" y="614.0" type="line"/>
      <point x="209.39999999999998" y="761.4000000000001" type="line"/>
      <point x="461.19999999999993" y="964.0" type="line"/>
      <point x="532.0" y="838.8" type="line"/>
      <point x="277.6" y="660.8" type="line"/>
    </contour>
  </outline>
</glyph>
<glyph name="diagonalbaro" format="2">
  <advance width="408"/>
  <outline>
    <contour>
      <point x="-65.6" y="-88.4" type="line"/>
      <point x="-0.40000000000000036" y="100.6" type="line"/>
      <point x="10.4" y="97.6" type="line"/>
      <point x="166.2" y="551.1999999999999" type="line"/>
      <point x="252.79999999999998" y="502.4" type="line"/>
      <point x="107.0" y="71.4" type="line"/>
      <point x="119.0" y="69.0" type="line"/>
      <point x="61.4" y="-90.19999999999999" type="line"/>
    </contour>
    <contour>
      <point x="328.0" y="1066.3999999999999" type="line"/>
      <point x="459.4" y="1063.8" type="line"/>
      <point x="398.6" y="888.8000000000001" type="line"/>
      <point x="386.0" y="891.8000000000001" type="line"/>
      <point x="252.79999999999998" y="502.4" type="line"/>
      <point x="166.2" y="551.1999999999999" type="line"/>
      <point x="290.0" y="917.4" type="line"/>
      <point x="278.0" y="921.0" type="line"/>
    </contour>
  </outline>
</glyph>
<glyph name="dieresiscomb.case" format="2">
  <advance width="814"/>
  <outline>
    <contour>
      <point x="125.6" y="1696.6" type="qcurve" smooth="yes"/>
      <point x="125.6" y="1742.4"/>
      <point x="176.8" y="1795.0"/>
      <point x="224.8" y="1795.0" type="qcurve" smooth="yes"/>
      <point x="271.4" y="1795.0"/>
      <point x="324.4" y="1740.0"/>
      <point x="324.4" y="1696.6" type="qcurve" smooth="yes"/>
      <point x="324.4" y="1652.2"/>
      <point x="273.8" y="1600.0"/>
      <point x="224.8" y="1600.0" type="qcurve" smooth="yes"/>
      <point x="178.6" y="1600.0"/>
      <point x="125.6" y="1654.0"/>
    </contour>
    <contour>
      <point x="490.0" y="1695.8" type="qcurve" smooth="yes"/>
      <point x="490.0" y="1741.6"/>
      <point x="540.8" y="1794.2"/>
      <point x="589.2" y="1794.2" type="qcurve" smooth="yes"/>
      <point x="635.8" y="1794.2"/>
      <point x="688.8" y="1739.2"/>
      <point x="688.8" y="1695.8" type="qcurve" smooth="yes"/>
      <point x="688.8" y="1651.4"/>
      <point x="638.2" y="1599.2"/>
      <point x="589.2" y="1599.2" type="qcurve" smooth="yes"/>
      <point x="542.6" y="1599.2"/>
      <point x="490.0" y="1653.2"/>
    </contour>
  </outline>
</glyph>
<glyph name="dieresiscombstack.case" format="2">
  <advance width="814"/>
  <outline>
    <contour>
      <point x="120.8" y="1660.6" type="qcurve" smooth="yes"/>
      <point x="120.8" y="1706.4"/>
      <point x="172.0" y="1759.0"/>
      <point x="220.0" y="1759.0" type="qcurve" smooth="yes"/>
      <point x="266.6" y="1759.0"/>
      <point x="319.6" y="1704.0"/>
      <point x="319.6" y="1660.6" type="qcurve" smooth="yes"/>
      <point x="319.6" y="1616.2"/>
      <point x="269.0" y="1564.0"/>
      <point x="220.0" y="1564.0" type="qcurve" smooth="yes"/>
      <point x="173.8" y="1564.0"/>
      <point x="120.8" y="1618.0"/>
    </contour>
    <contour>
      <point x="494.79999999999995" y="1659.8" type="qcurve" smooth="yes"/>
      <point x="494.79999999999995" y="1705.6"/>
      <point x="545.6" y="1758.2"/>
      <point x="594.0" y="1758.2" type="qcurve" smooth="yes"/>
      <point x="640.6" y="1758.2"/>
      <point x="693.6" y="1703.2"/>
      <point x="693.6" y="1659.8" type="qcurve" smooth="yes"/>
      <point x="693.6" y="1615.4"/>
      <point x="643.0" y="1563.2"/>
      <point x="594.0" y="1563.2" type="qcurve" smooth="yes"/>
      <point x="547.4" y="1563.2"/>
      <point x="494.79999999999995" y="1617.2"/>
    </contour>
  </outline>
</glyph>
<glyph name="dollar.rvrn" format="2">
  <advance width="662"/>
  <outline>
    <contour>
      <point x="10.999999999999979" y="370.0" type="qcurve" smooth="yes"/>
      <point x="10.999999999999979" y="448.8" type="line"/>
      <point x="260.8" y="448.8" type="line"/>
      <point x="260.8" y="360.2" type="line" smooth="yes"/>
      <point x="259.80000000000007" y="265.4"/>
      <point x="283.3999999999999" y="181.0"/>
      <point x="325.8" y="181.0" type="qcurve" smooth="yes"/>
      <point x="366.79999999999995" y="181.0"/>
      <point x="384.20000000000005" y="270.4"/>
      <point x="384.20000000000005" y="373.20000000000005" type="qcurve" smooth="yes"/>
      <point x="384.20000000000005" y="481.4"/>
      <point x="358.79999999999995" y="588.6"/>
      <point x="276.19999999999993" y="631.5999999999999" type="qcurve" smooth="yes"/>
      <point x="153.6" y="693.1999999999999"/>
      <point x="20.6" y="887.6"/>
      <point x="20.6" y="1072.6" type="qcurve" smooth="yes"/>
      <point x="20.6" y="1288.3999999999999"/>
      <point x="185.00000000000003" y="1462.6"/>
      <point x="323.59999999999997" y="1462.6" type="qcurve" smooth="yes"/>
      <point x="461.7999999999999" y="1462.6"/>
      <point x="623.8000000000001" y="1310.4"/>
      <point x="623.8000000000001" y="1132.4" type="qcurve" smooth="yes"/>
      <point x="623.8000000000001" y="1022.8" type="line"/>
      <point x="377.59999999999997" y="1022.8" type="line"/>
      <point x="377.59999999999997" y="1123.6" type="line" smooth="yes"/>
      <point x="377.59999999999997" y="1194.8"/>
      <point x="360.8" y="1264.6000000000001"/>
      <point x="326.79999999999995" y="1264.6000000000001" type="qcurve" smooth="yes"/>
      <point x="291.79999999999995" y="1264.6000000000001"/>
      <point x="277.20000000000005" y="1185.0000000000002"/>
      <point x="277.20000000000005" y="1091.2" type="qcurve" smooth="yes"/>
      <point x="277.20000000000005" y="976.0000000000001"/>
      <point x="304.6" y="906.8"/>
      <point x="402.4" y="861.8000000000001" type="qcurve" smooth="yes"/>
      <point x="507.40000000000003" y="814.6"/>
      <point x="640.2" y="590.1999999999999"/>
      <point x="640.2" y="396.8" type="qcurve" smooth="yes"/>
      <point x="640.2" y="187.0"/>
      <point x="475.0" y="-7.200000000000002"/>
      <point x="334.20000000000005" y="-7.200000000000002" type="qcurve" smooth="yes"/>
      <point x="189.8" y="-7.200000000000002"/>
      <point x="10.999999999999979" y="146.0"/>
    </contour>
    <contour>
      <point x="227.60000000000008" y="-134.6" type="line"/>
      <point x="227.60000000000008" y="402.0" type="line"/>
      <point x="425.99999999999994" y="402.0" type="line"/>
      <point x="425.99999999999994" y="67.39999999999999" type="line"/>
      <point x="432.2" y="57.400000000000006" type="line"/>
      <point x="432.2" y="-134.6" type="line"/>
    </contour>
    <contour>
      <point x="234.0" y="1044.0" type="line"/>
      <point x="234.0" y="1381.6" type="line"/>
      <point x="229.0" y="1391.6" type="line"/>
      <point x="229.0" y="1582.0" type="line"/>
      <point x="433.59999999999997" y="1582.0" type="line"/>
      <point x="433.59999999999997" y="1044.0" type="line"/>
    </contour>
  </outline>
</glyph>
<glyph name="dotaccentcomb.case" format="2">
  <advance width="814"/>
  <outline>
    <contour>
      <point x="301.4" y="1703.6" type="qcurve" smooth="yes"/>
      <point x="301.4" y="1753.8"/>
      <point x="355.79999999999995" y="1807.2"/>
      <point x="407.2" y="1807.2" type="qcurve" smooth="yes"/>
      <point x="455.4" y="1807.2"/>
      <point x="513.0" y="1750.2"/>
      <point x="513.0" y="1703.6" type="qcurve" smooth="yes"/>
      <point x="513.0" y="1653.4"/>
      <point x="458.6" y="1600.0"/>
      <point x="407.2" y="1600.0" type="qcurve" smooth="yes"/>
      <point x="359.0" y="1600.0"/>
      <point x="301.4" y="1657.0"/>
    </contour>
  </outline>
</glyph>
<glyph name="dotaccentcombstack.case" format="2">
  <advance width="814"/>
  <outline>
    <contour>
      <point x="301.4" y="1699.6" type="qcurve" smooth="yes"/>
      <point x="301.4" y="1749.8"/>
      <point x="355.79999999999995" y="1803.2"/>
      <point x="407.2" y="1803.2" type="qcurve" smooth="yes"/>
      <point x="455.4" y="1803.2"/>
      <point x="513.0" y="1746.2"/>
      <point x="513.0" y="1699.6" type="qcurve" smooth="yes"/>
      <point x="513.0" y="1649.4"/>
      <point x="458.6" y="1596.0"/>
      <point x="407.2" y="1596.0" type="qcurve" smooth="yes"/>
      <point x="359.0" y="1596.0"/>
      <point x="301.4" y="1653.0"/>
    </contour>
  </outline>
</glyph>
<glyph name="eight.prop" format="2">
  <advance width="834"/>
  <outline>
    <contour>
      <point x="70.4" y="384.0" type="qcurve" smooth="yes"/>
      <point x="70.4" y="554.8"/>
      <point x="174.39999999999998" y="710.4"/>
      <point x="254.79999999999998" y="743.4" type="qcurve"/>
      <point x="254.79999999999998" y="746.2" type="line"/>
      <point x="191.2" y="779.2"/>
      <point x="104.39999999999999" y="923.8"/>
      <point x="104.39999999999999" y="1088.6" type="qcurve" smooth="yes"/>
      <point x="104.39999999999999" y="1293.4"/>
      <point x="281.6" y="1477.6"/>
      <point x="417.2" y="1477.6" type="qcurve" smooth="yes"/>
      <point x="552.4" y="1477.6"/>
      <point x="730.0" y="1298.2"/>
      <point x="730.0" y="1088.6" type="qcurve" smooth="yes"/>
      <point x="730.0" y="925.0"/>
      <point x="642.8" y="778.8"/>
      <point x="578.8" y="747.0" type="qcurve"/>
      <point x="578.8" y="744.2" type="line"/>
      <point x="660.4" y="713.2"/>
      <point x="764.0" y="555.2"/>
      <point x="764.0" y="384.0" type="qcurve" smooth="yes"/>
      <point x="764.0" y="164.8"/>
      <point x="566.0" y="-22.0"/>
      <point x="417.2" y="-22.0" type="qcurve" smooth="yes"/>
      <point x="268.4" y="-22.0"/>
      <point x="70.4" y="168.4"/>
    </contour>
    <contour>
      <point x="221.2" y="391.2" type="qcurve" smooth="yes"/>
      <point x="221.2" y="246.0"/>
      <point x="322.4" y="110.0"/>
      <point x="417.2" y="110.0" type="qcurve" smooth="yes"/>
      <point x="512.0" y="110.0"/>
      <point x="613.2" y="248.0"/>
      <point x="613.2" y="390.8" type="qcurve" smooth="yes"/>
      <point x="613.2" y="533.6"/>
      <point x="515.2" y="678.8"/>
      <point x="417.2" y="678.8" type="qcurve" smooth="yes"/>
      <point x="318.79999999999995" y="678.8"/>
      <point x="221.2" y="536.4"/>
    </contour>
    <contour>
      <point x="250.8" y="1081.8" type="qcurve" smooth="yes"/>
      <point x="250.8" y="934.6"/>
      <point x="335.6" y="810.8"/>
      <point x="417.2" y="810.8" type="qcurve" smooth="yes"/>
      <point x="498.8" y="810.8"/>
      <point x="583.5999999999999" y="936.2"/>
      <point x="583.5999999999999" y="1081.8" type="qcurve" smooth="yes"/>
      <point x="583.5999999999999" y="1227.4"/>
      <point x="498.4" y="1346.0"/>
      <point x="417.2" y="1346.0" type="qcurve" smooth="yes"/>
      <point x="336.0" y="1346.0"/>
      <point x="250.8" y="1229.0"/>
    </contour>
  </outline>
</glyph>
<glyph name="engtail" format="2">
  <advance width="548"/>
  <outline>
    <contour>
      <point x="372.2" y="134.0" type="line"/>
      <point x="447.2" y="134.0" type="line"/>
      <point x="447.2" y="-151.0" type="line" smooth="yes"/>
      <point x="447.2" y="-251.0"/>
      <point x="341.0" y="-387.0"/>
      <point x="233.0" y="-387.0" type="qcurve" smooth="yes"/>
      <point x="161.0" y="-387.0"/>
      <point x="53.0" y="-327.8"/>
      <point x="19.0" y="-281.0" type="qcurve"/>
      <point x="85.2" y="-214.0" type="line"/>
      <point x="117.6" y="-249.0"/>
      <point x="180.6" y="-281.0"/>
      <point x="216.0" y="-281.0" type="qcurve" smooth="yes"/>
      <point x="258.8" y="-281.0"/>
      <point x="312.0" y="-221.0"/>
      <point x="312.0" y="-121.0" type="qcurve" smooth="yes"/>
      <point x="312.0" y="-42.0"/>
      <point x="312.0" y="98.0"/>
      <point x="312.0" y="98.0" type="qcurve"/>
    </contour>
  </outline>
</glyph>
<glyph name="five.prop" format="2">
  <advance width="784"/>
  <outline>
    <contour>
      <point x="44.8" y="307.0" type="qcurve" smooth="yes"/>
      <point x="44.8" y="407.4" type="line"/>
      <point x="194.39999999999998" y="407.4" type="line"/>
      <point x="194.39999999999998" y="307.0" type="line" smooth="yes"/>
      <point x="194.39999999999998" y="206.2"/>
      <point x="294.79999999999995" y="111.2"/>
      <point x="385.2" y="111.2" type="qcurve" smooth="yes"/>
      <point x="475.2" y="111.2"/>
      <point x="582.0" y="248.2"/>
      <point x="582.0" y="465.0" type="qcurve" smooth="yes"/>
      <point x="582.0" y="668.6"/>
      <point x="474.8" y="811.8"/>
      <point x="383.6" y="811.8" type="qcurve" smooth="yes"/>
      <point x="318.4" y="811.8"/>
      <point x="229.2" y="753.6"/>
      <point x="192.39999999999998" y="677.6" type="qcurve"/>
      <point x="78.4" y="716.8" type="line"/>
      <point x="124.0" y="1456.0" type="line"/>
      <point x="682.8" y="1456.0" type="line"/>
      <point x="682.8" y="1315.6" type="line"/>
      <point x="253.6" y="1315.6" type="line"/>
      <point x="226.39999999999998" y="882.4" type="line"/>
      <point x="261.6" y="908.4"/>
      <point x="354.79999999999995" y="944.4"/>
      <point x="413.2" y="944.4" type="qcurve" smooth="yes"/>
      <point x="559.2" y="944.4"/>
      <point x="734.4" y="701.8"/>
      <point x="734.4" y="465.0" type="qcurve" smooth="yes"/>
      <point x="734.4" y="197.8"/>
      <point x="544.4" y="-22.0"/>
      <point x="386.4" y="-22.0" type="qcurve" smooth="yes"/>
      <point x="230.79999999999998" y="-22.0"/>
      <point x="44.8" y="153.4"/>
    </contour>
  </outline>
</glyph>
<glyph name="four.prop" format="2">
  <advance width="747"/>
  <outline>
    <contour>
      <point x="443.8" y="0.0" type="line"/>
      <point x="443.8" y="395.2" type="line"/>
      <point x="446.2" y="432.0" type="line"/>
      <point x="446.2" y="1098.6" type="line"/>
      <point x="437.4" y="1098.6" type="line"/>
      <point x="160.0" y="476.0" type="line"/>
      <point x="485.59999999999997" y="476.0" type="line"/>
      <point x="541.8" y="478.0" type="line"/>
      <point x="741.4" y="478.0" type="line"/>
      <point x="741.4" y="344.8" type="line"/>
      <point x="-4.6" y="344.8" type="line"/>
      <point x="-4.6" y="453.6" type="line"/>
      <point x="446.2" y="1456.0" type="line"/>
      <point x="589.8" y="1456.0" type="line"/>
      <point x="589.8" y="0.0" type="line"/>
    </contour>
  </outline>
</glyph>
<glyph name="gravecomb.case" format="2">
  <advance width="814"/>
  <outline>
    <contour>
      <point x="397.4" y="1548.0" type="line"/>
      <point x="144.6" y="1835.2" type="line"/>
      <point x="316.4" y="1866.8" type="line"/>
      <point x="516.0" y="1570.8" type="line"/>
    </contour>
  </outline>
</glyph>
<glyph name="gravecombstack.case" format="2">
  <advance width="814"/>
  <outline>
    <contour>
      <point x="503.2" y="1538.0" type="line"/>
      <point x="209.0" y="1690.0" type="line"/>
      <point x="302.79999999999995" y="1824.6" type="line"/>
      <point x="574.4" y="1632.0" type="line"/>
    </contour>
  </outline>
</glyph>
<glyph name="hookabovecomb.case" format="2">
  <advance width="814"/>
  <outline>
    <contour>
      <point x="296.4" y="1534.6" type="line"/>
      <point x="296.4" y="1566.4" type="line" smooth="yes"/>
      <point x="296.4" y="1608.8"/>
      <point x="344.6" y="1666.0"/>
      <point x="407.0" y="1675.0" type="qcurve" smooth="yes"/>
      <point x="453.4" y="1681.8"/>
      <point x="486.20000000000005" y="1705.3999999999999"/>
      <point x="486.20000000000005" y="1737.2" type="qcurve" smooth="yes"/>
      <point x="486.20000000000005" y="1767.8"/>
      <point x="439.6" y="1794.2"/>
      <point x="396.79999999999995" y="1794.2" type="qcurve" smooth="yes"/>
      <point x="344.79999999999995" y="1794.2"/>
      <point x="256.40000000000003" y="1768.3999999999999"/>
      <point x="246.0" y="1761.2" type="qcurve"/>
      <point x="201.60000000000002" y="1863.4" type="line"/>
      <point x="229.8" y="1878.0"/>
      <point x="351.4" y="1911.8"/>
      <point x="418.6" y="1911.8" type="qcurve" smooth="yes"/>
      <point x="516.2" y="1911.8"/>
      <point x="620.4" y="1824.2"/>
      <point x="620.4" y="1747.0" type="qcurve" smooth="yes"/>
      <point x="620.4" y="1666.8"/>
      <point x="515.2" y="1569.0"/>
      <point x="397.4" y="1559.6000000000001" type="qcurve"/>
      <point x="397.4" y="1534.6" type="line"/>
    </contour>
  </outline>
</glyph>
<glyph name="hookabovecombstack.case" format="2">
  <advance width="814"/>
  <outline>
    <contour>
      <point x="288.0" y="1520.8" type="line"/>
      <point x="288.0" y="1557.4" type="line" smooth="yes"/>
      <point x="288.0" y="1595.6"/>
      <point x="332.0" y="1642.0"/>
      <point x="389.0" y="1649.8" type="qcurve" smooth="yes"/>
      <point x="432.4" y="1656.0"/>
      <point x="456.2" y="1677.2"/>
      <point x="456.2" y="1706.0" type="qcurve" smooth="yes"/>
      <point x="456.2" y="1733.6"/>
      <point x="419.79999999999995" y="1751.0"/>
      <point x="380.0" y="1751.0" type="qcurve" smooth="yes"/>
      <point x="332.8" y="1751.0"/>
      <point x="252.2" y="1727.6"/>
      <point x="242.39999999999998" y="1721.0" type="qcurve"/>
      <point x="201.6" y="1819.6" type="line"/>
      <point x="227.39999999999998" y="1833.0"/>
      <point x="338.2" y="1863.2"/>
      <point x="400.6" y="1863.2" type="qcurve" smooth="yes"/>
      <point x="489.79999999999995" y="1863.2"/>
      <point x="585.0" y="1784.6"/>
      <point x="585.0" y="1714.6" type="qcurve" smooth="yes"/>
      <point x="585.0" y="1642.8"/>
      <point x="500.79999999999995" y="1561.8"/>
      <point x="404.6" y="1553.0" type="qcurve"/>
      <point x="404.6" y="1520.8" type="line"/>
    </contour>
  </outline>
</glyph>
<glyph name="horizontalbarH" format="2">
  <advance width="1029"/>
  <outline>
    <contour>
      <point x="1017.6000000000001" y="1034.2" type="line"/>
      <point x="846.4000000000001" y="1033.0" type="line"/>
      <point x="846.4000000000001" y="1158.0" type="line"/>
      <point x="1023.6000000000001" y="1159.2" type="line"/>
    </contour>
    <contour>
      <point x="11.0" y="1033.0" type="line"/>
      <point x="5.599999999999998" y="1158.0" type="line"/>
      <point x="187.8" y="1158.0" type="line"/>
      <point x="187.8" y="1033.0" type="line"/>
    </contour>
    <contour>
      <point x="187.8" y="1043.0" type="line"/>
      <point x="187.8" y="1148.0" type="line"/>
      <point x="846.4000000000001" y="1148.0" type="line"/>
      <point x="846.4000000000001" y="1043.0" type="line"/>
    </contour>
  </outline>
</glyph>
<glyph name="horizontalbarlc" format="2">
  <advance width="531"/>
  <outline>
    <contour>
      <point x="262.2" y="672.4" type="line"/>
      <point x="29.4" y="672.4" type="line"/>
      <point x="36.8" y="802.0" type="line"/>
      <point x="283.8" y="802.0" type="line"/>
      <point x="519.2" y="802.0" type="line"/>
      <point x="519.2" y="672.4" type="line"/>
    </contour>
  </outline>
</glyph>
<glyph name="horncomb.case" format="2">
  <advance width="814"/>
  <outline>
    <contour>
      <point x="269.2" y="1498.0" type="line"/>
      <point x="330.6" y="1498.0" type="line" smooth="yes"/>
      <point x="384.8" y="1498.0"/>
      <point x="449.40000000000003" y="1529.8"/>
      <point x="449.40000000000003" y="1578.3999999999999" type="qcurve" smooth="yes"/>
      <point x="449.40000000000003" y="1613.3999999999999"/>
      <point x="436.0" y="1677.6"/>
      <point x="427.0" y="1709.2" type="qcurve"/>
      <point x="543.8" y="1709.2" type="line"/>
      <point x="560.4" y="1678.2"/>
      <point x="590.0" y="1589.0"/>
      <point x="590.0" y="1538.3999999999999" type="qcurve" smooth="yes"/>
      <point x="590.0" y="1464.3999999999999"/>
      <point x="484.0" y="1388.6"/>
      <point x="404.0" y="1388.6" type="qcurve" smooth="yes"/>
      <point x="363.6" y="1388.6"/>
      <point x="292.4" y="1399.8"/>
      <point x="269.2" y="1406.8000000000002" type="qcurve"/>
    </contour>
  </outline>
</glyph>
<glyph name="idotless" format="2">
  <advance width="382"/>
  <outline>
    <contour>
      <point x="23.999999999999993" y="0.0" type="line"/>
      <point x="23.999999999999993" y="913.9999999999999" type="line"/>
      <point x="354.8" y="913.9999999999999" type="line"/>
      <point x="354.8" y="0.0" type="line"/>
    </contour>
  </outline>
</glyph>
<glyph name="jdotless" format="2">
  <advance width="385"/>
  <outline>
    <contour>
      <point x="-158.8" y="-411.0" type="qcurve"/>
      <point x="-159.0" y="-146.6" type="line"/>
      <point x="-142.0" y="-150.80000000000004"/>
      <point x="-91.2" y="-157.4"/>
      <point x="-51.8" y="-157.4" type="qcurve" smooth="yes"/>
      <point x="-14.8" y="-157.4"/>
      <point x="26.400000000000006" y="-113.39999999999999"/>
      <point x="26.400000000000006" y="-39.0" type="qcurve" smooth="yes"/>
      <point x="26.400000000000006" y="913.9999999999999" type="line"/>
      <point x="361.4" y="913.9999999999999" type="line"/>
      <point x="361.4" y="-81.4" type="line" smooth="yes"/>
      <point x="361.4" y="-245.20000000000005"/>
      <point x="184.39999999999995" y="-431.4"/>
      <point x="23.2" y="-431.4" type="qcurve" smooth="yes"/>
      <point x="-46.0" y="-431.4"/>
      <point x="-127.0" y="-417.59999999999997"/>
    </contour>
  </outline>
</glyph>
<glyph name="macroncomb.case" format="2">
  <advance width="814"/>
  <outline>
    <contour>
      <point x="164.0" y="1606.4" type="line"/>
      <point x="164.0" y="1739.2" type="line"/>
      <point x="650.4" y="1739.2" type="line"/>
      <point x="650.4" y="1606.4" type="line"/>
    </contour>
  </outline>
</glyph>
<glyph name="nine.prop" format="2">
  <advance width="822"/>
  <outline>
    <contour>
      <point x="44.0" y="1001.6" type="qcurve" smooth="yes"/>
      <point x="44.0" y="1263.6"/>
      <point x="240.0" y="1478.0"/>
      <point x="393.6" y="1478.0" type="qcurve" smooth="yes"/>
      <point x="551.5999999999999" y="1478.0"/>
      <point x="762.0" y="1220.0"/>
      <point x="762.0" y="856.8" type="qcurve" smooth="yes"/>
      <point x="762.0" y="806.4" type="line" smooth="yes"/>
      <point x="762.0" y="383.6"/>
      <point x="482.4" y="7.200000000000003"/>
      <point x="205.2" y="-17.2" type="qcurve" smooth="yes"/>
      <point x="183.6" y="-22.0" type="line"/>
      <point x="169.2" y="107.2" type="line"/>
      <point x="191.2" y="112.8" type="line" smooth="yes"/>
      <point x="398.0" y="132.8"/>
      <point x="611.5999999999999" y="403.2"/>
      <point x="611.5999999999999" y="774.0" type="qcurve" smooth="yes"/>
      <point x="611.5999999999999" y="848.0" type="line" smooth="yes"/>
      <point x="611.5999999999999" y="1136.0"/>
      <point x="499.59999999999997" y="1346.8"/>
      <point x="394.79999999999995" y="1346.8" type="qcurve" smooth="yes"/>
      <point x="290.0" y="1346.8"/>
      <point x="195.6" y="1181.4"/>
      <point x="195.6" y="1001.6" type="qcurve" smooth="yes"/>
      <point x="195.6" y="837.0"/>
      <point x="289.2" y="666.0"/>
      <point x="393.2" y="666.0" type="qcurve" smooth="yes"/>
      <point x="489.59999999999997" y="666.0"/>
      <point x="620.4" y="823.8"/>
      <point x="621.2" y="997.6" type="qcurve"/>
      <point x="684.8" y="997.6" type="line"/>
      <point x="684.8" y="763.2"/>
      <point x="507.59999999999997" y="533.6"/>
      <point x="362.4" y="533.6" type="qcurve" smooth="yes"/>
      <point x="218.6" y="533.6"/>
      <point x="44.0" y="747.6"/>
    </contour>
  </outline>
</glyph>
<glyph name="ogonekcomb.case" format="2">
  <advance width="814"/>
  <outline>
    <contour>
      <point x="159.79999999999998" y="-238.8" type="qcurve" smooth="yes"/>
      <point x="159.79999999999998" y="-171.8"/>
      <point x="252.20000000000002" y="-34.199999999999996"/>
      <point x="346.79999999999995" y="41.8" type="qcurve"/>
      <point x="423.79999999999995" y="-1.5999999999999996" type="line"/>
      <point x="347.6" y="-78.80000000000001"/>
      <point x="297.0" y="-157.4"/>
      <point x="297.0" y="-192.0" type="qcurve" smooth="yes"/>
      <point x="297.0" y="-228.8"/>
      <point x="341.0" y="-272.6"/>
      <point x="384.6" y="-272.6" type="qcurve" smooth="yes"/>
      <point x="424.0" y="-272.6"/>
      <point x="520.8000000000001" y="-238.6"/>
      <point x="563.5999999999999" y="-206.0" type="qcurve"/>
      <point x="605.4" y="-293.79999999999995" type="line"/>
      <point x="572.0" y="-336.4"/>
      <point x="440.0" y="-397.0"/>
      <point x="360.79999999999995" y="-397.0" type="qcurve" smooth="yes"/>
      <point x="277.0" y="-397.0"/>
      <point x="159.79999999999998" y="-306.8"/>
    </contour>
  </outline>
</glyph>
<glyph name="one.prop" format="2">
  <advance width="582"/>
  <outline>
    <contour>
      <point x="300.2" y="0.0" type="line"/>
      <point x="300.2" y="1281.0" type="line"/>
      <point x="23.4" y="1148.4" type="line"/>
      <point x="23.4" y="1305.2" type="line"/>
      <point x="405.0" y="1468.0" type="line"/>
      <point x="454.6" y="1468.0" type="line"/>
      <point x="454.6" y="0.0" type="line"/>
    </contour>
  </outline>
</glyph>
<glyph name="ringcomb.case" format="2">
  <advance width="814"/>
  <outline>
    <contour>
      <point x="211.0" y="1729.6000000000001" type="qcurve" smooth="yes"/>
      <point x="211.0" y="1810.8"/>
      <point x="322.0" y="1919.0"/>
      <point x="407.2" y="1919.0" type="qcurve" smooth="yes"/>
      <point x="491.5999999999999" y="1919.0"/>
      <point x="603.4" y="1810.8"/>
      <point x="603.4" y="1729.6000000000001" type="qcurve" smooth="yes"/>
      <point x="603.4" y="1647.1999999999998"/>
      <point x="491.5999999999999" y="1540.6"/>
      <point x="407.2" y="1540.6" type="qcurve"/>
      <point x="322.0" y="1540.6"/>
      <point x="211.0" y="1647.1999999999998"/>
    </contour>
    <contour>
      <point x="313.8" y="1729.2" type="qcurve" smooth="yes"/>
      <point x="313.8" y="1688.2"/>
      <point x="364.79999999999995" y="1635.4"/>
      <point x="407.2" y="1635.4" type="qcurve" smooth="yes"/>
      <point x="451.4" y="1635.4"/>
      <point x="500.6" y="1685.3999999999999"/>
      <point x="500.6" y="1729.2" type="qcurve" smooth="yes"/>
      <point x="500.6" y="1769.8"/>
      <point x="449.6" y="1823.0"/>
      <point x="407.2" y="1823.0" type="qcurve" smooth="yes"/>
      <point x="363.0" y="1823.0"/>
      <point x="313.8" y="1772.1999999999998"/>
    </contour>
  </outline>
</glyph>
